<svg width="31" height="56" viewBox="0 0 31 56" fill="none" xmlns="http://www.w3.org/2000/svg">
<path d="M14.3477 55.2109L14.2891 49.5859C9.30859 49.5273 4.79688 48.3359 0.753906 46.0117L2.6875 39.7129C6.55469 41.8418 10.4414 42.9648 14.3477 43.082V30.3672C12.0039 29.6836 10.4219 29.1758 9.60156 28.8438C3.83984 26.8125 0.958984 23.0234 0.958984 17.4766C0.958984 13.8633 2.16992 11.0117 4.5918 8.92188C7.01367 6.83203 10.2656 5.65039 14.3477 5.37695V0.865234H17.2188V5.31836C21.9062 5.45508 25.998 6.51953 29.4941 8.51172L27.0918 14.3125C23.5762 12.7305 20.2852 11.8809 17.2188 11.7637V23.2773C17.375 23.3359 17.6094 23.4141 17.9219 23.5117C18.2344 23.6094 18.5762 23.7168 18.9473 23.834C19.3379 23.9512 19.6016 24.0293 19.7383 24.0684C23.6641 25.3574 26.4668 26.959 28.1465 28.873C29.8457 30.7871 30.6953 33.4531 30.6953 36.8711C30.6953 40.5625 29.4941 43.4922 27.0918 45.6602C24.6895 47.8281 21.3984 49.0977 17.2188 49.4688V55.2109H14.3477ZM14.3477 22.3105V11.8809C12.6875 12.0957 11.4277 12.623 10.5684 13.4629C9.70898 14.3027 9.24023 15.5234 9.16211 17.125C9.16211 19.5078 10.3438 21.0605 12.707 21.7832C12.9805 21.8809 13.5273 22.0566 14.3477 22.3105ZM17.2188 42.9062C20.832 42.3203 22.6387 40.2891 22.6387 36.8125C22.6387 34.3125 21.125 32.5547 18.0977 31.5391C18.0391 31.5 17.8828 31.4512 17.6289 31.3926C17.3945 31.3145 17.2578 31.2656 17.2188 31.2461V42.9062Z" fill="#FEC738"/>
</svg>
