<svg width="40" height="40" viewBox="0 0 40 40" fill="none" xmlns="http://www.w3.org/2000/svg">
<path d="M15.4783 28.62C15.3467 28.6208 15.2162 28.5955 15.0944 28.5458C14.9725 28.496 14.8617 28.4227 14.7683 28.33L7.22829 20.79C7.04204 20.6026 6.9375 20.3492 6.9375 20.085C6.9375 19.8208 7.04204 19.5674 7.22829 19.38C7.32126 19.2863 7.43186 19.2119 7.55372 19.1611C7.67558 19.1103 7.80628 19.0842 7.93829 19.0842C8.0703 19.0842 8.20101 19.1103 8.32287 19.1611C8.44473 19.2119 8.55533 19.2863 8.64829 19.38L15.4783 26.21L32.1183 9.57C32.3057 9.38375 32.5591 9.27921 32.8233 9.27921C33.0875 9.27921 33.3409 9.38375 33.5283 9.57C33.622 9.66296 33.6964 9.77356 33.7472 9.89542C33.798 10.0173 33.8241 10.148 33.8241 10.28C33.8241 10.412 33.798 10.5427 33.7472 10.6646C33.6964 10.7864 33.622 10.897 33.5283 10.99L16.1783 28.33C15.992 28.5147 15.7406 28.6189 15.4783 28.62Z" fill="#1CA029"/>
</svg>
