<svg width="32" height="32" viewBox="0 0 32 32" fill="none" xmlns="http://www.w3.org/2000/svg">
<path d="M24.1986 12.193L23.7986 24.3C23.7645 25.3369 23.3277 26.3197 22.5809 27.0398C21.8341 27.7599 20.836 28.1607 19.7986 28.157H12.1986C11.1618 28.1607 10.1643 27.7605 9.41761 27.0413C8.6709 26.322 8.23365 25.3402 8.19856 24.304L7.79856 12.193C7.78981 11.9278 7.88677 11.67 8.06812 11.4762C8.24947 11.2825 8.50035 11.1688 8.76556 11.16C9.03078 11.1512 9.28861 11.2482 9.48233 11.4296C9.67606 11.6109 9.78981 11.8618 9.79856 12.127L10.1986 24.237C10.2185 24.754 10.438 25.2431 10.8109 25.6017C11.1838 25.9603 11.6812 26.1604 12.1986 26.16H19.7986C20.3166 26.1603 20.8145 25.9597 21.1876 25.6003C21.5606 25.2408 21.7797 24.7507 21.7986 24.233L22.1986 12.127C22.2073 11.8618 22.3211 11.6109 22.5148 11.4296C22.7085 11.2482 22.9663 11.1512 23.2316 11.16C23.4968 11.1688 23.7477 11.2825 23.929 11.4762C24.1103 11.67 24.2073 11.9278 24.1986 12.193ZM25.5216 8.164C25.5216 8.42922 25.4162 8.68357 25.2287 8.87111C25.0411 9.05864 24.7868 9.164 24.5216 9.164H7.47656C7.21135 9.164 6.95699 9.05864 6.76946 8.87111C6.58192 8.68357 6.47656 8.42922 6.47656 8.164C6.47656 7.89878 6.58192 7.64443 6.76946 7.45689C6.95699 7.26936 7.21135 7.164 7.47656 7.164H10.5766C10.8934 7.16485 11.1992 7.04779 11.4345 6.8356C11.6698 6.6234 11.8178 6.33125 11.8496 6.016C11.9234 5.27649 12.2698 4.59093 12.8215 4.09291C13.3731 3.59489 14.0904 3.32007 14.8336 3.322H17.1636C17.9067 3.32007 18.624 3.59489 19.1757 4.09291C19.7273 4.59093 20.0738 5.27649 20.1476 6.016C20.1793 6.33125 20.3273 6.6234 20.5626 6.8356C20.7979 7.04779 21.1037 7.16485 21.4206 7.164H24.5206C24.7858 7.164 25.0401 7.26936 25.2277 7.45689C25.4152 7.64443 25.5206 7.89878 25.5206 8.164H25.5216ZM13.5856 7.164H18.4136C18.2822 6.86374 18.1962 6.54558 18.1586 6.22C18.1338 5.97351 18.0184 5.74499 17.8348 5.57871C17.6511 5.41244 17.4123 5.32025 17.1646 5.32H14.8346C14.5868 5.32025 14.348 5.41244 14.1644 5.57871C13.9807 5.74499 13.8653 5.97351 13.8406 6.22C13.8026 6.54564 13.7173 6.8638 13.5856 7.164ZM14.5926 22.315V13.8C14.5926 13.5348 14.4872 13.2804 14.2997 13.0929C14.1121 12.9054 13.8578 12.8 13.5926 12.8C13.3273 12.8 13.073 12.9054 12.8855 13.0929C12.6979 13.2804 12.5926 13.5348 12.5926 13.8V22.319C12.5926 22.5842 12.6979 22.8386 12.8855 23.0261C13.073 23.2136 13.3273 23.319 13.5926 23.319C13.8578 23.319 14.1121 23.2136 14.2997 23.0261C14.4872 22.8386 14.5926 22.5842 14.5926 22.319V22.315ZM19.4066 22.315V13.8C19.4066 13.5348 19.3012 13.2804 19.1137 13.0929C18.9261 12.9054 18.6718 12.8 18.4066 12.8C18.1413 12.8 17.887 12.9054 17.6995 13.0929C17.5119 13.2804 17.4066 13.5348 17.4066 13.8V22.319C17.4066 22.5842 17.5119 22.8386 17.6995 23.0261C17.887 23.2136 18.1413 23.319 18.4066 23.319C18.6718 23.319 18.9261 23.2136 19.1137 23.0261C19.3012 22.8386 19.4066 22.5842 19.4066 22.319V22.315Z" fill="#D01010"/>
</svg>
