<svg width="36" height="36" viewBox="0 0 36 36" fill="none" xmlns="http://www.w3.org/2000/svg">
<rect width="36" height="36" fill="#F2F2F2"/>
<path d="M6.23757 20.8959C5.16806 19.1134 5.16806 16.8866 6.23757 15.1041C6.56393 14.5601 7.10462 14.1791 7.72665 14.0547L10.2662 13.5468C10.4175 13.5165 10.5539 13.4354 10.6526 13.3168L15.1708 7.89499C16.3534 6.47592 16.9447 5.76638 17.4723 5.95742C18 6.14846 18 7.07207 18 8.91928L18 27.0807C18 28.9279 18 29.8515 17.4723 30.0426C16.9447 30.2336 16.3534 29.5241 15.1708 28.105L10.6526 22.6832C10.5539 22.5646 10.4175 22.4835 10.2662 22.4532L7.72665 21.9453C7.10462 21.8209 6.56394 21.4399 6.23757 20.8959Z" fill="#3784A6"/>
<path d="M21.8033 12.6967C23.2026 14.096 23.9921 15.9916 23.9999 17.9705C24.0077 19.9493 23.2331 21.8511 21.8449 23.2614" stroke="#3784A6" stroke-width="2" stroke-linecap="round"/>
<path d="M27.9853 9.51472C30.2241 11.7536 31.4874 14.7865 31.4999 17.9527C31.5124 21.1189 30.273 24.1617 28.0519 26.4182" stroke="#3784A6" stroke-width="2" stroke-linecap="round"/>
</svg>
