<svg width="29" height="29" viewBox="0 0 29 29" fill="none" xmlns="http://www.w3.org/2000/svg">
<path fill-rule="evenodd" clip-rule="evenodd" d="M17.9217 3.41944C16.8867 2.90975 15.7244 2.625 14.5015 2.625C10.5524 2.625 7.23482 5.59436 6.79871 9.51928L6.49445 12.2576C6.44958 12.6615 6.43051 12.8307 6.40405 12.9949C6.28069 13.7603 6.03102 14.5 5.66522 15.1837C5.58675 15.3303 5.49942 15.4764 5.29034 15.8249L4.58636 16.9982L4.54885 17.0607C4.17824 17.6782 3.84379 18.2355 3.64957 18.7038C3.44605 19.1945 3.2773 19.8648 3.65225 20.5271C4.02719 21.1893 4.68881 21.3895 5.21431 21.4674C5.71583 21.5418 6.36574 21.5418 7.08594 21.5417H7.08595L7.15884 21.5417H21.8441L21.917 21.5417H21.917C22.6372 21.5418 23.2871 21.5418 23.7886 21.4674C24.3141 21.3895 24.9757 21.1893 25.3507 20.5271C25.7256 19.8648 25.5569 19.1945 25.3533 18.7038C25.1591 18.2355 24.8247 17.6783 24.4542 17.0608L24.4541 17.0607L24.4166 16.9982L23.7126 15.8249C23.5035 15.4764 23.4162 15.3303 23.3377 15.1837C22.9719 14.5 22.7222 13.7603 22.5989 12.9949C22.5818 12.8888 22.5678 12.7807 22.5479 12.6085C22.288 12.6468 22.022 12.6667 21.7515 12.6667C21.33 12.6667 20.9199 12.6185 20.5261 12.5275C20.5657 12.8833 20.5898 13.0989 20.6243 13.313C20.7829 14.2972 21.1039 15.2483 21.5743 16.1272C21.6786 16.3223 21.7926 16.5122 21.9835 16.8303L21.9976 16.8539L22.7016 18.0272C23.1219 18.7277 23.3756 19.1558 23.5059 19.47L23.5127 19.4864L23.4951 19.4891C23.1586 19.539 22.661 19.5417 21.8441 19.5417H7.15884C6.34194 19.5417 5.84429 19.539 5.50781 19.4891L5.49025 19.4864L5.49699 19.47C5.6273 19.1558 5.88105 18.7277 6.30134 18.0272L7.00532 16.8539L7.01941 16.8304C7.21034 16.5122 7.32426 16.3223 7.42865 16.1272C7.89897 15.2483 8.21998 14.2972 8.37858 13.313C8.41377 13.0946 8.43822 12.8746 8.47919 12.5058L8.47919 12.5058L8.48222 12.4785L8.78648 9.74015C9.11004 6.82808 11.5715 4.625 14.5015 4.625C15.3083 4.625 16.0795 4.79205 16.7804 5.09495C17.0538 4.46536 17.4432 3.89785 17.9217 3.41944ZM20.3454 5.28425C19.7335 5.72272 19.3348 6.4398 19.3348 7.25C19.3348 7.25297 19.3348 7.25593 19.3348 7.2589C19.6744 7.78484 19.931 8.37118 20.0854 9.00055C20.5189 9.41331 21.1056 9.66667 21.7515 9.66667C21.9102 9.66667 22.0654 9.65136 22.2156 9.62213L22.2042 9.51928C22.0239 7.89694 21.3514 6.43786 20.3454 5.28425ZM23.573 19.6793C23.5729 19.6791 23.5725 19.6766 23.5724 19.672C23.5731 19.6771 23.5732 19.6794 23.573 19.6793ZM23.7025 19.4421C23.7065 19.4399 23.7089 19.4389 23.7091 19.439C23.7093 19.439 23.7073 19.4402 23.7025 19.4421ZM5.29381 19.439C5.29399 19.4389 5.29638 19.4399 5.30045 19.4422C5.29566 19.4402 5.29363 19.439 5.29381 19.439ZM5.43053 19.672C5.4304 19.6766 5.43002 19.6791 5.42986 19.6793C5.42971 19.6794 5.42977 19.677 5.43053 19.672Z" fill="white"/>
<path d="M10.9985 21.3448C11.2051 22.501 11.6602 23.5227 12.2932 24.2514C12.9263 24.98 13.702 25.375 14.5 25.375C15.298 25.375 16.0737 24.98 16.7068 24.2514C17.3398 23.5227 17.7949 22.501 18.0015 21.3448" stroke="white" stroke-width="2" stroke-linecap="round"/>
<path d="M21.7487 10.1667C23.3595 10.1667 24.6654 8.86083 24.6654 7.24999C24.6654 5.63916 23.3595 4.33333 21.7487 4.33333C20.1379 4.33333 18.832 5.63916 18.832 7.24999C18.832 8.86083 20.1379 10.1667 21.7487 10.1667Z" fill="#DFEDF3" stroke="#3784A6"/>
</svg>
