<svg width="29" height="29" viewBox="0 0 29 29" fill="none" xmlns="http://www.w3.org/2000/svg">
<path fill-rule="evenodd" clip-rule="evenodd" d="M17.9202 3.41944C16.8852 2.90975 15.7229 2.625 14.5 2.625C10.5509 2.625 7.23335 5.59436 6.79725 9.51928L6.49299 12.2576C6.44811 12.6615 6.42904 12.8307 6.40258 12.9949C6.27923 13.7603 6.02955 14.5 5.66375 15.1837C5.58529 15.3303 5.49795 15.4764 5.28887 15.8249L4.58489 16.9982L4.54738 17.0607C4.17677 17.6782 3.84233 18.2355 3.6481 18.7038C3.44459 19.1945 3.27584 19.8648 3.65078 20.5271C4.02572 21.1893 4.68735 21.3895 5.21284 21.4674C5.71436 21.5418 6.36428 21.5418 7.08447 21.5417H7.08449L7.15737 21.5417H21.8426L21.9155 21.5417H21.9155C22.6357 21.5418 23.2856 21.5418 23.7871 21.4674C24.3126 21.3895 24.9743 21.1893 25.3492 20.5271C25.7241 19.8648 25.5554 19.1945 25.3519 18.7038C25.1577 18.2355 24.8233 17.6783 24.4527 17.0608L24.4526 17.0607L24.4151 16.9982L23.7111 15.8249C23.502 15.4764 23.4147 15.3303 23.3362 15.1837C22.9704 14.5 22.7208 13.7603 22.5974 12.9949C22.5803 12.8888 22.5663 12.7807 22.5464 12.6085C22.2865 12.6468 22.0206 12.6667 21.75 12.6667C21.3286 12.6667 20.9184 12.6185 20.5247 12.5275C20.5642 12.8833 20.5884 13.0989 20.6229 13.313C20.7815 14.2972 21.1025 15.2483 21.5728 16.1272C21.6772 16.3223 21.7911 16.5122 21.982 16.8303L21.9961 16.8539L22.7001 18.0272C23.1204 18.7277 23.3741 19.1558 23.5045 19.47L23.5112 19.4864L23.4936 19.4891C23.1572 19.539 22.6595 19.5417 21.8426 19.5417H7.15737C6.34048 19.5417 5.84283 19.539 5.50635 19.4891L5.48879 19.4864L5.49553 19.47C5.62584 19.1558 5.87959 18.7277 6.29988 18.0272L7.00386 16.8539L7.01795 16.8304C7.20887 16.5122 7.32279 16.3223 7.42718 16.1272C7.8975 15.2483 8.21851 14.2972 8.37711 13.313C8.41231 13.0946 8.43676 12.8746 8.47772 12.5058L8.47772 12.5058L8.48076 12.4785L8.78502 9.74015C9.10858 6.82808 11.57 4.625 14.5 4.625C15.3068 4.625 16.0781 4.79205 16.779 5.09495C17.0523 4.46536 17.4417 3.89785 17.9202 3.41944ZM20.3439 5.28425C19.732 5.72272 19.3333 6.4398 19.3333 7.25C19.3333 7.25297 19.3333 7.25593 19.3333 7.2589C19.6729 7.78484 19.9295 8.37118 20.0839 9.00055C20.5174 9.41331 21.1041 9.66667 21.75 9.66667C21.9088 9.66667 22.0639 9.65136 22.2142 9.62213L22.2027 9.51928C22.0225 7.89694 21.3499 6.43786 20.3439 5.28425ZM23.5716 19.6793C23.5714 19.6791 23.5711 19.6766 23.5709 19.672C23.5717 19.6771 23.5717 19.6794 23.5716 19.6793ZM23.701 19.4421C23.7051 19.4399 23.7075 19.4389 23.7076 19.439C23.7078 19.439 23.7058 19.4402 23.701 19.4421ZM5.29234 19.439C5.29252 19.4389 5.29492 19.4399 5.29899 19.4422C5.2942 19.4402 5.29216 19.439 5.29234 19.439ZM5.42906 19.672C5.42894 19.6766 5.42856 19.6791 5.4284 19.6793C5.42824 19.6794 5.42831 19.677 5.42906 19.672Z" fill="black"/>
<path d="M10.9985 21.3448C11.2051 22.501 11.6602 23.5227 12.2932 24.2514C12.9263 24.98 13.702 25.375 14.5 25.375C15.298 25.375 16.0737 24.98 16.7068 24.2514C17.3398 23.5227 17.7949 22.501 18.0015 21.3448" stroke="black" stroke-width="2" stroke-linecap="round"/>
<path d="M21.7502 10.1666C23.361 10.1666 24.6668 8.86075 24.6668 7.24992C24.6668 5.63909 23.361 4.33325 21.7502 4.33325C20.1393 4.33325 18.8335 5.63909 18.8335 7.24992C18.8335 8.86075 20.1393 10.1666 21.7502 10.1666Z" fill="#DFEDF3" stroke="#3784A6"/>
</svg>
