<svg width="111" height="111" viewBox="0 0 111 111" fill="none" xmlns="http://www.w3.org/2000/svg">
<circle cx="55.5" cy="55.5" r="55" fill="#0A93E2" stroke="#0A93E2"/>
<path d="M73.5 35H71V32.5C71 31 70 30 68.5 30C67 30 66 31 66 32.5V35H46V32.5C46 31 45 30 43.5 30C42 30 41 31 41 32.5V35H38.5C34.25 35 31 38.25 31 42.5V45H81V42.5C81 38.25 77.75 35 73.5 35ZM31 72.5C31 76.75 34.25 80 38.5 80H73.5C77.75 80 81 76.75 81 72.5V50H31V72.5ZM68.5 55C70 55 71 56 71 57.5C71 59 70 60 68.5 60C67 60 66 59 66 57.5C66 56 67 55 68.5 55ZM68.5 65C70 65 71 66 71 67.5C71 69 70 70 68.5 70C67 70 66 69 66 67.5C66 66 67 65 68.5 65ZM56 55C57.5 55 58.5 56 58.5 57.5C58.5 59 57.5 60 56 60C54.5 60 53.5 59 53.5 57.5C53.5 56 54.5 55 56 55ZM56 65C57.5 65 58.5 66 58.5 67.5C58.5 69 57.5 70 56 70C54.5 70 53.5 69 53.5 67.5C53.5 66 54.5 65 56 65ZM43.5 55C45 55 46 56 46 57.5C46 59 45 60 43.5 60C42 60 41 59 41 57.5C41 56 42 55 43.5 55ZM43.5 65C45 65 46 66 46 67.5C46 69 45 70 43.5 70C42 70 41 69 41 67.5C41 66 42 65 43.5 65Z" fill="white"/>
</svg>
