<svg width="45" height="45" viewBox="0 0 45 45" fill="none" xmlns="http://www.w3.org/2000/svg">
<path d="M4.67962 7.65371L9.62623 2.70711C10.0168 2.31658 10.6499 2.31658 11.0404 2.70711L18.9596 10.6262C19.3501 11.0168 19.3501 11.6499 18.9596 12.0404L15.5097 15.4903C15.2053 15.7947 15.1298 16.2597 15.3223 16.6447L16.238 18.4761C18.4636 22.9272 22.0728 26.5364 26.5239 28.762L28.3553 29.6777C28.7403 29.8702 29.2053 29.7947 29.5097 29.4903L32.9596 26.0404C33.3501 25.6499 33.9832 25.6499 34.3738 26.0404L42.2929 33.9596C42.6834 34.3501 42.6834 34.9832 42.2929 35.3738L37.3463 40.3204C35.2349 42.4317 31.8924 42.6693 29.5036 40.8777L17.6286 31.9714C15.885 30.6638 14.3362 29.115 13.0286 27.3714L4.12226 15.4964C2.33072 13.1076 2.56827 9.76507 4.67962 7.65371Z" stroke="#F5F5F5" stroke-width="4"/>
</svg>
