<svg width="36" height="36" viewBox="0 0 36 36" fill="none" xmlns="http://www.w3.org/2000/svg">
<path fill-rule="evenodd" clip-rule="evenodd" d="M30 16.5C30 12.2866 30 10.1799 28.9888 8.66658C28.5511 8.01144 27.9886 7.44893 27.3334 7.01118C25.8201 6 23.7134 6 19.5 6H16.5C12.2866 6 10.1799 6 8.66658 7.01118C8.01144 7.44893 7.44893 8.01144 7.01118 8.66658C6 10.1799 6 12.2866 6 16.5C6 20.7134 6 22.8201 7.01118 24.3334C7.44893 24.9886 8.01144 25.5511 8.66658 25.9888C9.98861 26.8722 11.7634 26.9838 15 26.998V27L17.1056 31.2111C17.4741 31.9482 18.5259 31.9482 18.8944 31.2111L21 27V26.998C24.2366 26.9838 26.0114 26.8722 27.3334 25.9888C27.9886 25.5511 28.5511 24.9886 28.9888 24.3334C30 22.8201 30 20.7134 30 16.5ZM12 18C12.8284 18 13.5 17.3284 13.5 16.5C13.5 15.6716 12.8284 15 12 15C11.1716 15 10.5 15.6716 10.5 16.5C10.5 17.3284 11.1716 18 12 18ZM19.5 16.5C19.5 17.3284 18.8284 18 18 18C17.1716 18 16.5 17.3284 16.5 16.5C16.5 15.6716 17.1716 15 18 15C18.8284 15 19.5 15.6716 19.5 16.5ZM25.5 16.5C25.5 17.3284 24.8284 18 24 18C23.1716 18 22.5 17.3284 22.5 16.5C22.5 15.6716 23.1716 15 24 15C24.8284 15 25.5 15.6716 25.5 16.5Z" fill="#294481"/>
</svg>
