<svg width="12" height="13" viewBox="0 0 12 13" fill="none" xmlns="http://www.w3.org/2000/svg">
<path d="M1.5 7.125H5.25C5.59375 7.125 5.875 6.84375 5.875 6.5V1.5C5.875 1.15625 5.59375 0.875 5.25 0.875H1.5C1.15625 0.875 0.875 1.15625 0.875 1.5V6.5C0.875 6.84375 1.15625 7.125 1.5 7.125ZM1.5 12.125H5.25C5.59375 12.125 5.875 11.8438 5.875 11.5V9C5.875 8.65625 5.59375 8.375 5.25 8.375H1.5C1.15625 8.375 0.875 8.65625 0.875 9V11.5C0.875 11.8438 1.15625 12.125 1.5 12.125ZM7.75 12.125H11.5C11.8438 12.125 12.125 11.8438 12.125 11.5V6.5C12.125 6.15625 11.8438 5.875 11.5 5.875H7.75C7.40625 5.875 7.125 6.15625 7.125 6.5V11.5C7.125 11.8438 7.40625 12.125 7.75 12.125ZM7.125 1.5V4C7.125 4.34375 7.40625 4.625 7.75 4.625H11.5C11.8438 4.625 12.125 4.34375 12.125 4V1.5C12.125 1.15625 11.8438 0.875 11.5 0.875H7.75C7.40625 0.875 7.125 1.15625 7.125 1.5Z" fill="white"/>
</svg>
