<svg width="30" height="30" viewBox="0 0 30 30" fill="none" xmlns="http://www.w3.org/2000/svg">
<g opacity="0.5" clip-path="url(#clip0_710_1092)">
<path d="M8.24324 21.7565C8.42652 21.9398 8.66605 22.0312 8.90605 22.0312C9.14605 22.0312 9.38558 21.9398 9.56886 21.7565L14.9998 16.3256L20.4307 21.7565C20.614 21.9398 20.8536 22.0312 21.0936 22.0312C21.3336 22.0312 21.5731 21.9398 21.7564 21.7565C21.9321 21.5807 22.0309 21.3423 22.0309 21.0937C22.0309 20.8451 21.9321 20.6067 21.7564 20.4309L16.3254 15L21.7564 9.56905C21.8459 9.48257 21.9173 9.37912 21.9665 9.26474C22.0156 9.15036 22.0415 9.02734 22.0425 8.90286C22.0436 8.77838 22.0199 8.65493 21.9728 8.53972C21.9256 8.4245 21.856 8.31983 21.768 8.2318C21.68 8.14378 21.5753 8.07417 21.4601 8.02703C21.3449 7.97989 21.2214 7.95617 21.0969 7.95725C20.9724 7.95833 20.8494 7.98419 20.735 8.03333C20.6207 8.08246 20.5172 8.15388 20.4307 8.24342L14.9998 13.6744L9.56886 8.24342C9.48238 8.15388 9.37893 8.08246 9.26456 8.03333C9.15018 7.98419 9.02716 7.95833 8.90268 7.95725C8.7782 7.95617 8.65475 7.97989 8.53953 8.02703C8.42432 8.07417 8.31964 8.14378 8.23162 8.2318C8.14359 8.31983 8.07398 8.4245 8.02684 8.53972C7.97971 8.65493 7.95598 8.77838 7.95707 8.90286C7.95815 9.02734 7.98401 9.15036 8.03314 9.26474C8.08228 9.37912 8.1537 9.48257 8.24324 9.56905L13.6742 15L8.24324 20.4309C8.06749 20.6067 7.96875 20.8451 7.96875 21.0937C7.96875 21.3423 8.06749 21.5807 8.24324 21.7565Z" fill="black"/>
<path d="M15 30C19.0064 30 22.7733 28.4395 25.6059 25.6064C28.4395 22.7733 30 19.0064 30 15C30 10.9936 28.4395 7.22672 25.6059 4.39406C22.7733 1.56047 19.0064 0 15 0C10.9936 0 7.22672 1.56047 4.39406 4.39359C1.56047 7.22672 0 10.9936 0 15C0 19.0064 1.56047 22.7733 4.39406 25.6059C7.22672 28.4395 10.9936 30 15 30ZM5.71969 5.71969C8.19844 3.24047 11.4942 1.875 15 1.875C18.5058 1.875 21.8016 3.24047 24.2803 5.71969C26.7595 8.19844 28.125 11.4942 28.125 15C28.125 18.5058 26.7595 21.8016 24.2803 24.2803C21.8016 26.7595 18.5058 28.125 15 28.125C11.4942 28.125 8.19844 26.7595 5.71969 24.2803C3.24047 21.8016 1.875 18.5058 1.875 15C1.875 11.4942 3.24047 8.19844 5.71969 5.71969Z" fill="black"/>
</g>
<defs>
<clipPath id="clip0_710_1092">
<rect width="30" height="30" fill="white"/>
</clipPath>
</defs>
</svg>
