<svg width="18" height="18" viewBox="0 0 18 18" fill="none" xmlns="http://www.w3.org/2000/svg">
<path fill-rule="evenodd" clip-rule="evenodd" d="M4.97607 4.40245C4.94743 4.37374 4.91342 4.35097 4.87597 4.33543C4.83852 4.31988 4.79837 4.31188 4.75782 4.31188C4.71727 4.31188 4.67712 4.31988 4.63967 4.33543C4.60222 4.35097 4.5682 4.37374 4.53957 4.40245L3.49632 5.44645C3.16012 5.78254 2.93453 6.21324 2.84969 6.68098C2.76486 7.14872 2.82482 7.63121 3.02157 8.06395C4.41488 11.1289 6.87148 13.5852 9.93657 14.9782C10.3693 15.175 10.8518 15.2349 11.3195 15.1501C11.7873 15.0652 12.218 14.8396 12.5541 14.5035L13.5966 13.4602C13.7173 13.3402 13.7173 13.1445 13.5966 13.0237L12.1941 11.6205C12.1482 11.5744 12.089 11.5441 12.0249 11.5337C11.9608 11.5234 11.8951 11.5335 11.8371 11.5627L11.0586 11.9527C10.626 12.1689 10.1364 12.2435 9.65909 12.166C9.18177 12.0884 8.74095 11.8627 8.39907 11.5207L6.47907 9.6007C6.1372 9.25873 5.91159 8.81787 5.83419 8.34056C5.75679 7.86325 5.83153 7.37368 6.04782 6.9412L6.43707 6.16195C6.46593 6.10412 6.47588 6.03869 6.46551 5.97489C6.45515 5.9111 6.425 5.85218 6.37932 5.80645L4.97607 4.40245ZM3.74382 3.60745C3.87691 3.47431 4.03494 3.3687 4.20886 3.29664C4.38278 3.22459 4.56919 3.1875 4.75744 3.1875C4.9457 3.1875 5.13211 3.22459 5.30603 3.29664C5.47995 3.3687 5.63797 3.47431 5.77107 3.60745L7.17507 5.00995C7.61082 5.44645 7.71957 6.11245 7.44357 6.66445L7.05357 7.4437C6.94288 7.66511 6.90469 7.91573 6.9444 8.16005C6.98411 8.40437 7.09971 8.63 7.27482 8.80495L9.19482 10.725C9.55332 11.0835 10.1016 11.172 10.5553 10.9455L11.3346 10.5555C11.6036 10.4209 11.9082 10.3744 12.2052 10.4226C12.5021 10.4708 12.7764 10.6112 12.9891 10.824L14.3923 12.228C14.5255 12.361 14.6311 12.5191 14.7031 12.693C14.7752 12.8669 14.8123 13.0533 14.8123 13.2416C14.8123 13.4298 14.7752 13.6162 14.7031 13.7902C14.6311 13.9641 14.5255 14.1221 14.3923 14.2552L13.3498 15.2977C12.8518 15.7959 12.2135 16.1303 11.5203 16.256C10.8271 16.3817 10.1121 16.2928 9.47082 16.0012C6.15836 14.4955 3.50356 11.8407 1.99782 8.5282C1.70636 7.88724 1.61741 7.1726 1.74285 6.47975C1.86828 5.78689 2.20214 5.1488 2.69982 4.6507L3.74382 3.60745Z" fill="#33363F"/>
<path fill-rule="evenodd" clip-rule="evenodd" d="M9.1875 4.5C9.1875 4.35082 9.24676 4.20774 9.35225 4.10225C9.45774 3.99676 9.60082 3.9375 9.75 3.9375C10.6948 3.9375 11.601 4.31283 12.2691 4.98093C12.9372 5.64903 13.3125 6.55517 13.3125 7.5C13.3125 7.64918 13.2532 7.79226 13.1477 7.89775C13.0423 8.00324 12.8992 8.0625 12.75 8.0625C12.6008 8.0625 12.4577 8.00324 12.3523 7.89775C12.2468 7.79226 12.1875 7.64918 12.1875 7.5C12.1875 6.85353 11.9307 6.23355 11.4736 5.77643C11.0165 5.31931 10.3965 5.0625 9.75 5.0625C9.60082 5.0625 9.45774 5.00324 9.35225 4.89775C9.24676 4.79226 9.1875 4.64918 9.1875 4.5Z" fill="#3784A6"/>
<path fill-rule="evenodd" clip-rule="evenodd" d="M9.9375 2.25C9.9375 2.10082 9.99676 1.95774 10.1023 1.85225C10.2077 1.74676 10.3508 1.6875 10.5 1.6875C11.8427 1.6875 13.1303 2.22087 14.0797 3.17027C15.0291 4.11967 15.5625 5.40734 15.5625 6.75C15.5625 6.89918 15.5032 7.04226 15.3977 7.14775C15.2923 7.25324 15.1492 7.3125 15 7.3125C14.8508 7.3125 14.7077 7.25324 14.6023 7.14775C14.4968 7.04226 14.4375 6.89918 14.4375 6.75C14.4375 4.575 12.675 2.8125 10.5 2.8125C10.3508 2.8125 10.2077 2.75324 10.1023 2.64775C9.99676 2.54226 9.9375 2.39918 9.9375 2.25Z" fill="#3784A6"/>
</svg>
