<svg width="19" height="17" viewBox="0 0 19 17" fill="none" xmlns="http://www.w3.org/2000/svg">
<path d="M17.757 3.34335L14.5985 0.552336C14.1863 0.210178 13.6461 0.0138527 13.0807 0.000705655C12.5153 -0.0124414 11.9642 0.158507 11.5322 0.481033L1.15758 9.64859C0.784977 9.98062 0.552976 10.4158 0.500521 10.8811L0.00484489 15.1287C-0.0106837 15.2779 0.0112245 15.4283 0.0690076 15.5692C0.126791 15.71 0.219026 15.8379 0.339138 15.9436C0.44685 16.038 0.574592 16.1127 0.715038 16.1634C0.855485 16.2141 1.00587 16.2398 1.15758 16.239H1.26133L6.06824 15.852C6.5948 15.8056 7.0873 15.6006 7.46305 15.2714L17.8377 6.1038C18.2403 5.7279 18.458 5.22627 18.4428 4.70884C18.4277 4.19141 18.1811 3.70038 17.757 3.34335ZM5.86074 13.8147L2.40254 14.0999L2.71377 11.0441L9.22674 5.36021L12.3391 8.11048L5.86074 13.8147ZM13.8377 6.74553L10.7483 4.01563L12.9962 1.9784L16.1432 4.75922L13.8377 6.74553Z" fill="#FFA928"/>
</svg>
