<svg width="25" height="13" viewBox="0 0 25 13" fill="none" xmlns="http://www.w3.org/2000/svg">
<path d="M12.204 0.424316C7.236 0.424316 2.592 2.76669 0 6.56037C2.592 10.354 7.236 12.6964 12.204 12.6964C17.172 12.6964 21.816 10.354 24.408 6.56037C21.816 2.76669 17.172 0.424316 12.204 0.424316ZM12.204 11.0957C9.393 11.0957 7.104 9.06014 7.104 6.56037C7.104 4.06059 9.393 2.02503 12.204 2.02503C15.015 2.02503 17.304 4.06059 17.304 6.56037C17.304 9.06014 15.015 11.0957 12.204 11.0957ZM12.204 3.09217C10.053 3.09217 8.304 4.64752 8.304 6.56037C8.304 8.47322 10.053 10.0286 12.204 10.0286C14.355 10.0286 16.104 8.47322 16.104 6.56037C16.104 4.64752 14.355 3.09217 12.204 3.09217ZM12.204 5.22644C11.844 5.22644 11.52 5.34383 11.259 5.53325L11.049 5.72C10.836 5.9521 10.704 6.24023 10.704 6.56037C10.704 6.85383 10.434 7.09394 10.104 7.09394C9.774 7.09394 9.504 6.85383 9.504 6.56037C9.504 5.23712 10.716 4.1593 12.204 4.1593C12.534 4.1593 12.804 4.39941 12.804 4.69287C12.804 4.98634 12.534 5.22644 12.204 5.22644Z" fill="#3784A6"/>
</svg>
