<svg width="30" height="29" viewBox="0 0 30 29" fill="none" xmlns="http://www.w3.org/2000/svg">
<path d="M16.4645 3.55263H11.25C8.89298 3.55263 7.71447 3.55263 6.98223 4.24632C6.25 4.94002 6.25 6.0565 6.25 8.28947V20.1316C6.25 22.3645 6.25 23.481 6.98223 24.1747C7.71447 24.8684 8.89298 24.8684 11.25 24.8684H18.75C21.107 24.8684 22.2855 24.8684 23.0178 24.1747C23.75 23.481 23.75 22.3645 23.75 20.1316V10.4547C23.75 9.97067 23.75 9.72864 23.6548 9.51102C23.5597 9.2934 23.3791 9.12226 23.0178 8.77999L18.2322 4.24632C17.8709 3.90405 17.6903 3.73291 17.4606 3.64277C17.2309 3.55263 16.9754 3.55263 16.4645 3.55263Z" stroke="#33363F" stroke-width="3"/>
<path d="M11.25 15.3947L18.75 15.3947" stroke="#33363F" stroke-width="2" stroke-linecap="round"/>
<path d="M11.25 20.1316L16.25 20.1316" stroke="#33363F" stroke-width="2" stroke-linecap="round"/>
<path d="M16.25 3.55263V8.28947C16.25 9.40595 16.25 9.9642 16.6161 10.311C16.9822 10.6579 17.5715 10.6579 18.75 10.6579H23.75" stroke="#33363F" stroke-width="3"/>
</svg>
