<svg width="48" height="48" viewBox="0 0 48 48" fill="none" xmlns="http://www.w3.org/2000/svg">
<circle cx="24" cy="24" r="24" fill="#294481"/>
<path d="M35.2069 16.8671L31.5536 13.6389C31.0768 13.2431 30.452 13.016 29.798 13.0008C29.1441 12.9856 28.5066 13.1833 28.0069 13.5564L16.0069 24.1602C15.5759 24.5443 15.3076 25.0476 15.2469 25.5858L14.6736 30.4989C14.6556 30.6715 14.681 30.8455 14.7478 31.0084C14.8146 31.1713 14.9213 31.3192 15.0602 31.4415C15.1848 31.5507 15.3326 31.6371 15.495 31.6957C15.6575 31.7544 15.8314 31.7841 16.0069 31.7832H16.1269L21.6869 31.3355C22.296 31.2819 22.8656 31.0447 23.3002 30.6639L35.3002 20.0601C35.766 19.6253 36.0177 19.0451 36.0002 18.4466C35.9827 17.8481 35.6974 17.2801 35.2069 16.8671ZM21.4469 28.9791L17.4469 29.309L17.8069 25.7743L25.3402 19.2L28.9402 22.3811L21.4469 28.9791ZM30.6736 20.8023L27.1002 17.6448L29.7002 15.2884L33.3402 18.5048L30.6736 20.8023Z" fill="white"/>
</svg>
