<svg width="36" height="36" viewBox="0 0 36 36" fill="none" xmlns="http://www.w3.org/2000/svg">
<path d="M15.7324 9.19339L10.8717 1.09266C10.6718 0.759419 10.3891 0.483624 10.051 0.292138C9.71285 0.100652 9.33089 4.7709e-06 8.94232 0H1.12706C0.216512 0 -0.316458 1.02446 0.205262 1.77047L8.02896 12.9474C10.1186 10.9948 12.7765 9.65464 15.7324 9.19339ZM34.8729 0H27.0577C26.2674 0 25.5347 0.414845 25.1283 1.09266L20.2676 9.19339C23.2235 9.65464 25.8814 10.9948 27.971 12.9467L35.7947 1.77047C36.3165 1.02446 35.7835 0 34.8729 0ZM18 11.25C11.1656 11.25 5.62497 16.7907 5.62497 23.6251C5.62497 30.4595 11.1656 36.0001 18 36.0001C24.8344 36.0001 30.375 30.4595 30.375 23.6251C30.375 16.7907 24.8344 11.25 18 11.25ZM24.5053 22.3074L21.8384 24.9062L22.4691 28.5779C22.5816 29.236 21.8883 29.7388 21.2984 29.428L18 27.6948L14.7023 29.428C14.1117 29.7409 13.4191 29.2353 13.5316 28.5779L14.1623 24.9062L11.4954 22.3074C11.0158 21.8405 11.2809 21.0256 11.9419 20.93L15.6284 20.3928L17.2758 17.0515C17.4241 16.7506 17.711 16.6022 17.9986 16.6022C18.2876 16.6022 18.5766 16.7527 18.7249 17.0515L20.3724 20.3928L24.0588 20.93C24.7198 21.0256 24.9849 21.8405 24.5053 22.3074Z" fill="#294481"/>
</svg>
