<svg width="20" height="20" viewBox="0 0 20 20" fill="none" xmlns="http://www.w3.org/2000/svg">
<path d="M13.8227 11.0794C12.8871 12.4909 11.8732 13.849 10.7857 15.1471C10.6664 15.2845 10.513 15.3879 10.341 15.447V19.8905L14.5225 18.3979L13.8227 11.0794ZM9.20686 15.1437C8.11816 13.8477 7.10418 12.4907 6.16985 11.0794L5.48041 18.3979L9.65156 19.8905V15.447C9.47861 15.388 9.32492 15.2832 9.20686 15.1437ZM15.2154 18.4324L19.5313 19.9733C19.5889 19.9955 19.6515 20.0018 19.7124 19.9916C19.7733 19.9813 19.8303 19.9549 19.8775 19.9151C19.9247 19.8753 19.9604 19.8236 19.9807 19.7653C20.0011 19.707 20.0054 19.6443 19.9933 19.5837L18.6144 12.3445C18.6033 12.2888 18.5786 12.2366 18.5425 12.1927C18.5065 12.1488 18.4601 12.1145 18.4075 12.0929L14.457 10.4486L15.2154 18.4324ZM0.461238 19.9733L4.77717 18.4324L5.53556 10.4486L1.59193 12.0929C1.53938 12.1145 1.493 12.1488 1.45691 12.1927C1.42083 12.2366 1.39616 12.2888 1.3851 12.3445L0.00620316 19.5837C-0.00528627 19.6435 -0.000760058 19.7052 0.0193222 19.7626C0.0394044 19.82 0.0743273 19.8711 0.120544 19.9107C0.16676 19.9503 0.222624 19.9769 0.282462 19.9879C0.3423 19.9989 0.40398 19.9938 0.461238 19.9733ZM10.2583 14.7024C10.4754 14.4473 15.5119 8.46295 15.5119 5.51557C15.5119 4.05275 14.9307 2.64984 13.8964 1.61547C12.862 0.581103 11.4591 0 9.99628 0C8.53346 0 7.13055 0.581103 6.09618 1.61547C5.06181 2.64984 4.48071 4.05275 4.48071 5.51557C4.48071 8.46295 9.51712 14.4473 9.73429 14.7024C9.76665 14.7403 9.80683 14.7707 9.85206 14.7915C9.89728 14.8123 9.94649 14.8231 9.99628 14.8231C10.0461 14.8231 10.0953 14.8123 10.1405 14.7915C10.1857 14.7707 10.2259 14.7403 10.2583 14.7024ZM7.58322 5.51557C7.58322 5.03831 7.72474 4.57177 7.98989 4.17495C8.25504 3.77812 8.63191 3.46883 9.07284 3.28619C9.51377 3.10355 9.99896 3.05577 10.467 3.14888C10.9351 3.24198 11.3651 3.47181 11.7026 3.80928C12.04 4.14675 12.2699 4.57672 12.363 5.04481C12.4561 5.51289 12.4083 5.99808 12.2257 6.43901C12.043 6.87994 11.7337 7.25681 11.3369 7.52196C10.9401 7.78711 10.4735 7.92863 9.99628 7.92863C9.3563 7.92863 8.74253 7.6744 8.28999 7.22186C7.83745 6.76933 7.58322 6.15556 7.58322 5.51557Z" fill="#0A93E2"/>
</svg>
