<svg width="40" height="40" viewBox="0 0 40 40" fill="none" xmlns="http://www.w3.org/2000/svg">
<path d="M23.2766 3.75H7.5V36.25H32.5V12.9734L23.2766 3.75Z" fill="#231F20"/>
<path d="M30.625 34.375H9.375V5.625H22.5L30.625 13.75V34.375Z" fill="#ED1B2E"/>
<path d="M22.5 13.75V5.625L30.625 13.75H22.5Z" fill="#E6E7E8"/>
<path d="M22.5 13.75L30.625 21.875V13.75H22.5Z" fill="#C61825"/>
<path fill-rule="evenodd" clip-rule="evenodd" d="M14.8357 25.5809C13.0766 26.8468 11.8663 28.645 12.3438 28.9258L11.9265 28.7234C11.6851 28.439 12.2337 26.9142 14.8357 25.5809ZM28.05 24.1616C28.9509 22.3142 21.54 22.5914 16.125 25.0136C20.3398 23.4488 28.1401 22.775 28.05 24.1616Z" fill="#D42027"/>
<path fill-rule="evenodd" clip-rule="evenodd" d="M19.6657 14.3213C19.8681 13.2949 19.3476 13.3312 19.2017 13.3312L18.8731 13.3286C18.6918 13.3286 18.5291 13.4688 18.45 13.7537C17.9364 15.6006 18.8685 20.289 21.4835 22.4578C23.7926 24.3727 27.8127 25.2488 27.9745 24.3231C27.139 24.7097 24.001 23.7368 21.8912 22.1178C19.3982 20.1455 18.3321 15.2814 18.869 13.7604C18.9224 13.6088 19.0522 13.4317 19.1098 13.392C19.3339 13.4999 19.6047 13.7653 19.6657 14.3213Z" fill="#D42027"/>
<path fill-rule="evenodd" clip-rule="evenodd" d="M19.6221 14.6177C19.3926 15.7067 19.293 18.2797 17.1133 22.5093C14.7722 27.0521 13.0633 29.1705 11.9258 28.7235L12.3324 28.9244C13.2235 29.363 14.8639 27.9205 17.5863 22.8665C19.683 18.9741 19.5696 16.9706 19.6221 14.6177Z" fill="#D42027"/>
<path fill-rule="evenodd" clip-rule="evenodd" d="M14.8357 25.3631C13.0766 26.629 11.8663 28.4272 12.3438 28.7081L11.9265 28.5056C11.6851 28.2213 12.2337 26.6965 14.8357 25.3631ZM28.05 23.9438C28.9509 22.0964 21.54 22.3736 16.125 24.7959C20.3398 23.231 28.1401 22.5573 28.05 23.9438Z" fill="white"/>
<path fill-rule="evenodd" clip-rule="evenodd" d="M19.6657 14.104C19.8681 13.0777 19.3476 13.1139 19.2017 13.1139L18.8731 13.1113C18.6918 13.1113 18.5291 13.2515 18.45 13.5364C17.9364 15.3834 18.8685 20.0717 21.4835 22.2405C23.7926 24.1554 27.8127 25.0316 27.9745 24.1059C27.139 24.4924 24.001 23.5195 21.8912 21.9005C19.3982 19.9282 18.3321 15.0641 18.869 13.5431C18.9224 13.3916 19.0522 13.2144 19.1098 13.1747C19.3339 13.2827 19.6047 13.548 19.6657 14.104Z" fill="white"/>
<path fill-rule="evenodd" clip-rule="evenodd" d="M19.6221 14.3999C19.3926 15.489 19.293 18.0619 17.1133 22.2915C14.7722 26.8344 13.0633 28.9527 11.9258 28.5057L12.3324 28.7066C13.2235 29.1452 14.8639 27.7027 17.5863 22.6487C19.683 18.7563 19.5696 16.7529 19.6221 14.3999Z" fill="white"/>
</svg>
