<svg width="24" height="24" viewBox="0 0 24 24" fill="none" xmlns="http://www.w3.org/2000/svg">
<path d="M21.8248 1.2V19.575H2.1748V5.175L7.34981 0H20.6623C21.2998 0 21.8248 0.5625 21.8248 1.2Z" fill="#EFF2F3"/>
<path d="M6.26289 5.175H2.21289L7.35039 0L7.31289 4.05C7.35039 4.6875 6.86289 5.175 6.26289 5.175Z" fill="#DADEDE"/>
<path d="M13.9127 10.5001C12.8252 9.45012 12.0377 8.25012 12.0377 8.25012C12.3377 7.80012 13.0502 5.21262 11.9627 4.46262C10.8752 3.71262 10.3127 5.10012 10.3127 5.10012C9.82519 6.82512 10.9877 8.40012 10.9877 8.40012L9.67519 11.2876C9.52519 11.2876 5.3627 12.9001 6.7877 14.8876C8.2502 16.8751 10.2752 12.0751 10.2752 12.0751C11.0627 11.8126 13.4627 11.4751 13.4627 11.4751C14.4002 12.7501 15.5252 13.1626 15.5252 13.1626C17.2502 13.6126 17.4377 12.1876 17.4377 12.1876C17.4752 10.3126 13.9127 10.5001 13.9127 10.5001ZM7.5002 14.2126C7.4627 14.2126 7.4627 14.1751 7.4627 14.1751C7.2377 13.6501 8.9627 12.6376 8.9627 12.6376C8.9627 12.6376 8.0252 14.4376 7.5002 14.2126ZM11.4002 5.13762C11.8877 5.58762 11.4752 7.12512 11.4752 7.12512C11.4752 7.12512 10.9127 5.58762 11.4002 5.13762ZM10.9502 10.9501L11.6252 9.30012L12.6752 10.5751L10.9502 10.9501ZM16.5002 12.1501C16.2002 12.6376 14.9627 11.5876 14.8502 11.4751C15.0377 11.4751 16.6502 11.5876 16.5002 12.1501ZM21.8252 18.3751V22.8001C21.8252 23.4376 21.3002 24.0001 20.6252 24.0001H3.3377C2.7002 24.0001 2.1377 23.4751 2.1377 22.8001V18.3751H21.8252Z" fill="#F2786B"/>
<path d="M10.4627 20.3249C10.4627 20.6249 10.3502 20.8499 10.1627 21.0374C9.9752 21.1874 9.67519 21.2624 9.30019 21.2624H9.0002V22.3499H8.5127V19.4624H9.3752C9.7502 19.4624 10.0127 19.5374 10.2002 19.6874C10.3877 19.8374 10.4627 20.0249 10.4627 20.3249ZM9.0377 20.8874H9.30019C9.52519 20.8874 9.7127 20.8499 9.8252 20.7749C9.9377 20.6999 10.0127 20.5499 10.0127 20.3624C10.0127 20.2124 9.97519 20.0624 9.86269 19.9874C9.75019 19.9124 9.6002 19.8749 9.3752 19.8749H9.0377V20.8874ZM13.4252 20.8874C13.4252 21.3749 13.2752 21.7499 13.0127 21.9749C12.7502 22.2374 12.3752 22.3499 11.8502 22.3499H11.0252V19.4624H11.9252C12.3752 19.4624 12.7502 19.5749 13.0127 19.8374C13.2752 20.0624 13.4252 20.4374 13.4252 20.8874ZM12.9002 20.8874C12.9002 20.1749 12.5627 19.8374 11.9252 19.8374H11.5127V21.9374H11.8502C12.5627 21.9749 12.9002 21.5999 12.9002 20.8874ZM14.5127 22.3499H14.0252V19.4624H15.6752V19.8749H14.5127V20.7749H15.6002V21.1874H14.5127V22.3499Z" fill="#EFF2F3"/>
</svg>
