<svg width="15" height="16" viewBox="0 0 15 16" fill="none" xmlns="http://www.w3.org/2000/svg">
<path d="M15.4003 3.34001L12.6603 0.60001C12.3027 0.264106 11.8341 0.0713693 11.3436 0.0584625C10.8532 0.0455557 10.3751 0.21338 10.0003 0.530011L1.0003 9.53001C0.677062 9.85598 0.475801 10.2832 0.430297 10.74L0.000296701 14.91C-0.0131743 15.0565 0.00583103 15.2041 0.0559579 15.3424C0.106085 15.4807 0.186099 15.6062 0.290297 15.71C0.383737 15.8027 0.494553 15.876 0.61639 15.9258C0.738228 15.9755 0.86869 16.0008 1.0003 16H1.0903L5.2603 15.62C5.71709 15.5745 6.14433 15.3732 6.4703 15.05L15.4703 6.05001C15.8196 5.68098 16.0084 5.18852 15.9953 4.68055C15.9822 4.17257 15.7682 3.69052 15.4003 3.34001ZM5.0803 13.62L2.0803 13.9L2.3503 10.9L8.0003 5.32001L10.7003 8.02001L5.0803 13.62ZM12.0003 6.68001L9.3203 4.00001L11.2703 2.00001L14.0003 4.73001L12.0003 6.68001Z" fill="white"/>
</svg>
