<svg width="30" height="30" viewBox="0 0 30 30" fill="none" xmlns="http://www.w3.org/2000/svg">
<path fill-rule="evenodd" clip-rule="evenodd" d="M30 15C30 23.2843 23.2843 30 15 30C6.71573 30 0 23.2843 0 15C0 6.71573 6.71573 0 15 0C23.2843 0 30 6.71573 30 15ZM7.62623 22.3738C7.2357 21.9832 7.2357 21.3501 7.62623 20.9596L13.5858 15L7.62623 9.04044C7.2357 8.64991 7.2357 8.01675 7.62623 7.62623C8.01675 7.2357 8.64991 7.2357 9.04044 7.62623L15 13.5858L20.9596 7.62623C21.3501 7.2357 21.9832 7.2357 22.3738 7.62623C22.7643 8.01675 22.7643 8.64991 22.3738 9.04044L16.4142 15L22.3738 20.9596C22.7643 21.3501 22.7643 21.9832 22.3738 22.3738C21.9832 22.7643 21.3501 22.7643 20.9596 22.3738L15 16.4142L9.04044 22.3738C8.64992 22.7643 8.01675 22.7643 7.62623 22.3738Z" fill="#F2F2F2"/>
</svg>
