<svg width="124" height="81" viewBox="0 0 124 81" fill="none" xmlns="http://www.w3.org/2000/svg">
<path d="M100.963 34.2375C100.963 33.9062 101.018 33.575 101.018 33.2438C101.018 15.301 86.8091 0.78125 69.281 0.78125C56.6355 0.78125 45.773 8.34479 40.6709 19.276C38.4491 18.1443 35.9529 17.4818 33.3196 17.4818C25.2275 17.4818 18.4796 23.5271 17.1904 31.4219C7.47997 34.7896 0.540039 44.1474 0.540039 55.1615C0.540039 69.0188 11.5397 80.2812 25.0904 80.2812H53.2067V58.1979H39.9852L61.9845 35.0932L83.9838 58.1703H70.7623V80.2536H101.018C113.417 80.2536 123.429 69.9021 123.429 57.2318C123.429 44.5615 113.362 34.2651 100.963 34.2375Z" fill="black"/>
</svg>
