<svg width="422" height="114" viewBox="0 0 422 114" fill="none" xmlns="http://www.w3.org/2000/svg">
<g filter="url(#filter0_d_122_299)">
<g filter="url(#filter1_d_122_299)">
<rect x="20" y="16" width="382" height="58" rx="10" fill="#F2F2F2"/>
</g>
<path d="M108.766 49.0273C109.617 50.1133 110.875 50.6562 112.539 50.6562C114.203 50.6562 115.457 50.1172 116.301 49.0391C117.152 47.9531 117.578 46.4219 117.578 44.4453C117.578 42.4453 117.152 40.8945 116.301 39.793C115.457 38.6914 114.207 38.1406 112.551 38.1406C110.887 38.1406 109.625 38.6953 108.766 39.8047C107.914 40.9062 107.488 42.4531 107.488 44.4453C107.488 46.4141 107.914 47.9414 108.766 49.0273ZM112.527 53.2461C109.941 53.2461 107.898 52.4648 106.398 50.9023C104.906 49.332 104.16 47.168 104.16 44.4102C104.16 41.6367 104.91 39.4727 106.41 37.918C107.91 36.3633 109.953 35.5859 112.539 35.5859C115.125 35.5859 117.164 36.3672 118.656 37.9297C120.148 39.4844 120.895 41.6484 120.895 44.4219C120.895 47.1641 120.145 49.3203 118.645 50.8906C117.145 52.4609 115.105 53.2461 112.527 53.2461ZM123.613 53V40.1211H126.086L126.426 41.75C127.738 40.4531 129.195 39.8047 130.797 39.8047C132.297 39.8047 133.418 40.2383 134.16 41.1055C134.91 41.9648 135.285 43.2148 135.285 44.8555V53H132.203V45.2305C132.195 44.1914 132.027 43.4141 131.699 42.8984C131.371 42.3828 130.781 42.125 129.93 42.125C129.266 42.125 128.656 42.2969 128.102 42.6406C127.555 42.9766 127.156 43.4023 126.906 43.918C126.758 44.5273 126.684 45.4648 126.684 46.7305V53H123.613ZM142.82 53.1758C141.938 53.1758 141.203 53.0742 140.617 52.8711C140.039 52.6602 139.582 52.3281 139.246 51.875C138.91 51.4219 138.676 50.8828 138.543 50.2578C138.41 49.6328 138.344 48.8555 138.344 47.9258V35.375L141.414 35.1758V47.8672C141.414 49.0234 141.551 49.8086 141.824 50.2227C142.098 50.6289 142.629 50.832 143.418 50.832C143.809 50.832 144.305 50.7891 144.906 50.7031L144.988 52.8945C144.98 52.8945 144.883 52.9141 144.695 52.9531C144.516 52.9922 144.34 53.0234 144.168 53.0469C144.004 53.0781 143.793 53.1055 143.535 53.1289C143.277 53.1602 143.039 53.1758 142.82 53.1758ZM146.582 53V40.1211H149.652V53H146.582ZM146.582 38.2461V35.6211H149.664V38.2461H146.582ZM152.863 53V40.1211H155.336L155.676 41.75C156.988 40.4531 158.445 39.8047 160.047 39.8047C161.547 39.8047 162.668 40.2383 163.41 41.1055C164.16 41.9648 164.535 43.2148 164.535 44.8555V53H161.453V45.2305C161.445 44.1914 161.277 43.4141 160.949 42.8984C160.621 42.3828 160.031 42.125 159.18 42.125C158.516 42.125 157.906 42.2969 157.352 42.6406C156.805 42.9766 156.406 43.4023 156.156 43.918C156.008 44.5273 155.934 45.4648 155.934 46.7305V53H152.863ZM173.512 53.2461C171.441 53.2461 169.828 52.6523 168.672 51.4648C167.523 50.2695 166.949 48.6211 166.949 46.5195C166.949 44.4727 167.492 42.8438 168.578 41.6328C169.664 40.4219 171.145 39.8125 173.02 39.8047C174.793 39.8047 176.168 40.3594 177.145 41.4688C178.129 42.5781 178.621 44.0508 178.621 45.8867C178.621 46.0195 178.617 46.2344 178.609 46.5312C178.609 46.8281 178.609 47.0469 178.609 47.1875H170.043C170.074 48.3906 170.402 49.3242 171.027 49.9883C171.66 50.6445 172.527 50.9727 173.629 50.9727C175.035 50.9727 176.387 50.6055 177.684 49.8711L178.117 52.0508C176.828 52.8477 175.293 53.2461 173.512 53.2461ZM170.102 45.2539H175.727C175.727 44.207 175.488 43.4023 175.012 42.8398C174.535 42.2773 173.875 41.9961 173.031 41.9961C172.242 41.9961 171.574 42.2695 171.027 42.8164C170.488 43.3633 170.18 44.1758 170.102 45.2539ZM192.098 53L185.852 35.832H189.121L192.754 46.4375C192.895 46.8047 193.219 47.8789 193.727 49.6602C193.758 49.5352 193.902 49.0234 194.16 48.125C194.418 47.2188 194.586 46.6641 194.664 46.4609C194.758 46.1953 195.352 44.4336 196.445 41.1758C197.539 37.9102 198.137 36.1289 198.238 35.832H201.473L195.309 53H192.098ZM203.043 53V40.1211H206.113V53H203.043ZM203.043 38.2461V35.6211H206.125V38.2461H203.043ZM214.117 53.2461C212.438 53.2461 211.117 52.6289 210.156 51.3945C209.195 50.1602 208.715 48.5117 208.715 46.4492C208.715 44.4492 209.191 42.8438 210.145 41.6328C211.105 40.4141 212.426 39.8047 214.105 39.8047C215.934 39.8047 217.227 40.4531 217.984 41.75C217.906 40.9844 217.867 40.2461 217.867 39.5352V35.375L220.938 35.1758V53H218.277L217.938 51.2422C217.805 51.4531 217.68 51.6367 217.562 51.793C217.453 51.9414 217.289 52.1172 217.07 52.3203C216.852 52.5156 216.613 52.6758 216.355 52.8008C216.105 52.918 215.785 53.0195 215.395 53.1055C215.012 53.1992 214.586 53.2461 214.117 53.2461ZM214.844 50.9141C216.906 50.9141 217.953 49.5117 217.984 46.707C217.984 45.1211 217.719 43.9648 217.188 43.2383C216.656 42.5117 215.863 42.1484 214.809 42.1484C213.887 42.1484 213.148 42.5195 212.594 43.2617C212.047 43.9961 211.773 45.082 211.773 46.5195C211.773 47.9492 212.047 49.0391 212.594 49.7891C213.148 50.5391 213.898 50.9141 214.844 50.9141ZM230.02 53.2461C227.949 53.2461 226.336 52.6523 225.18 51.4648C224.031 50.2695 223.457 48.6211 223.457 46.5195C223.457 44.4727 224 42.8438 225.086 41.6328C226.172 40.4219 227.652 39.8125 229.527 39.8047C231.301 39.8047 232.676 40.3594 233.652 41.4688C234.637 42.5781 235.129 44.0508 235.129 45.8867C235.129 46.0195 235.125 46.2344 235.117 46.5312C235.117 46.8281 235.117 47.0469 235.117 47.1875H226.551C226.582 48.3906 226.91 49.3242 227.535 49.9883C228.168 50.6445 229.035 50.9727 230.137 50.9727C231.543 50.9727 232.895 50.6055 234.191 49.8711L234.625 52.0508C233.336 52.8477 231.801 53.2461 230.02 53.2461ZM226.609 45.2539H232.234C232.234 44.207 231.996 43.4023 231.52 42.8398C231.043 42.2773 230.383 41.9961 229.539 41.9961C228.75 41.9961 228.082 42.2695 227.535 42.8164C226.996 43.3633 226.688 44.1758 226.609 45.2539ZM243.25 50.9141C244.289 50.9141 245.07 50.5352 245.594 49.7773C246.117 49.0195 246.379 47.9336 246.379 46.5195C246.379 45.0898 246.117 44 245.594 43.25C245.07 42.5 244.281 42.125 243.227 42.125C242.188 42.125 241.402 42.5039 240.871 43.2617C240.348 44.0117 240.086 45.1016 240.086 46.5312C240.086 47.9375 240.352 49.0195 240.883 49.7773C241.414 50.5352 242.203 50.9141 243.25 50.9141ZM243.168 53.2461C241.262 53.2461 239.762 52.6289 238.668 51.3945C237.574 50.1602 237.027 48.5352 237.027 46.5195C237.027 44.4414 237.574 42.8047 238.668 41.6094C239.762 40.4062 241.305 39.8047 243.297 39.8047C245.219 39.8047 246.723 40.418 247.809 41.6445C248.902 42.8633 249.449 44.4883 249.449 46.5195C249.449 48.5742 248.898 50.2109 247.797 51.4297C246.695 52.6406 245.152 53.2461 243.168 53.2461ZM266.09 53.2461C263.582 53.2461 261.594 52.457 260.125 50.8789C258.656 49.3008 257.922 47.1211 257.922 44.3398C257.922 41.6992 258.688 39.582 260.219 37.9883C261.758 36.3867 263.77 35.5859 266.254 35.5859C268.262 35.5859 269.961 36.0508 271.352 36.9805L270.355 39.3828C269.02 38.5625 267.676 38.1523 266.324 38.1523C264.746 38.1523 263.496 38.7227 262.574 39.8633C261.66 40.9961 261.203 42.5195 261.203 44.4336C261.203 46.418 261.645 47.9531 262.527 49.0391C263.418 50.125 264.684 50.668 266.324 50.668C267.762 50.668 269.188 50.3086 270.602 49.5898L271.023 52.0742C269.711 52.8555 268.066 53.2461 266.09 53.2461ZM276.965 53.2461C275.77 53.2461 274.801 52.918 274.059 52.2617C273.324 51.5977 272.957 50.6445 272.957 49.4023C272.957 48.0664 273.395 47.0781 274.27 46.4375C275.145 45.7891 276.465 45.3789 278.23 45.207C278.473 45.1758 278.734 45.1445 279.016 45.1133C279.297 45.082 279.613 45.0508 279.965 45.0195C280.316 44.9883 280.594 44.9609 280.797 44.9375V44.2578C280.797 43.4766 280.617 42.9102 280.258 42.5586C279.898 42.1992 279.352 42.0195 278.617 42.0195C277.57 42.0195 276.277 42.3125 274.738 42.8984C274.73 42.875 274.602 42.5195 274.352 41.832C274.102 41.1445 273.973 40.793 273.965 40.7773C275.48 40.1289 277.121 39.8047 278.887 39.8047C280.621 39.8047 281.883 40.1836 282.672 40.9414C283.461 41.6914 283.855 42.9102 283.855 44.5977V53H281.582C281.574 52.9688 281.488 52.707 281.324 52.2148C281.16 51.7227 281.078 51.4609 281.078 51.4297C280.438 52.0547 279.809 52.5156 279.191 52.8125C278.582 53.1016 277.84 53.2461 276.965 53.2461ZM277.797 51.0664C278.508 51.0664 279.125 50.8984 279.648 50.5625C280.18 50.2188 280.559 49.8047 280.785 49.3203V46.8359C280.762 46.8359 280.555 46.8516 280.164 46.8828C279.781 46.9141 279.574 46.9297 279.543 46.9297C278.301 47.0391 277.391 47.2734 276.812 47.6328C276.234 47.9922 275.945 48.5703 275.945 49.3672C275.945 49.9141 276.105 50.3359 276.426 50.6328C276.746 50.9219 277.203 51.0664 277.797 51.0664ZM291.461 53.1758C290.578 53.1758 289.844 53.0742 289.258 52.8711C288.68 52.6602 288.223 52.3281 287.887 51.875C287.551 51.4219 287.316 50.8828 287.184 50.2578C287.051 49.6328 286.984 48.8555 286.984 47.9258V35.375L290.055 35.1758V47.8672C290.055 49.0234 290.191 49.8086 290.465 50.2227C290.738 50.6289 291.27 50.832 292.059 50.832C292.449 50.832 292.945 50.7891 293.547 50.7031L293.629 52.8945C293.621 52.8945 293.523 52.9141 293.336 52.9531C293.156 52.9922 292.98 53.0234 292.809 53.0469C292.645 53.0781 292.434 53.1055 292.176 53.1289C291.918 53.1602 291.68 53.1758 291.461 53.1758ZM299.664 53.1758C298.781 53.1758 298.047 53.0742 297.461 52.8711C296.883 52.6602 296.426 52.3281 296.09 51.875C295.754 51.4219 295.52 50.8828 295.387 50.2578C295.254 49.6328 295.188 48.8555 295.188 47.9258V35.375L298.258 35.1758V47.8672C298.258 49.0234 298.395 49.8086 298.668 50.2227C298.941 50.6289 299.473 50.832 300.262 50.832C300.652 50.832 301.148 50.7891 301.75 50.7031L301.832 52.8945C301.824 52.8945 301.727 52.9141 301.539 52.9531C301.359 52.9922 301.184 53.0234 301.012 53.0469C300.848 53.0781 300.637 53.1055 300.379 53.1289C300.121 53.1602 299.883 53.1758 299.664 53.1758Z" fill="#3784A6"/>
<path fill-rule="evenodd" clip-rule="evenodd" d="M66 60.5C73.4558 60.5 79.5 54.4558 79.5 47C79.5 39.5442 73.4558 33.5 66 33.5C58.5442 33.5 52.5 39.5442 52.5 47C52.5 54.4558 58.5442 60.5 66 60.5ZM63.2828 40.4904L73.4265 46.1258C74.1123 46.5068 74.1123 47.4932 73.4265 47.8742L63.2828 53.5096C62.4829 53.9539 61.5 53.3756 61.5 52.4606V41.5394C61.5 40.6244 62.4829 40.0461 63.2828 40.4904Z" fill="#294481"/>
</g>
<defs>
<filter id="filter0_d_122_299" x="0" y="0" width="422" height="98" filterUnits="userSpaceOnUse" color-interpolation-filters="sRGB">
<feFlood flood-opacity="0" result="BackgroundImageFix"/>
<feColorMatrix in="SourceAlpha" type="matrix" values="0 0 0 0 0 0 0 0 0 0 0 0 0 0 0 0 0 0 127 0" result="hardAlpha"/>
<feOffset dy="4"/>
<feGaussianBlur stdDeviation="10"/>
<feComposite in2="hardAlpha" operator="out"/>
<feColorMatrix type="matrix" values="0 0 0 0 0 0 0 0 0 0 0 0 0 0 0 0 0 0 0.25 0"/>
<feBlend mode="normal" in2="BackgroundImageFix" result="effect1_dropShadow_122_299"/>
<feBlend mode="normal" in="SourceGraphic" in2="effect1_dropShadow_122_299" result="shape"/>
</filter>
<filter id="filter1_d_122_299" x="0" y="16" width="422" height="98" filterUnits="userSpaceOnUse" color-interpolation-filters="sRGB">
<feFlood flood-opacity="0" result="BackgroundImageFix"/>
<feColorMatrix in="SourceAlpha" type="matrix" values="0 0 0 0 0 0 0 0 0 0 0 0 0 0 0 0 0 0 127 0" result="hardAlpha"/>
<feOffset dy="20"/>
<feGaussianBlur stdDeviation="10"/>
<feComposite in2="hardAlpha" operator="out"/>
<feColorMatrix type="matrix" values="0 0 0 0 0.215686 0 0 0 0 0.517647 0 0 0 0 0.65098 0 0 0 0.16 0"/>
<feBlend mode="normal" in2="BackgroundImageFix" result="effect1_dropShadow_122_299"/>
<feBlend mode="normal" in="SourceGraphic" in2="effect1_dropShadow_122_299" result="shape"/>
</filter>
</defs>
</svg>
