<svg width="20" height="20" viewBox="0 0 20 20" fill="none" xmlns="http://www.w3.org/2000/svg">
<path d="M11.875 3.33334H8.125C5.47335 3.33334 4.14752 3.33334 3.32376 4.17017C2.5 5.00701 2.5 6.35388 2.5 9.04762V10.9524C2.5 13.6461 2.5 14.993 3.32376 15.8298C4.14752 16.6667 5.47335 16.6667 8.125 16.6667H11.875C14.5267 16.6667 15.8525 16.6667 16.6762 15.8298C17.5 14.993 17.5 13.6461 17.5 10.9524V9.04762C17.5 6.35388 17.5 5.00701 16.6762 4.17017C15.8525 3.33334 14.5267 3.33334 11.875 3.33334Z" stroke="#33363F" stroke-width="2"/>
<path d="M5.83203 6.66666H8.33203" stroke="#33363F" stroke-width="2" stroke-linecap="round"/>
<path d="M15.8333 13.3333H14.1667C13.5436 13.3333 13.2321 13.3333 13 13.1994C12.848 13.1116 12.7217 12.9854 12.634 12.8333C12.5 12.6013 12.5 12.2897 12.5 11.6667C12.5 11.0436 12.5 10.732 12.634 10.5C12.7217 10.348 12.848 10.2217 13 10.134C13.2321 10 13.5436 10 14.1667 10H15.8333C16.4564 10 16.7679 10 17 10.134C17.152 10.2217 17.2783 10.348 17.366 10.5C17.5 10.732 17.5 11.0436 17.5 11.6667C17.5 12.2897 17.5 12.6013 17.366 12.8333C17.2783 12.9854 17.152 13.1116 17 13.1994C16.7679 13.3333 16.4564 13.3333 15.8333 13.3333Z" stroke="#33363F" stroke-width="2"/>
</svg>
