<svg width="272" height="254" viewBox="0 0 272 254" fill="none" xmlns="http://www.w3.org/2000/svg">
<g filter="url(#filter0_d_971_1017)">
<rect x="20" y="10" width="232" height="214" rx="10" fill="white"/>
</g>
<circle cx="42.5" cy="43.5" r="7.5" fill="#3784A6"/>
<circle cx="42.5" cy="111.5" r="7.5" fill="#3784A6"/>
<circle cx="42.5" cy="180.5" r="7.5" fill="#3784A6"/>
<path d="M61.8555 41.5703C62.7578 42.0156 63.7246 42.2383 64.7559 42.2383C66.0254 42.2383 66.6602 41.6602 66.6602 40.5039C66.6602 40.1289 66.5586 39.8262 66.3555 39.5957C66.1562 39.3613 65.791 39.1777 65.2598 39.0449L63.5371 38.6113C62.2207 38.2793 61.5625 37.5762 61.5625 36.502C61.5625 35.6777 61.8457 35.0664 62.4121 34.668C62.9785 34.2656 63.7617 34.0645 64.7617 34.0645C65.2852 34.0645 65.7754 34.1211 66.2324 34.2344C66.6895 34.3477 67.0723 34.5 67.3809 34.6914L67.0879 35.5176C66.8262 35.373 66.4785 35.2441 66.0449 35.1309C65.6152 35.0176 65.1797 34.9609 64.7383 34.9609C63.3242 34.9609 62.6172 35.4512 62.6172 36.4316C62.6172 36.7637 62.7246 37.0312 62.9395 37.2344C63.1582 37.4336 63.4844 37.5859 63.918 37.6914L65.5645 38.0898C66.2676 38.2578 66.8008 38.5273 67.1641 38.8984C67.5273 39.2656 67.709 39.7891 67.709 40.4688C67.709 41.3516 67.4375 42.0176 66.8945 42.4668C66.3555 42.9121 65.6211 43.1348 64.6914 43.1348C63.9961 43.1348 63.377 43.0645 62.834 42.9238C62.2949 42.7793 61.8672 42.6094 61.5508 42.4141L61.8555 41.5703ZM72.7363 37.7617C72.4512 37.418 72.0586 37.2461 71.5586 37.2461C71.0586 37.2461 70.6504 37.4238 70.334 37.7793C70.0176 38.1309 69.832 38.6133 69.7773 39.2266H73.1699C73.1699 38.5898 73.0254 38.1016 72.7363 37.7617ZM71.752 43.1348C70.8184 43.1348 70.082 42.8379 69.543 42.2441C69.0078 41.6504 68.7402 40.8379 68.7402 39.8066C68.7402 38.8105 69 38.0039 69.5195 37.3867C70.0391 36.7656 70.7227 36.4492 71.5703 36.4375C72.3672 36.4375 72.998 36.7109 73.4629 37.2578C73.9316 37.8008 74.166 38.5273 74.166 39.4375C74.166 39.4844 74.1641 39.5703 74.1602 39.6953C74.1602 39.8203 74.1602 39.9102 74.1602 39.9648H69.748C69.7598 40.6953 69.9473 41.2656 70.3105 41.6758C70.6777 42.082 71.1699 42.2852 71.7871 42.2852C72.4668 42.2852 73.1484 42.1055 73.832 41.7461L73.9844 42.5371C73.332 42.9355 72.5879 43.1348 71.752 43.1348ZM77.3125 42.3438C77.7773 42.3438 78.1855 42.2168 78.5371 41.9629C78.8926 41.7051 79.1211 41.3594 79.2227 40.9258V39.8418C79.2031 39.8418 79.084 39.8516 78.8652 39.8711C78.6504 39.8906 78.5098 39.9023 78.4434 39.9062C77.5957 39.9805 77.0039 40.1191 76.668 40.3223C76.3359 40.5254 76.1699 40.8516 76.1699 41.3008C76.1699 41.6445 76.2715 41.9043 76.4746 42.0801C76.6777 42.2559 76.957 42.3438 77.3125 42.3438ZM79.4395 43C79.3809 42.75 79.3242 42.4805 79.2695 42.1914C78.9141 42.5469 78.5801 42.793 78.2676 42.9297C77.9551 43.0664 77.5879 43.1348 77.166 43.1348C76.5645 43.1348 76.0801 42.9785 75.7129 42.666C75.3496 42.3496 75.168 41.8965 75.168 41.3066C75.168 40.6504 75.416 40.1641 75.9121 39.8477C76.4121 39.5312 77.1309 39.334 78.0684 39.2559C78.1973 39.2441 78.3906 39.2285 78.6484 39.209C78.9102 39.1855 79.1055 39.168 79.2344 39.1562V38.5879C79.2344 38.1348 79.1289 37.7988 78.918 37.5801C78.707 37.3613 78.375 37.252 77.9219 37.252C77.2891 37.252 76.6504 37.4082 76.0059 37.7207C75.9863 37.6738 75.9355 37.5391 75.8535 37.3164C75.7715 37.0898 75.7285 36.9727 75.7246 36.9648C76.0098 36.8047 76.3477 36.6777 76.7383 36.584C77.1328 36.4863 77.5332 36.4375 77.9395 36.4375C78.7402 36.4375 79.3164 36.6133 79.668 36.9648C80.0234 37.3125 80.2012 37.9062 80.2012 38.7461V43H79.4395ZM84.7715 36.5137C84.9473 36.5137 85.1074 36.5254 85.252 36.5488L85.2168 37.4512C85.0371 37.4199 84.8809 37.4043 84.748 37.4043C84.2012 37.4043 83.7559 37.5957 83.4121 37.9785C83.0723 38.3574 82.9023 38.8281 82.9023 39.3906V43H81.9238C81.9199 39.0547 81.918 36.9121 81.918 36.5723H82.7324L82.8262 37.7266C83.0488 37.3633 83.332 37.0703 83.6758 36.8477C84.0195 36.625 84.3848 36.5137 84.7715 36.5137ZM88.8613 43.1348C87.916 43.1348 87.1758 42.8281 86.6406 42.2148C86.1094 41.6016 85.8438 40.7988 85.8438 39.8066C85.8477 38.8066 86.1191 37.9961 86.6582 37.375C87.2012 36.75 87.9434 36.4375 88.8848 36.4375C89.2168 36.4375 89.5371 36.4785 89.8457 36.5605C90.1582 36.6426 90.4043 36.75 90.584 36.8828L90.3145 37.6445C89.8574 37.3984 89.375 37.2754 88.8672 37.2754C88.2461 37.2754 87.7539 37.502 87.3906 37.9551C87.0312 38.4082 86.8516 39.0273 86.8516 39.8125C86.8516 40.5781 87.0293 41.1855 87.3848 41.6348C87.7441 42.0801 88.2402 42.3027 88.873 42.3027C89.377 42.3027 89.8926 42.166 90.4199 41.8926L90.543 42.6719C90.1172 42.9805 89.5566 43.1348 88.8613 43.1348ZM96.1445 43V39.1152C96.1445 38.4707 96.041 38.002 95.834 37.709C95.6309 37.416 95.2734 37.2695 94.7617 37.2695C94.2695 37.2695 93.8535 37.3926 93.5137 37.6387C93.1777 37.8848 92.959 38.2031 92.8574 38.5938C92.8223 38.8867 92.8047 39.2129 92.8047 39.5723V43H91.8262V34.0762L92.8047 34.0176V36.6309C92.8047 36.8535 92.7969 37.1289 92.7812 37.457C93.332 36.7773 94.0625 36.4375 94.9727 36.4375C96.4062 36.4375 97.123 37.2793 97.123 38.9629V43H96.1445ZM102.525 38.875V42.168H104.336C105.07 42.168 105.621 42.0332 105.988 41.7637C106.355 41.4902 106.539 41.0664 106.539 40.4922C106.539 39.8945 106.34 39.4766 105.941 39.2383C105.547 38.9961 104.93 38.875 104.09 38.875H102.525ZM102.525 38.0605H104.383C104.988 38.0605 105.445 37.9551 105.754 37.7441C106.062 37.5332 106.217 37.1582 106.217 36.6191C106.217 36.0762 106.031 35.7031 105.66 35.5C105.293 35.293 104.721 35.1895 103.943 35.1895H102.525V38.0605ZM101.512 34.334H103.996C105.109 34.334 105.934 34.5039 106.469 34.8438C107.008 35.1836 107.277 35.7246 107.277 36.4668C107.277 36.5762 107.27 36.6855 107.254 36.7949C107.242 36.9004 107.207 37.0371 107.148 37.2051C107.094 37.373 107.018 37.5273 106.92 37.668C106.822 37.8047 106.678 37.9434 106.486 38.084C106.299 38.2207 106.078 38.3301 105.824 38.4121C106.406 38.5215 106.848 38.7676 107.148 39.1504C107.449 39.5332 107.6 39.9941 107.6 40.5332C107.6 41.3184 107.342 41.9258 106.826 42.3555C106.314 42.7852 105.551 43 104.535 43H101.512V34.334ZM112.568 37.7617C112.283 37.418 111.891 37.2461 111.391 37.2461C110.891 37.2461 110.482 37.4238 110.166 37.7793C109.85 38.1309 109.664 38.6133 109.609 39.2266H113.002C113.002 38.5898 112.857 38.1016 112.568 37.7617ZM111.584 43.1348C110.65 43.1348 109.914 42.8379 109.375 42.2441C108.84 41.6504 108.572 40.8379 108.572 39.8066C108.572 38.8105 108.832 38.0039 109.352 37.3867C109.871 36.7656 110.555 36.4492 111.402 36.4375C112.199 36.4375 112.83 36.7109 113.295 37.2578C113.764 37.8008 113.998 38.5273 113.998 39.4375C113.998 39.4844 113.996 39.5703 113.992 39.6953C113.992 39.8203 113.992 39.9102 113.992 39.9648H109.58C109.592 40.6953 109.779 41.2656 110.143 41.6758C110.51 42.082 111.002 42.2852 111.619 42.2852C112.299 42.2852 112.98 42.1055 113.664 41.7461L113.816 42.5371C113.164 42.9355 112.42 43.1348 111.584 43.1348ZM117.273 43.1348C116.836 43.1348 116.432 43.0879 116.061 42.9941C115.693 42.9004 115.395 42.7793 115.164 42.6309L115.287 41.8047C115.939 42.1523 116.58 42.3262 117.209 42.3262C118.162 42.3262 118.652 41.9902 118.68 41.3184C118.68 41.0332 118.578 40.8086 118.375 40.6445C118.172 40.4805 117.773 40.2969 117.18 40.0938L116.693 39.9238C116.131 39.7363 115.729 39.5039 115.486 39.2266C115.248 38.9492 115.127 38.6035 115.123 38.1895C115.123 37.6855 115.324 37.2676 115.727 36.9355C116.133 36.6035 116.688 36.4375 117.391 36.4375C118.117 36.4375 118.779 36.5781 119.377 36.8594L119.09 37.6094C118.484 37.3594 117.918 37.2344 117.391 37.2344C116.98 37.2344 116.658 37.3164 116.424 37.4805C116.193 37.6406 116.078 37.8672 116.078 38.1602C116.078 38.4102 116.162 38.6016 116.33 38.7344C116.498 38.8672 116.834 39.0195 117.338 39.1914C117.467 39.2383 117.629 39.293 117.824 39.3555C118.473 39.5664 118.932 39.8164 119.201 40.1055C119.471 40.3906 119.605 40.7773 119.605 41.2656C119.598 41.8594 119.385 42.3203 118.967 42.6484C118.549 42.9727 117.984 43.1348 117.273 43.1348ZM122.998 43.1172C122.365 43.1172 121.916 42.9629 121.65 42.6543C121.385 42.3457 121.244 41.8477 121.229 41.1602V37.2988H120.273L120.314 36.6543L121.223 36.5723L121.557 35.1016L122.201 35.0781V36.5723H123.988V37.2988H122.201V40.9844C122.201 41.4727 122.275 41.8164 122.424 42.0156C122.572 42.2148 122.826 42.3145 123.186 42.3145C123.314 42.3145 123.594 42.2832 124.023 42.2207L124.064 42.9941C123.6 43.0762 123.244 43.1172 122.998 43.1172ZM132.086 42.4668L129.426 36.2793L129.203 35.6875L129.244 37.8086V43H128.295V34.334H129.607L132.625 41.2363L135.613 34.334H136.891V43H135.906V37.7852L135.947 35.7109L135.73 36.3027L133.076 42.4668H132.086ZM142.463 37.7617C142.178 37.418 141.785 37.2461 141.285 37.2461C140.785 37.2461 140.377 37.4238 140.061 37.7793C139.744 38.1309 139.559 38.6133 139.504 39.2266H142.896C142.896 38.5898 142.752 38.1016 142.463 37.7617ZM141.479 43.1348C140.545 43.1348 139.809 42.8379 139.27 42.2441C138.734 41.6504 138.467 40.8379 138.467 39.8066C138.467 38.8105 138.727 38.0039 139.246 37.3867C139.766 36.7656 140.449 36.4492 141.297 36.4375C142.094 36.4375 142.725 36.7109 143.189 37.2578C143.658 37.8008 143.893 38.5273 143.893 39.4375C143.893 39.4844 143.891 39.5703 143.887 39.6953C143.887 39.8203 143.887 39.9102 143.887 39.9648H139.475C139.486 40.6953 139.674 41.2656 140.037 41.6758C140.404 42.082 140.896 42.2852 141.514 42.2852C142.193 42.2852 142.875 42.1055 143.559 41.7461L143.711 42.5371C143.059 42.9355 142.314 43.1348 141.479 43.1348ZM147.76 42.291C148.404 42.291 148.883 42.084 149.195 41.6699C149.512 41.2559 149.67 40.6641 149.67 39.8945C149.67 39.0273 149.518 38.375 149.213 37.9375C148.912 37.4961 148.424 37.2754 147.748 37.2754C147.447 37.2754 147.182 37.3398 146.951 37.4688C146.721 37.5977 146.535 37.7773 146.395 38.0078C146.254 38.2383 146.146 38.5039 146.072 38.8047C146.002 39.1016 145.967 39.4277 145.967 39.7832C145.967 40.2832 146.027 40.7168 146.148 41.084C146.273 41.4512 146.473 41.7441 146.746 41.9629C147.02 42.1816 147.357 42.291 147.76 42.291ZM149.688 42.0684C149.477 42.3926 149.195 42.6504 148.844 42.8418C148.492 43.0332 148.1 43.1289 147.666 43.1289C146.818 43.1289 146.154 42.8281 145.674 42.2266C145.193 41.6211 144.953 40.7988 144.953 39.7598C144.953 38.7676 145.197 37.9668 145.686 37.3574C146.174 36.7441 146.828 36.4375 147.648 36.4375C148.074 36.4375 148.475 36.5312 148.85 36.7188C149.229 36.9023 149.512 37.1504 149.699 37.4629L149.682 36.9062V34.0762L150.648 34.0176V43H149.816L149.688 42.0684ZM153.508 36.5723V43H152.523V36.5723H153.508ZM153.508 34.2344V35.3945H152.523V34.2344H153.508ZM158.072 43.1348C157.127 43.1348 156.387 42.8281 155.852 42.2148C155.32 41.6016 155.055 40.7988 155.055 39.8066C155.059 38.8066 155.33 37.9961 155.869 37.375C156.412 36.75 157.154 36.4375 158.096 36.4375C158.428 36.4375 158.748 36.4785 159.057 36.5605C159.369 36.6426 159.615 36.75 159.795 36.8828L159.525 37.6445C159.068 37.3984 158.586 37.2754 158.078 37.2754C157.457 37.2754 156.965 37.502 156.602 37.9551C156.242 38.4082 156.062 39.0273 156.062 39.8125C156.062 40.5781 156.24 41.1855 156.596 41.6348C156.955 42.0801 157.451 42.3027 158.084 42.3027C158.588 42.3027 159.104 42.166 159.631 41.8926L159.754 42.6719C159.328 42.9805 158.768 43.1348 158.072 43.1348ZM162.883 42.3438C163.348 42.3438 163.756 42.2168 164.107 41.9629C164.463 41.7051 164.691 41.3594 164.793 40.9258V39.8418C164.773 39.8418 164.654 39.8516 164.436 39.8711C164.221 39.8906 164.08 39.9023 164.014 39.9062C163.166 39.9805 162.574 40.1191 162.238 40.3223C161.906 40.5254 161.74 40.8516 161.74 41.3008C161.74 41.6445 161.842 41.9043 162.045 42.0801C162.248 42.2559 162.527 42.3438 162.883 42.3438ZM165.01 43C164.951 42.75 164.895 42.4805 164.84 42.1914C164.484 42.5469 164.15 42.793 163.838 42.9297C163.525 43.0664 163.158 43.1348 162.736 43.1348C162.135 43.1348 161.65 42.9785 161.283 42.666C160.92 42.3496 160.738 41.8965 160.738 41.3066C160.738 40.6504 160.986 40.1641 161.482 39.8477C161.982 39.5312 162.701 39.334 163.639 39.2559C163.768 39.2441 163.961 39.2285 164.219 39.209C164.48 39.1855 164.676 39.168 164.805 39.1562V38.5879C164.805 38.1348 164.699 37.7988 164.488 37.5801C164.277 37.3613 163.945 37.252 163.492 37.252C162.859 37.252 162.221 37.4082 161.576 37.7207C161.557 37.6738 161.506 37.5391 161.424 37.3164C161.342 37.0898 161.299 36.9727 161.295 36.9648C161.58 36.8047 161.918 36.6777 162.309 36.584C162.703 36.4863 163.104 36.4375 163.51 36.4375C164.311 36.4375 164.887 36.6133 165.238 36.9648C165.594 37.3125 165.771 37.9062 165.771 38.7461V43H165.01ZM169.188 43.1172C168.562 43.1172 168.119 42.9492 167.857 42.6133C167.6 42.2773 167.471 41.6934 167.471 40.8613V34.0762L168.443 34.0176V40.4746C168.443 40.7402 168.445 40.9531 168.449 41.1133C168.457 41.2734 168.473 41.4316 168.496 41.5879C168.52 41.7402 168.551 41.8555 168.59 41.9336C168.629 42.0117 168.686 42.084 168.76 42.1504C168.834 42.2129 168.922 42.2559 169.023 42.2793C169.129 42.2988 169.258 42.3086 169.41 42.3086C169.535 42.3086 169.781 42.2852 170.148 42.2383L170.201 43.0176C169.799 43.084 169.461 43.1172 169.188 43.1172ZM173.816 41.5703C174.719 42.0156 175.686 42.2383 176.717 42.2383C177.986 42.2383 178.621 41.6602 178.621 40.5039C178.621 40.1289 178.52 39.8262 178.316 39.5957C178.117 39.3613 177.752 39.1777 177.221 39.0449L175.498 38.6113C174.182 38.2793 173.523 37.5762 173.523 36.502C173.523 35.6777 173.807 35.0664 174.373 34.668C174.939 34.2656 175.723 34.0645 176.723 34.0645C177.246 34.0645 177.736 34.1211 178.193 34.2344C178.65 34.3477 179.033 34.5 179.342 34.6914L179.049 35.5176C178.787 35.373 178.439 35.2441 178.006 35.1309C177.576 35.0176 177.141 34.9609 176.699 34.9609C175.285 34.9609 174.578 35.4512 174.578 36.4316C174.578 36.7637 174.686 37.0312 174.9 37.2344C175.119 37.4336 175.445 37.5859 175.879 37.6914L177.525 38.0898C178.229 38.2578 178.762 38.5273 179.125 38.8984C179.488 39.2656 179.67 39.7891 179.67 40.4688C179.67 41.3516 179.398 42.0176 178.855 42.4668C178.316 42.9121 177.582 43.1348 176.652 43.1348C175.957 43.1348 175.338 43.0645 174.795 42.9238C174.256 42.7793 173.828 42.6094 173.512 42.4141L173.816 41.5703ZM184.697 37.7617C184.412 37.418 184.02 37.2461 183.52 37.2461C183.02 37.2461 182.611 37.4238 182.295 37.7793C181.979 38.1309 181.793 38.6133 181.738 39.2266H185.131C185.131 38.5898 184.986 38.1016 184.697 37.7617ZM183.713 43.1348C182.779 43.1348 182.043 42.8379 181.504 42.2441C180.969 41.6504 180.701 40.8379 180.701 39.8066C180.701 38.8105 180.961 38.0039 181.48 37.3867C182 36.7656 182.684 36.4492 183.531 36.4375C184.328 36.4375 184.959 36.7109 185.424 37.2578C185.893 37.8008 186.127 38.5273 186.127 39.4375C186.127 39.4844 186.125 39.5703 186.121 39.6953C186.121 39.8203 186.121 39.9102 186.121 39.9648H181.709C181.721 40.6953 181.908 41.2656 182.271 41.6758C182.639 42.082 183.131 42.2852 183.748 42.2852C184.428 42.2852 185.109 42.1055 185.793 41.7461L185.945 42.5371C185.293 42.9355 184.549 43.1348 183.713 43.1348ZM190.369 36.5137C190.545 36.5137 190.705 36.5254 190.85 36.5488L190.814 37.4512C190.635 37.4199 190.479 37.4043 190.346 37.4043C189.799 37.4043 189.354 37.5957 189.01 37.9785C188.67 38.3574 188.5 38.8281 188.5 39.3906V43H187.521C187.518 39.0547 187.516 36.9121 187.516 36.5723H188.33L188.424 37.7266C188.646 37.3633 188.93 37.0703 189.273 36.8477C189.617 36.625 189.982 36.5137 190.369 36.5137ZM193.504 43L191.014 36.5723H192.062L193.48 40.3926C193.48 40.3926 193.676 40.9355 194.066 42.0215C194.199 41.6035 194.383 41.0645 194.617 40.4043C194.914 39.5723 195.375 38.2949 196 36.5723H197.043L194.57 43H193.504ZM199.059 36.5723V43H198.074V36.5723H199.059ZM199.059 34.2344V35.3945H198.074V34.2344H199.059ZM203.623 43.1348C202.678 43.1348 201.938 42.8281 201.402 42.2148C200.871 41.6016 200.605 40.7988 200.605 39.8066C200.609 38.8066 200.881 37.9961 201.42 37.375C201.963 36.75 202.705 36.4375 203.646 36.4375C203.979 36.4375 204.299 36.4785 204.607 36.5605C204.92 36.6426 205.166 36.75 205.346 36.8828L205.076 37.6445C204.619 37.3984 204.137 37.2754 203.629 37.2754C203.008 37.2754 202.516 37.502 202.152 37.9551C201.793 38.4082 201.613 39.0273 201.613 39.8125C201.613 40.5781 201.791 41.1855 202.146 41.6348C202.506 42.0801 203.002 42.3027 203.635 42.3027C204.139 42.3027 204.654 42.166 205.182 41.8926L205.305 42.6719C204.879 42.9805 204.318 43.1348 203.623 43.1348ZM210.279 37.7617C209.994 37.418 209.602 37.2461 209.102 37.2461C208.602 37.2461 208.193 37.4238 207.877 37.7793C207.561 38.1309 207.375 38.6133 207.32 39.2266H210.713C210.713 38.5898 210.568 38.1016 210.279 37.7617ZM209.295 43.1348C208.361 43.1348 207.625 42.8379 207.086 42.2441C206.551 41.6504 206.283 40.8379 206.283 39.8066C206.283 38.8105 206.543 38.0039 207.062 37.3867C207.582 36.7656 208.266 36.4492 209.113 36.4375C209.91 36.4375 210.541 36.7109 211.006 37.2578C211.475 37.8008 211.709 38.5273 211.709 39.4375C211.709 39.4844 211.707 39.5703 211.703 39.6953C211.703 39.8203 211.703 39.9102 211.703 39.9648H207.291C207.303 40.6953 207.49 41.2656 207.854 41.6758C208.221 42.082 208.713 42.2852 209.33 42.2852C210.01 42.2852 210.691 42.1055 211.375 41.7461L211.527 42.5371C210.875 42.9355 210.131 43.1348 209.295 43.1348ZM214.984 43.1348C214.547 43.1348 214.143 43.0879 213.771 42.9941C213.404 42.9004 213.105 42.7793 212.875 42.6309L212.998 41.8047C213.65 42.1523 214.291 42.3262 214.92 42.3262C215.873 42.3262 216.363 41.9902 216.391 41.3184C216.391 41.0332 216.289 40.8086 216.086 40.6445C215.883 40.4805 215.484 40.2969 214.891 40.0938L214.404 39.9238C213.842 39.7363 213.439 39.5039 213.197 39.2266C212.959 38.9492 212.838 38.6035 212.834 38.1895C212.834 37.6855 213.035 37.2676 213.438 36.9355C213.844 36.6035 214.398 36.4375 215.102 36.4375C215.828 36.4375 216.49 36.5781 217.088 36.8594L216.801 37.6094C216.195 37.3594 215.629 37.2344 215.102 37.2344C214.691 37.2344 214.369 37.3164 214.135 37.4805C213.904 37.6406 213.789 37.8672 213.789 38.1602C213.789 38.4102 213.873 38.6016 214.041 38.7344C214.209 38.8672 214.545 39.0195 215.049 39.1914C215.178 39.2383 215.34 39.293 215.535 39.3555C216.184 39.5664 216.643 39.8164 216.912 40.1055C217.182 40.3906 217.316 40.7773 217.316 41.2656C217.309 41.8594 217.096 42.3203 216.678 42.6484C216.26 42.9727 215.695 43.1348 214.984 43.1348Z" fill="black"/>
<path d="M63.0332 111H62.0195V102.334H66.8301L66.7891 103.23H63.0332V106.271H66.6133V107.133H63.0332V111ZM69.0977 104.572V111H68.1133V104.572H69.0977ZM69.0977 102.234V103.395H68.1133V102.234H69.0977ZM70.9434 111V104.572H71.7637L71.8867 105.492C72.1406 105.176 72.457 104.922 72.8359 104.73C73.2188 104.535 73.6309 104.438 74.0723 104.438C74.8145 104.438 75.3633 104.646 75.7188 105.064C76.0742 105.479 76.252 106.117 76.252 106.98V111H75.2734C75.2734 108.422 75.2715 107.041 75.2676 106.857C75.252 106.311 75.1406 105.91 74.9336 105.656C74.7305 105.402 74.3887 105.275 73.9082 105.275C73.4043 105.275 72.9844 105.396 72.6484 105.639C72.3125 105.881 72.0938 106.195 71.9922 106.582C71.9531 106.844 71.9336 107.145 71.9336 107.484V111H70.9434ZM80.3887 110.291C81.0332 110.291 81.5117 110.084 81.8242 109.67C82.1406 109.256 82.2988 108.664 82.2988 107.895C82.2988 107.027 82.1465 106.375 81.8418 105.938C81.541 105.496 81.0527 105.275 80.377 105.275C80.0762 105.275 79.8105 105.34 79.5801 105.469C79.3496 105.598 79.1641 105.777 79.0234 106.008C78.8828 106.238 78.7754 106.504 78.7012 106.805C78.6309 107.102 78.5957 107.428 78.5957 107.783C78.5957 108.283 78.6562 108.717 78.7773 109.084C78.9023 109.451 79.1016 109.744 79.375 109.963C79.6484 110.182 79.9863 110.291 80.3887 110.291ZM82.3164 110.068C82.1055 110.393 81.8242 110.65 81.4727 110.842C81.1211 111.033 80.7285 111.129 80.2949 111.129C79.4473 111.129 78.7832 110.828 78.3027 110.227C77.8223 109.621 77.582 108.799 77.582 107.76C77.582 106.768 77.8262 105.967 78.3145 105.357C78.8027 104.744 79.457 104.438 80.2773 104.438C80.7031 104.438 81.1035 104.531 81.4785 104.719C81.8574 104.902 82.1406 105.15 82.3281 105.463L82.3105 104.906V102.076L83.2773 102.018V111H82.4453L82.3164 110.068ZM90.0332 111.117C89.4004 111.117 88.9512 110.963 88.6855 110.654C88.4199 110.346 88.2793 109.848 88.2637 109.16V105.299H87.3086L87.3496 104.654L88.2578 104.572L88.5918 103.102L89.2363 103.078V104.572H91.0234V105.299H89.2363V108.984C89.2363 109.473 89.3105 109.816 89.459 110.016C89.6074 110.215 89.8613 110.314 90.2207 110.314C90.3496 110.314 90.6289 110.283 91.0586 110.221L91.0996 110.994C90.6348 111.076 90.2793 111.117 90.0332 111.117ZM96.4727 111V107.115C96.4727 106.471 96.3691 106.002 96.1621 105.709C95.959 105.416 95.6016 105.27 95.0898 105.27C94.5977 105.27 94.1816 105.393 93.8418 105.639C93.5059 105.885 93.2871 106.203 93.1855 106.594C93.1504 106.887 93.1328 107.213 93.1328 107.572V111H92.1543V102.076L93.1328 102.018V104.631C93.1328 104.854 93.125 105.129 93.1094 105.457C93.6602 104.777 94.3906 104.438 95.3008 104.438C96.7344 104.438 97.4512 105.279 97.4512 106.963V111H96.4727ZM102.361 105.762C102.076 105.418 101.684 105.246 101.184 105.246C100.684 105.246 100.275 105.424 99.959 105.779C99.6426 106.131 99.457 106.613 99.4023 107.227H102.795C102.795 106.59 102.65 106.102 102.361 105.762ZM101.377 111.135C100.443 111.135 99.707 110.838 99.168 110.244C98.6328 109.65 98.3652 108.838 98.3652 107.807C98.3652 106.811 98.625 106.004 99.1445 105.387C99.6641 104.766 100.348 104.449 101.195 104.438C101.992 104.438 102.623 104.711 103.088 105.258C103.557 105.801 103.791 106.527 103.791 107.438C103.791 107.484 103.789 107.57 103.785 107.695C103.785 107.82 103.785 107.91 103.785 107.965H99.373C99.3848 108.695 99.5723 109.266 99.9355 109.676C100.303 110.082 100.795 110.285 101.412 110.285C102.092 110.285 102.773 110.105 103.457 109.746L103.609 110.537C102.957 110.936 102.213 111.135 101.377 111.135ZM114.373 106.688C114.373 105.477 114.061 104.596 113.436 104.045C112.811 103.494 111.9 103.219 110.705 103.219H109.346V110.115H110.875C112.016 110.115 112.883 109.828 113.477 109.254C114.074 108.676 114.373 107.82 114.373 106.688ZM115.457 106.658C115.457 108.068 115.057 109.145 114.256 109.887C113.455 110.629 112.338 111 110.904 111H108.332V102.334H110.734C111.457 102.334 112.104 102.42 112.674 102.592C113.244 102.76 113.738 103.018 114.156 103.365C114.578 103.709 114.9 104.16 115.123 104.719C115.346 105.273 115.457 105.92 115.457 106.658ZM117.666 107.801C117.666 108.562 117.834 109.174 118.17 109.635C118.51 110.092 119.004 110.32 119.652 110.32C120.293 110.32 120.775 110.092 121.1 109.635C121.428 109.178 121.592 108.562 121.592 107.789C121.592 107.004 121.43 106.387 121.105 105.938C120.785 105.484 120.295 105.258 119.635 105.258C118.994 105.258 118.506 105.488 118.17 105.949C117.834 106.41 117.666 107.027 117.666 107.801ZM122.605 107.783C122.605 108.779 122.34 109.588 121.809 110.209C121.277 110.826 120.543 111.135 119.605 111.135C118.703 111.135 117.984 110.822 117.449 110.197C116.918 109.572 116.652 108.77 116.652 107.789C116.652 106.789 116.92 105.98 117.455 105.363C117.99 104.746 118.725 104.438 119.658 104.438C120.576 104.438 121.297 104.748 121.82 105.369C122.344 105.986 122.605 106.791 122.605 107.783ZM126.713 111.135C125.768 111.135 125.027 110.828 124.492 110.215C123.961 109.602 123.695 108.799 123.695 107.807C123.699 106.807 123.971 105.996 124.51 105.375C125.053 104.75 125.795 104.438 126.736 104.438C127.068 104.438 127.389 104.479 127.697 104.561C128.01 104.643 128.256 104.75 128.436 104.883L128.166 105.645C127.709 105.398 127.227 105.275 126.719 105.275C126.098 105.275 125.605 105.502 125.242 105.955C124.883 106.408 124.703 107.027 124.703 107.812C124.703 108.578 124.881 109.186 125.236 109.635C125.596 110.08 126.092 110.303 126.725 110.303C127.229 110.303 127.744 110.166 128.271 109.893L128.395 110.672C127.969 110.98 127.408 111.135 126.713 111.135ZM131.717 111.117C131.084 111.117 130.635 110.963 130.369 110.654C130.104 110.346 129.963 109.848 129.947 109.16V105.299H128.992L129.033 104.654L129.941 104.572L130.275 103.102L130.92 103.078V104.572H132.707V105.299H130.92V108.984C130.92 109.473 130.994 109.816 131.143 110.016C131.291 110.215 131.545 110.314 131.904 110.314C132.033 110.314 132.312 110.283 132.742 110.221L132.783 110.994C132.318 111.076 131.963 111.117 131.717 111.117ZM134.471 107.801C134.471 108.562 134.639 109.174 134.975 109.635C135.314 110.092 135.809 110.32 136.457 110.32C137.098 110.32 137.58 110.092 137.904 109.635C138.232 109.178 138.396 108.562 138.396 107.789C138.396 107.004 138.234 106.387 137.91 105.938C137.59 105.484 137.1 105.258 136.439 105.258C135.799 105.258 135.311 105.488 134.975 105.949C134.639 106.41 134.471 107.027 134.471 107.801ZM139.41 107.783C139.41 108.779 139.145 109.588 138.613 110.209C138.082 110.826 137.348 111.135 136.41 111.135C135.508 111.135 134.789 110.822 134.254 110.197C133.723 109.572 133.457 108.77 133.457 107.789C133.457 106.789 133.725 105.98 134.26 105.363C134.795 104.746 135.529 104.438 136.463 104.438C137.381 104.438 138.102 104.748 138.625 105.369C139.148 105.986 139.41 106.791 139.41 107.783ZM143.682 104.514C143.857 104.514 144.018 104.525 144.162 104.549L144.127 105.451C143.947 105.42 143.791 105.404 143.658 105.404C143.111 105.404 142.666 105.596 142.322 105.979C141.982 106.357 141.812 106.828 141.812 107.391V111H140.834C140.83 107.055 140.828 104.912 140.828 104.572H141.643L141.736 105.727C141.959 105.363 142.242 105.07 142.586 104.848C142.93 104.625 143.295 104.514 143.682 104.514ZM147.086 111.135C146.648 111.135 146.244 111.088 145.873 110.994C145.506 110.9 145.207 110.779 144.977 110.631L145.1 109.805C145.752 110.152 146.393 110.326 147.021 110.326C147.975 110.326 148.465 109.99 148.492 109.318C148.492 109.033 148.391 108.809 148.188 108.645C147.984 108.48 147.586 108.297 146.992 108.094L146.506 107.924C145.943 107.736 145.541 107.504 145.299 107.227C145.061 106.949 144.939 106.604 144.936 106.189C144.936 105.686 145.137 105.268 145.539 104.936C145.945 104.604 146.5 104.438 147.203 104.438C147.93 104.438 148.592 104.578 149.189 104.859L148.902 105.609C148.297 105.359 147.73 105.234 147.203 105.234C146.793 105.234 146.471 105.316 146.236 105.48C146.006 105.641 145.891 105.867 145.891 106.16C145.891 106.41 145.975 106.602 146.143 106.734C146.311 106.867 146.646 107.02 147.15 107.191C147.279 107.238 147.441 107.293 147.637 107.355C148.285 107.566 148.744 107.816 149.014 108.105C149.283 108.391 149.418 108.777 149.418 109.266C149.41 109.859 149.197 110.32 148.779 110.648C148.361 110.973 147.797 111.135 147.086 111.135Z" fill="black"/>
<path d="M65.7988 180.129C65.1387 180.129 64.5449 180.02 64.0176 179.801C63.4941 179.578 63.0605 179.27 62.7168 178.875C62.377 178.477 62.1152 178.006 61.9316 177.463C61.752 176.92 61.6621 176.324 61.6621 175.676C61.6621 174.801 61.8281 174.027 62.1602 173.355C62.4922 172.684 62.9863 172.154 63.6426 171.768C64.2988 171.381 65.0762 171.188 65.9746 171.188C66.9707 171.188 67.8457 171.414 68.5996 171.867L68.2129 172.705C67.4863 172.287 66.7441 172.078 65.9863 172.078C65.459 172.078 64.9863 172.17 64.5684 172.354C64.1543 172.533 63.8145 172.785 63.5488 173.109C63.2871 173.43 63.0859 173.809 62.9453 174.246C62.8086 174.68 62.7402 175.156 62.7402 175.676C62.7402 176.777 63.0137 177.648 63.5605 178.289C64.1113 178.926 64.9219 179.244 65.9922 179.244C66.6016 179.244 67.2207 179.121 67.8496 178.875V176.402H65.8047L65.8398 175.518H68.7988V179.479C68.3066 179.713 67.8301 179.881 67.3691 179.982C66.9121 180.08 66.3887 180.129 65.7988 180.129ZM74.1074 174.762C73.8223 174.418 73.4297 174.246 72.9297 174.246C72.4297 174.246 72.0215 174.424 71.7051 174.779C71.3887 175.131 71.2031 175.613 71.1484 176.227H74.541C74.541 175.59 74.3965 175.102 74.1074 174.762ZM73.123 180.135C72.1895 180.135 71.4531 179.838 70.9141 179.244C70.3789 178.65 70.1113 177.838 70.1113 176.807C70.1113 175.811 70.3711 175.004 70.8906 174.387C71.4102 173.766 72.0938 173.449 72.9414 173.438C73.7383 173.438 74.3691 173.711 74.834 174.258C75.3027 174.801 75.5371 175.527 75.5371 176.438C75.5371 176.484 75.5352 176.57 75.5312 176.695C75.5312 176.82 75.5312 176.91 75.5312 176.965H71.1191C71.1309 177.695 71.3184 178.266 71.6816 178.676C72.0488 179.082 72.541 179.285 73.1582 179.285C73.8379 179.285 74.5195 179.105 75.2031 178.746L75.3555 179.537C74.7031 179.936 73.959 180.135 73.123 180.135ZM78.9473 180.117C78.3145 180.117 77.8652 179.963 77.5996 179.654C77.334 179.346 77.1934 178.848 77.1777 178.16V174.299H76.2227L76.2637 173.654L77.1719 173.572L77.5059 172.102L78.1504 172.078V173.572H79.9375V174.299H78.1504V177.984C78.1504 178.473 78.2246 178.816 78.373 179.016C78.5215 179.215 78.7754 179.314 79.1348 179.314C79.2637 179.314 79.543 179.283 79.9727 179.221L80.0137 179.994C79.5488 180.076 79.1934 180.117 78.9473 180.117ZM83.2363 173.572H84.2734L86.3008 178.922L88.1055 173.572H89.1426C87.4082 178.346 86.5117 180.807 86.4531 180.955C86.1836 181.631 85.8574 182.125 85.4746 182.438C85.0918 182.754 84.5879 182.912 83.9629 182.912C83.7754 182.912 83.5781 182.896 83.3711 182.865L83.3125 182.033C83.5312 182.049 83.6953 182.057 83.8047 182.057C84.2461 182.057 84.5801 181.975 84.8066 181.811C85.0371 181.65 85.2422 181.348 85.4219 180.902C85.582 180.492 85.7012 180.176 85.7793 179.953L83.2363 173.572ZM90.6426 176.801C90.6426 177.562 90.8105 178.174 91.1465 178.635C91.4863 179.092 91.9805 179.32 92.6289 179.32C93.2695 179.32 93.752 179.092 94.0762 178.635C94.4043 178.178 94.5684 177.562 94.5684 176.789C94.5684 176.004 94.4062 175.387 94.082 174.938C93.7617 174.484 93.2715 174.258 92.6113 174.258C91.9707 174.258 91.4824 174.488 91.1465 174.949C90.8105 175.41 90.6426 176.027 90.6426 176.801ZM95.582 176.783C95.582 177.779 95.3164 178.588 94.7852 179.209C94.2539 179.826 93.5195 180.135 92.582 180.135C91.6797 180.135 90.9609 179.822 90.4258 179.197C89.8945 178.572 89.6289 177.77 89.6289 176.789C89.6289 175.789 89.8965 174.98 90.4316 174.363C90.9668 173.746 91.7012 173.438 92.6348 173.438C93.5527 173.438 94.2734 173.748 94.7969 174.369C95.3203 174.986 95.582 175.791 95.582 176.783ZM96.748 177.855V173.572H97.7324V177.867C97.7324 178.148 97.7715 178.387 97.8496 178.582C97.9316 178.777 98.0469 178.93 98.1953 179.039C98.3477 179.145 98.5176 179.221 98.7051 179.268C98.8965 179.314 99.1152 179.338 99.3613 179.338C99.8691 179.338 100.264 179.227 100.545 179.004C100.83 178.781 100.973 178.402 100.973 177.867V173.572H101.957V177.855C101.957 178.184 101.91 178.479 101.816 178.74C101.723 179.002 101.596 179.221 101.436 179.396C101.279 179.568 101.09 179.711 100.867 179.824C100.645 179.938 100.408 180.02 100.158 180.07C99.9121 180.121 99.6465 180.146 99.3613 180.146C99.0801 180.146 98.8145 180.121 98.5645 180.07C98.3145 180.02 98.0762 179.938 97.8496 179.824C97.627 179.707 97.4336 179.562 97.2695 179.391C97.1094 179.215 96.9824 178.996 96.8887 178.734C96.7949 178.473 96.748 178.18 96.748 177.855ZM106.299 173.514C106.475 173.514 106.635 173.525 106.779 173.549L106.744 174.451C106.564 174.42 106.408 174.404 106.275 174.404C105.729 174.404 105.283 174.596 104.939 174.979C104.6 175.357 104.43 175.828 104.43 176.391V180H103.451C103.447 176.055 103.445 173.912 103.445 173.572H104.26L104.354 174.727C104.576 174.363 104.859 174.07 105.203 173.848C105.547 173.625 105.912 173.514 106.299 173.514ZM110.805 178.57C111.707 179.016 112.674 179.238 113.705 179.238C114.975 179.238 115.609 178.66 115.609 177.504C115.609 177.129 115.508 176.826 115.305 176.596C115.105 176.361 114.74 176.178 114.209 176.045L112.486 175.611C111.17 175.279 110.512 174.576 110.512 173.502C110.512 172.678 110.795 172.066 111.361 171.668C111.928 171.266 112.711 171.064 113.711 171.064C114.234 171.064 114.725 171.121 115.182 171.234C115.639 171.348 116.021 171.5 116.33 171.691L116.037 172.518C115.775 172.373 115.428 172.244 114.994 172.131C114.564 172.018 114.129 171.961 113.688 171.961C112.273 171.961 111.566 172.451 111.566 173.432C111.566 173.764 111.674 174.031 111.889 174.234C112.107 174.434 112.434 174.586 112.867 174.691L114.514 175.09C115.217 175.258 115.75 175.527 116.113 175.898C116.477 176.266 116.658 176.789 116.658 177.469C116.658 178.352 116.387 179.018 115.844 179.467C115.305 179.912 114.57 180.135 113.641 180.135C112.945 180.135 112.326 180.064 111.783 179.924C111.244 179.779 110.816 179.609 110.5 179.414L110.805 178.57ZM118.697 176.801C118.697 177.562 118.865 178.174 119.201 178.635C119.541 179.092 120.035 179.32 120.684 179.32C121.324 179.32 121.807 179.092 122.131 178.635C122.459 178.178 122.623 177.562 122.623 176.789C122.623 176.004 122.461 175.387 122.137 174.938C121.816 174.484 121.326 174.258 120.666 174.258C120.025 174.258 119.537 174.488 119.201 174.949C118.865 175.41 118.697 176.027 118.697 176.801ZM123.637 176.783C123.637 177.779 123.371 178.588 122.84 179.209C122.309 179.826 121.574 180.135 120.637 180.135C119.734 180.135 119.016 179.822 118.48 179.197C117.949 178.572 117.684 177.77 117.684 176.789C117.684 175.789 117.951 174.98 118.486 174.363C119.021 173.746 119.756 173.438 120.689 173.438C121.607 173.438 122.328 173.748 122.852 174.369C123.375 174.986 123.637 175.791 123.637 176.783ZM126.754 180.117C126.129 180.117 125.686 179.949 125.424 179.613C125.166 179.277 125.037 178.693 125.037 177.861V171.076L126.01 171.018V177.475C126.01 177.74 126.012 177.953 126.016 178.113C126.023 178.273 126.039 178.432 126.062 178.588C126.086 178.74 126.117 178.855 126.156 178.934C126.195 179.012 126.252 179.084 126.326 179.15C126.4 179.213 126.488 179.256 126.59 179.279C126.695 179.299 126.824 179.309 126.977 179.309C127.102 179.309 127.348 179.285 127.715 179.238L127.768 180.018C127.365 180.084 127.027 180.117 126.754 180.117ZM128.143 177.855V173.572H129.127V177.867C129.127 178.148 129.166 178.387 129.244 178.582C129.326 178.777 129.441 178.93 129.59 179.039C129.742 179.145 129.912 179.221 130.1 179.268C130.291 179.314 130.51 179.338 130.756 179.338C131.264 179.338 131.658 179.227 131.939 179.004C132.225 178.781 132.367 178.402 132.367 177.867V173.572H133.352V177.855C133.352 178.184 133.305 178.479 133.211 178.74C133.117 179.002 132.99 179.221 132.83 179.396C132.674 179.568 132.484 179.711 132.262 179.824C132.039 179.938 131.803 180.02 131.553 180.07C131.307 180.121 131.041 180.146 130.756 180.146C130.475 180.146 130.209 180.121 129.959 180.07C129.709 180.02 129.471 179.938 129.244 179.824C129.021 179.707 128.828 179.562 128.664 179.391C128.504 179.215 128.377 178.996 128.283 178.734C128.189 178.473 128.143 178.18 128.143 177.855ZM137.529 180.135C136.584 180.135 135.844 179.828 135.309 179.215C134.777 178.602 134.512 177.799 134.512 176.807C134.516 175.807 134.787 174.996 135.326 174.375C135.869 173.75 136.611 173.438 137.553 173.438C137.885 173.438 138.205 173.479 138.514 173.561C138.826 173.643 139.072 173.75 139.252 173.883L138.982 174.645C138.525 174.398 138.043 174.275 137.535 174.275C136.914 174.275 136.422 174.502 136.059 174.955C135.699 175.408 135.52 176.027 135.52 176.812C135.52 177.578 135.697 178.186 136.053 178.635C136.412 179.08 136.908 179.303 137.541 179.303C138.045 179.303 138.561 179.166 139.088 178.893L139.211 179.672C138.785 179.98 138.225 180.135 137.529 180.135ZM142.533 180.117C141.9 180.117 141.451 179.963 141.186 179.654C140.92 179.346 140.779 178.848 140.764 178.16V174.299H139.809L139.85 173.654L140.758 173.572L141.092 172.102L141.736 172.078V173.572H143.523V174.299H141.736V177.984C141.736 178.473 141.811 178.816 141.959 179.016C142.107 179.215 142.361 179.314 142.721 179.314C142.85 179.314 143.129 179.283 143.559 179.221L143.6 179.994C143.135 180.076 142.779 180.117 142.533 180.117ZM145.797 173.572V180H144.812V173.572H145.797ZM145.797 171.234V172.395H144.812V171.234H145.797ZM148.357 176.801C148.357 177.562 148.525 178.174 148.861 178.635C149.201 179.092 149.695 179.32 150.344 179.32C150.984 179.32 151.467 179.092 151.791 178.635C152.119 178.178 152.283 177.562 152.283 176.789C152.283 176.004 152.121 175.387 151.797 174.938C151.477 174.484 150.986 174.258 150.326 174.258C149.686 174.258 149.197 174.488 148.861 174.949C148.525 175.41 148.357 176.027 148.357 176.801ZM153.297 176.783C153.297 177.779 153.031 178.588 152.5 179.209C151.969 179.826 151.234 180.135 150.297 180.135C149.395 180.135 148.676 179.822 148.141 179.197C147.609 178.572 147.344 177.77 147.344 176.789C147.344 175.789 147.611 174.98 148.146 174.363C148.682 173.746 149.416 173.438 150.35 173.438C151.268 173.438 151.988 173.748 152.512 174.369C153.035 174.986 153.297 175.791 153.297 176.783ZM154.686 180V173.572H155.506L155.629 174.492C155.883 174.176 156.199 173.922 156.578 173.73C156.961 173.535 157.373 173.438 157.814 173.438C158.557 173.438 159.105 173.646 159.461 174.064C159.816 174.479 159.994 175.117 159.994 175.98V180H159.016C159.016 177.422 159.014 176.041 159.01 175.857C158.994 175.311 158.883 174.91 158.676 174.656C158.473 174.402 158.131 174.275 157.65 174.275C157.146 174.275 156.727 174.396 156.391 174.639C156.055 174.881 155.836 175.195 155.734 175.582C155.695 175.844 155.676 176.145 155.676 176.484V180H154.686ZM163.539 180.135C163.102 180.135 162.697 180.088 162.326 179.994C161.959 179.9 161.66 179.779 161.43 179.631L161.553 178.805C162.205 179.152 162.846 179.326 163.475 179.326C164.428 179.326 164.918 178.99 164.945 178.318C164.945 178.033 164.844 177.809 164.641 177.645C164.438 177.48 164.039 177.297 163.445 177.094L162.959 176.924C162.396 176.736 161.994 176.504 161.752 176.227C161.514 175.949 161.393 175.604 161.389 175.189C161.389 174.686 161.59 174.268 161.992 173.936C162.398 173.604 162.953 173.438 163.656 173.438C164.383 173.438 165.045 173.578 165.643 173.859L165.355 174.609C164.75 174.359 164.184 174.234 163.656 174.234C163.246 174.234 162.924 174.316 162.689 174.48C162.459 174.641 162.344 174.867 162.344 175.16C162.344 175.41 162.428 175.602 162.596 175.734C162.764 175.867 163.1 176.02 163.604 176.191C163.732 176.238 163.895 176.293 164.09 176.355C164.738 176.566 165.197 176.816 165.467 177.105C165.736 177.391 165.871 177.777 165.871 178.266C165.863 178.859 165.65 179.32 165.232 179.648C164.814 179.973 164.25 180.135 163.539 180.135Z" fill="black"/>
<path d="M64.2109 58.6445L62.4375 54.5195L62.2891 54.125L62.3164 55.5391V59H61.6836V53.2227H62.5586L64.5703 57.8242L66.5625 53.2227H67.4141V59H66.7578V55.5234L66.7852 54.1406L66.6406 54.5352L64.8711 58.6445H64.2109ZM69.1367 56.8672C69.1367 57.375 69.2487 57.7826 69.4727 58.0898C69.6992 58.3945 70.0286 58.5469 70.4609 58.5469C70.888 58.5469 71.2096 58.3945 71.4258 58.0898C71.6445 57.7852 71.7539 57.375 71.7539 56.8594C71.7539 56.3359 71.6458 55.9245 71.4297 55.625C71.2161 55.3229 70.8893 55.1719 70.4492 55.1719C70.0221 55.1719 69.6966 55.3255 69.4727 55.6328C69.2487 55.9401 69.1367 56.3516 69.1367 56.8672ZM72.4297 56.8555C72.4297 57.5195 72.2526 58.0586 71.8984 58.4727C71.5443 58.8841 71.0547 59.0898 70.4297 59.0898C69.8281 59.0898 69.349 58.8815 68.9922 58.4648C68.638 58.0482 68.4609 57.513 68.4609 56.8594C68.4609 56.1927 68.6393 55.6536 68.9961 55.2422C69.3529 54.8307 69.8424 54.625 70.4648 54.625C71.0768 54.625 71.5573 54.832 71.9062 55.2461C72.2552 55.6576 72.4297 56.194 72.4297 56.8555ZM75.2773 54.6758C75.3945 54.6758 75.5013 54.6836 75.5977 54.6992L75.5742 55.3008C75.4544 55.2799 75.3503 55.2695 75.2617 55.2695C74.8971 55.2695 74.6003 55.3971 74.3711 55.6523C74.1445 55.9049 74.0312 56.2188 74.0312 56.5938V59H73.3789C73.3763 56.3698 73.375 54.9414 73.375 54.7148H73.918L73.9805 55.4844C74.1289 55.2422 74.3177 55.0469 74.5469 54.8984C74.776 54.75 75.0195 54.6758 75.2773 54.6758ZM78.6602 55.5078C78.4701 55.2786 78.2083 55.1641 77.875 55.1641C77.5417 55.1641 77.2695 55.2826 77.0586 55.5195C76.8477 55.7539 76.724 56.0755 76.6875 56.4844H78.9492C78.9492 56.0599 78.8529 55.7344 78.6602 55.5078ZM78.0039 59.0898C77.3815 59.0898 76.8906 58.8919 76.5312 58.4961C76.1745 58.1003 75.9961 57.5586 75.9961 56.8711C75.9961 56.207 76.1693 55.6693 76.5156 55.2578C76.862 54.8438 77.3177 54.6328 77.8828 54.625C78.4141 54.625 78.8346 54.8073 79.1445 55.1719C79.457 55.5339 79.6133 56.0182 79.6133 56.625C79.6133 56.6562 79.612 56.7135 79.6094 56.7969C79.6094 56.8802 79.6094 56.9401 79.6094 56.9766H76.668C76.6758 57.4635 76.8008 57.8438 77.043 58.1172C77.2878 58.388 77.6159 58.5234 78.0273 58.5234C78.4805 58.5234 78.9349 58.4036 79.3906 58.1641L79.4922 58.6914C79.0573 58.957 78.5612 59.0898 78.0039 59.0898ZM82.5312 58.0469C83.1328 58.3438 83.7773 58.4922 84.4648 58.4922C85.3112 58.4922 85.7344 58.1068 85.7344 57.3359C85.7344 57.0859 85.6667 56.8841 85.5312 56.7305C85.3984 56.5742 85.1549 56.4518 84.8008 56.3633L83.6523 56.0742C82.7747 55.8529 82.3359 55.3841 82.3359 54.668C82.3359 54.1185 82.5247 53.7109 82.9023 53.4453C83.2799 53.1771 83.8021 53.043 84.4688 53.043C84.8177 53.043 85.1445 53.0807 85.4492 53.1562C85.7539 53.2318 86.0091 53.3333 86.2148 53.4609L86.0195 54.0117C85.8451 53.9154 85.6133 53.8294 85.3242 53.7539C85.0378 53.6784 84.7474 53.6406 84.4531 53.6406C83.5104 53.6406 83.0391 53.9674 83.0391 54.6211C83.0391 54.8424 83.1107 55.0208 83.2539 55.1562C83.3997 55.2891 83.6172 55.3906 83.9062 55.4609L85.0039 55.7266C85.4727 55.8385 85.8281 56.0182 86.0703 56.2656C86.3125 56.5104 86.4336 56.8594 86.4336 57.3125C86.4336 57.901 86.2526 58.3451 85.8906 58.6445C85.5312 58.9414 85.0417 59.0898 84.4219 59.0898C83.9583 59.0898 83.5456 59.043 83.1836 58.9492C82.8242 58.8529 82.5391 58.7396 82.3281 58.6094L82.5312 58.0469ZM87.3164 60.8594V54.7148H87.8906L87.9531 55.2969C88.3281 54.849 88.7786 54.625 89.3047 54.625C89.6953 54.625 90.026 54.7227 90.2969 54.918C90.5677 55.1133 90.7669 55.3776 90.8945 55.7109C91.0247 56.0443 91.0898 56.4336 91.0898 56.8789C91.0898 57.306 91.0195 57.6862 90.8789 58.0195C90.7383 58.3503 90.5312 58.612 90.2578 58.8047C89.987 58.9948 89.6693 59.0898 89.3047 59.0898C89.0286 59.0898 88.7695 59.0286 88.5273 58.9062C88.2852 58.7812 88.0911 58.6172 87.9453 58.4141C87.9609 58.6953 87.9688 58.9688 87.9688 59.2344V60.8164L87.3164 60.8594ZM89.2148 58.5391C89.4128 58.5391 89.5898 58.4948 89.7461 58.4062C89.9023 58.3151 90.0286 58.1914 90.125 58.0352C90.2214 57.8789 90.2943 57.7018 90.3438 57.5039C90.3932 57.3034 90.418 57.0872 90.418 56.8555C90.418 56.3659 90.3151 55.9648 90.1094 55.6523C89.9036 55.3372 89.6029 55.1797 89.207 55.1797C88.3789 55.1797 87.9648 55.7148 87.9648 56.7852C87.9648 57.3659 88.0612 57.8034 88.2539 58.0977C88.4492 58.3919 88.7695 58.5391 89.2148 58.5391ZM94.4805 55.5078C94.2904 55.2786 94.0286 55.1641 93.6953 55.1641C93.362 55.1641 93.0898 55.2826 92.8789 55.5195C92.668 55.7539 92.5443 56.0755 92.5078 56.4844H94.7695C94.7695 56.0599 94.6732 55.7344 94.4805 55.5078ZM93.8242 59.0898C93.2018 59.0898 92.7109 58.8919 92.3516 58.4961C91.9948 58.1003 91.8164 57.5586 91.8164 56.8711C91.8164 56.207 91.9896 55.6693 92.3359 55.2578C92.6823 54.8438 93.138 54.6328 93.7031 54.625C94.2344 54.625 94.6549 54.8073 94.9648 55.1719C95.2773 55.5339 95.4336 56.0182 95.4336 56.625C95.4336 56.6562 95.4323 56.7135 95.4297 56.7969C95.4297 56.8802 95.4297 56.9401 95.4297 56.9766H92.4883C92.4961 57.4635 92.6211 57.8438 92.8633 58.1172C93.1081 58.388 93.4362 58.5234 93.8477 58.5234C94.3008 58.5234 94.7552 58.4036 95.2109 58.1641L95.3125 58.6914C94.8776 58.957 94.3815 59.0898 93.8242 59.0898ZM98.1523 59.0898C97.5221 59.0898 97.0286 58.8854 96.6719 58.4766C96.3177 58.0677 96.1406 57.5326 96.1406 56.8711C96.1432 56.2044 96.3242 55.6641 96.6836 55.25C97.0456 54.8333 97.5404 54.625 98.168 54.625C98.3893 54.625 98.6029 54.6523 98.8086 54.707C99.0169 54.7617 99.181 54.8333 99.3008 54.9219L99.1211 55.4297C98.8164 55.2656 98.4948 55.1836 98.1562 55.1836C97.7422 55.1836 97.4141 55.3346 97.1719 55.6367C96.9323 55.9388 96.8125 56.3516 96.8125 56.875C96.8125 57.3854 96.931 57.7904 97.168 58.0898C97.4076 58.3867 97.7383 58.5352 98.1602 58.5352C98.4961 58.5352 98.8398 58.444 99.1914 58.2617L99.2734 58.7812C98.9896 58.987 98.6159 59.0898 98.1523 59.0898ZM100.891 54.7148V59H100.234V54.7148H100.891ZM100.891 53.1562V53.9297H100.234V53.1562H100.891ZM103.359 58.5625C103.669 58.5625 103.941 58.4779 104.176 58.3086C104.413 58.1367 104.565 57.9062 104.633 57.6172V56.8945C104.62 56.8945 104.54 56.901 104.395 56.9141C104.251 56.9271 104.158 56.9349 104.113 56.9375C103.548 56.987 103.154 57.0794 102.93 57.2148C102.708 57.3503 102.598 57.5677 102.598 57.8672C102.598 58.0964 102.665 58.2695 102.801 58.3867C102.936 58.5039 103.122 58.5625 103.359 58.5625ZM104.777 59C104.738 58.8333 104.701 58.6536 104.664 58.4609C104.427 58.6979 104.204 58.862 103.996 58.9531C103.788 59.0443 103.543 59.0898 103.262 59.0898C102.861 59.0898 102.538 58.9857 102.293 58.7773C102.051 58.5664 101.93 58.2643 101.93 57.8711C101.93 57.4336 102.095 57.1094 102.426 56.8984C102.759 56.6875 103.238 56.556 103.863 56.5039C103.949 56.4961 104.078 56.4857 104.25 56.4727C104.424 56.457 104.555 56.4453 104.641 56.4375V56.0586C104.641 55.7565 104.57 55.5326 104.43 55.3867C104.289 55.2409 104.068 55.168 103.766 55.168C103.344 55.168 102.918 55.2721 102.488 55.4805C102.475 55.4492 102.441 55.3594 102.387 55.2109C102.332 55.0599 102.303 54.9818 102.301 54.9766C102.491 54.8698 102.716 54.7852 102.977 54.7227C103.24 54.6576 103.507 54.625 103.777 54.625C104.311 54.625 104.695 54.7422 104.93 54.9766C105.167 55.2083 105.285 55.6042 105.285 56.1641V59H104.777ZM107.562 59.0781C107.146 59.0781 106.85 58.9661 106.676 58.7422C106.504 58.5182 106.418 58.1289 106.418 57.5742V53.0508L107.066 53.0117V57.3164C107.066 57.4935 107.068 57.6354 107.07 57.7422C107.076 57.849 107.086 57.9544 107.102 58.0586C107.117 58.1602 107.138 58.237 107.164 58.2891C107.19 58.3411 107.228 58.3893 107.277 58.4336C107.327 58.4753 107.385 58.5039 107.453 58.5195C107.523 58.5326 107.609 58.5391 107.711 58.5391C107.794 58.5391 107.958 58.5234 108.203 58.4922L108.238 59.0117C107.97 59.056 107.745 59.0781 107.562 59.0781ZM109.406 54.7148V59H108.75V54.7148H109.406ZM109.406 53.1562V53.9297H108.75V53.1562H109.406ZM111.914 59.0898C111.622 59.0898 111.353 59.0586 111.105 58.9961C110.861 58.9336 110.661 58.8529 110.508 58.7539L110.59 58.2031C111.025 58.4349 111.452 58.5508 111.871 58.5508C112.507 58.5508 112.833 58.3268 112.852 57.8789C112.852 57.6888 112.784 57.5391 112.648 57.4297C112.513 57.3203 112.247 57.1979 111.852 57.0625L111.527 56.9492C111.152 56.8242 110.884 56.6693 110.723 56.4844C110.564 56.2995 110.483 56.069 110.48 55.793C110.48 55.457 110.615 55.1784 110.883 54.957C111.154 54.7357 111.523 54.625 111.992 54.625C112.477 54.625 112.918 54.7188 113.316 54.9062L113.125 55.4062C112.721 55.2396 112.344 55.1562 111.992 55.1562C111.719 55.1562 111.504 55.2109 111.348 55.3203C111.194 55.4271 111.117 55.5781 111.117 55.7734C111.117 55.9401 111.173 56.0677 111.285 56.1562C111.397 56.2448 111.621 56.3464 111.957 56.4609C112.043 56.4922 112.151 56.5286 112.281 56.5703C112.714 56.7109 113.02 56.8776 113.199 57.0703C113.379 57.2604 113.469 57.5182 113.469 57.8438C113.464 58.2396 113.322 58.5469 113.043 58.7656C112.764 58.9818 112.388 59.0898 111.914 59.0898ZM115.73 59.0781C115.309 59.0781 115.009 58.9753 114.832 58.7695C114.655 58.5638 114.561 58.2318 114.551 57.7734V55.1992H113.914L113.941 54.7695L114.547 54.7148L114.77 53.7344L115.199 53.7188V54.7148H116.391V55.1992H115.199V57.6562C115.199 57.9818 115.249 58.2109 115.348 58.3438C115.447 58.4766 115.616 58.543 115.855 58.543C115.941 58.543 116.128 58.5221 116.414 58.4805L116.441 58.9961C116.132 59.0508 115.895 59.0781 115.73 59.0781ZM120.766 53.4688C120.495 53.4688 120.309 53.5469 120.207 53.7031C120.108 53.8594 120.059 54.1302 120.059 54.5156V54.7148H121.09V55.1992H120.059V59H119.406V55.1992H118.711L118.766 54.7695L119.406 54.7148V54.5234C119.411 53.9714 119.514 53.5716 119.715 53.3242C119.918 53.0742 120.245 52.9492 120.695 52.9492C120.87 52.9492 121.083 52.9688 121.336 53.0078L121.293 53.5195C121.061 53.4857 120.885 53.4688 120.766 53.4688ZM122.191 56.8672C122.191 57.375 122.303 57.7826 122.527 58.0898C122.754 58.3945 123.083 58.5469 123.516 58.5469C123.943 58.5469 124.264 58.3945 124.48 58.0898C124.699 57.7852 124.809 57.375 124.809 56.8594C124.809 56.3359 124.701 55.9245 124.484 55.625C124.271 55.3229 123.944 55.1719 123.504 55.1719C123.077 55.1719 122.751 55.3255 122.527 55.6328C122.303 55.9401 122.191 56.3516 122.191 56.8672ZM125.484 56.8555C125.484 57.5195 125.307 58.0586 124.953 58.4727C124.599 58.8841 124.109 59.0898 123.484 59.0898C122.883 59.0898 122.404 58.8815 122.047 58.4648C121.693 58.0482 121.516 57.513 121.516 56.8594C121.516 56.1927 121.694 55.6536 122.051 55.2422C122.408 54.8307 122.897 54.625 123.52 54.625C124.132 54.625 124.612 54.832 124.961 55.2461C125.31 55.6576 125.484 56.194 125.484 56.8555ZM128.332 54.6758C128.449 54.6758 128.556 54.6836 128.652 54.6992L128.629 55.3008C128.509 55.2799 128.405 55.2695 128.316 55.2695C127.952 55.2695 127.655 55.3971 127.426 55.6523C127.199 55.9049 127.086 56.2188 127.086 56.5938V59H126.434C126.431 56.3698 126.43 54.9414 126.43 54.7148H126.973L127.035 55.4844C127.184 55.2422 127.372 55.0469 127.602 54.8984C127.831 54.75 128.074 54.6758 128.332 54.6758ZM130.777 54.7148H131.469L132.82 58.2812L134.023 54.7148H134.715C133.559 57.8971 132.961 59.5378 132.922 59.6367C132.742 60.0872 132.525 60.4167 132.27 60.625C132.014 60.8359 131.678 60.9414 131.262 60.9414C131.137 60.9414 131.005 60.931 130.867 60.9102L130.828 60.3555C130.974 60.3659 131.083 60.3711 131.156 60.3711C131.451 60.3711 131.673 60.3164 131.824 60.207C131.978 60.1003 132.115 59.8984 132.234 59.6016C132.341 59.3281 132.421 59.1172 132.473 58.9688L130.777 54.7148ZM135.715 56.8672C135.715 57.375 135.827 57.7826 136.051 58.0898C136.277 58.3945 136.607 58.5469 137.039 58.5469C137.466 58.5469 137.788 58.3945 138.004 58.0898C138.223 57.7852 138.332 57.375 138.332 56.8594C138.332 56.3359 138.224 55.9245 138.008 55.625C137.794 55.3229 137.467 55.1719 137.027 55.1719C136.6 55.1719 136.275 55.3255 136.051 55.6328C135.827 55.9401 135.715 56.3516 135.715 56.8672ZM139.008 56.8555C139.008 57.5195 138.831 58.0586 138.477 58.4727C138.122 58.8841 137.633 59.0898 137.008 59.0898C136.406 59.0898 135.927 58.8815 135.57 58.4648C135.216 58.0482 135.039 57.513 135.039 56.8594C135.039 56.1927 135.217 55.6536 135.574 55.2422C135.931 54.8307 136.421 54.625 137.043 54.625C137.655 54.625 138.135 54.832 138.484 55.2461C138.833 55.6576 139.008 56.194 139.008 56.8555ZM139.785 57.5703V54.7148H140.441V57.5781C140.441 57.7656 140.467 57.9245 140.52 58.0547C140.574 58.1849 140.651 58.2865 140.75 58.3594C140.852 58.4297 140.965 58.4805 141.09 58.5117C141.217 58.543 141.363 58.5586 141.527 58.5586C141.866 58.5586 142.129 58.4844 142.316 58.3359C142.507 58.1875 142.602 57.9349 142.602 57.5781V54.7148H143.258V57.5703C143.258 57.7891 143.227 57.9857 143.164 58.1602C143.102 58.3346 143.017 58.4805 142.91 58.5977C142.806 58.7122 142.68 58.8073 142.531 58.8828C142.383 58.9583 142.225 59.013 142.059 59.0469C141.895 59.0807 141.717 59.0977 141.527 59.0977C141.34 59.0977 141.163 59.0807 140.996 59.0469C140.829 59.013 140.671 58.9583 140.52 58.8828C140.371 58.8047 140.242 58.7083 140.133 58.5938C140.026 58.4766 139.941 58.3307 139.879 58.1562C139.816 57.9818 139.785 57.7865 139.785 57.5703ZM148.043 59.0898C147.413 59.0898 146.919 58.8854 146.562 58.4766C146.208 58.0677 146.031 57.5326 146.031 56.8711C146.034 56.2044 146.215 55.6641 146.574 55.25C146.936 54.8333 147.431 54.625 148.059 54.625C148.28 54.625 148.493 54.6523 148.699 54.707C148.908 54.7617 149.072 54.8333 149.191 54.9219L149.012 55.4297C148.707 55.2656 148.385 55.1836 148.047 55.1836C147.633 55.1836 147.305 55.3346 147.062 55.6367C146.823 55.9388 146.703 56.3516 146.703 56.875C146.703 57.3854 146.822 57.7904 147.059 58.0898C147.298 58.3867 147.629 58.5352 148.051 58.5352C148.387 58.5352 148.73 58.444 149.082 58.2617L149.164 58.7812C148.88 58.987 148.507 59.0898 148.043 59.0898ZM151.25 58.5625C151.56 58.5625 151.832 58.4779 152.066 58.3086C152.303 58.1367 152.456 57.9062 152.523 57.6172V56.8945C152.51 56.8945 152.431 56.901 152.285 56.9141C152.142 56.9271 152.048 56.9349 152.004 56.9375C151.439 56.987 151.044 57.0794 150.82 57.2148C150.599 57.3503 150.488 57.5677 150.488 57.8672C150.488 58.0964 150.556 58.2695 150.691 58.3867C150.827 58.5039 151.013 58.5625 151.25 58.5625ZM152.668 59C152.629 58.8333 152.591 58.6536 152.555 58.4609C152.318 58.6979 152.095 58.862 151.887 58.9531C151.678 59.0443 151.434 59.0898 151.152 59.0898C150.751 59.0898 150.428 58.9857 150.184 58.7773C149.941 58.5664 149.82 58.2643 149.82 57.8711C149.82 57.4336 149.986 57.1094 150.316 56.8984C150.65 56.6875 151.129 56.556 151.754 56.5039C151.84 56.4961 151.969 56.4857 152.141 56.4727C152.315 56.457 152.445 56.4453 152.531 56.4375V56.0586C152.531 55.7565 152.461 55.5326 152.32 55.3867C152.18 55.2409 151.958 55.168 151.656 55.168C151.234 55.168 150.809 55.2721 150.379 55.4805C150.366 55.4492 150.332 55.3594 150.277 55.2109C150.223 55.0599 150.194 54.9818 150.191 54.9766C150.382 54.8698 150.607 54.7852 150.867 54.7227C151.13 54.6576 151.397 54.625 151.668 54.625C152.202 54.625 152.586 54.7422 152.82 54.9766C153.057 55.2083 153.176 55.6042 153.176 56.1641V59H152.668ZM156.223 54.6758C156.34 54.6758 156.447 54.6836 156.543 54.6992L156.52 55.3008C156.4 55.2799 156.296 55.2695 156.207 55.2695C155.842 55.2695 155.546 55.3971 155.316 55.6523C155.09 55.9049 154.977 56.2188 154.977 56.5938V59H154.324C154.322 56.3698 154.32 54.9414 154.32 54.7148H154.863L154.926 55.4844C155.074 55.2422 155.263 55.0469 155.492 54.8984C155.721 54.75 155.965 54.6758 156.223 54.6758ZM159.605 55.5078C159.415 55.2786 159.154 55.1641 158.82 55.1641C158.487 55.1641 158.215 55.2826 158.004 55.5195C157.793 55.7539 157.669 56.0755 157.633 56.4844H159.895C159.895 56.0599 159.798 55.7344 159.605 55.5078ZM158.949 59.0898C158.327 59.0898 157.836 58.8919 157.477 58.4961C157.12 58.1003 156.941 57.5586 156.941 56.8711C156.941 56.207 157.115 55.6693 157.461 55.2578C157.807 54.8438 158.263 54.6328 158.828 54.625C159.359 54.625 159.78 54.8073 160.09 55.1719C160.402 55.5339 160.559 56.0182 160.559 56.625C160.559 56.6562 160.557 56.7135 160.555 56.7969C160.555 56.8802 160.555 56.9401 160.555 56.9766H157.613C157.621 57.4635 157.746 57.8438 157.988 58.1172C158.233 58.388 158.561 58.5234 158.973 58.5234C159.426 58.5234 159.88 58.4036 160.336 58.1641L160.438 58.6914C160.003 58.957 159.507 59.0898 158.949 59.0898Z" fill="#808080"/>
<path d="M62.2656 121.762V123.715C62.3724 123.715 62.5924 123.717 62.9258 123.723C63.2617 123.728 63.5208 123.73 63.7031 123.73C64.2005 123.73 64.5469 123.648 64.7422 123.484C64.9375 123.318 65.0352 123.055 65.0352 122.695C65.0352 122.38 64.9414 122.146 64.7539 121.992C64.5664 121.839 64.2526 121.762 63.8125 121.762H62.2656ZM65.9688 127H65.1875L64.3906 125.188C64.1745 124.701 64.0365 124.408 63.9766 124.309C63.7865 124.322 63.5612 124.328 63.3008 124.328L62.2656 124.297V127H61.5742V121.156H63.4219C63.6354 121.156 63.8242 121.161 63.9883 121.172C64.1523 121.182 64.3151 121.202 64.4766 121.23C64.6406 121.257 64.7826 121.294 64.9023 121.344C65.0221 121.391 65.1341 121.453 65.2383 121.531C65.3424 121.607 65.4258 121.698 65.4883 121.805C65.5534 121.911 65.6042 122.039 65.6406 122.188C65.6771 122.333 65.6953 122.499 65.6953 122.684C65.6953 123.048 65.599 123.362 65.4062 123.625C65.2161 123.888 64.9453 124.07 64.5938 124.172C64.5938 124.177 64.6198 124.224 64.6719 124.312C64.724 124.401 64.7852 124.51 64.8555 124.641C64.9284 124.768 64.9844 124.875 65.0234 124.961L65.9688 127ZM69.2617 123.508C69.0716 123.279 68.8099 123.164 68.4766 123.164C68.1432 123.164 67.8711 123.283 67.6602 123.52C67.4492 123.754 67.3255 124.076 67.2891 124.484H69.5508C69.5508 124.06 69.4544 123.734 69.2617 123.508ZM68.6055 127.09C67.9831 127.09 67.4922 126.892 67.1328 126.496C66.776 126.1 66.5977 125.559 66.5977 124.871C66.5977 124.207 66.7708 123.669 67.1172 123.258C67.4635 122.844 67.9193 122.633 68.4844 122.625C69.0156 122.625 69.4362 122.807 69.7461 123.172C70.0586 123.534 70.2148 124.018 70.2148 124.625C70.2148 124.656 70.2135 124.714 70.2109 124.797C70.2109 124.88 70.2109 124.94 70.2109 124.977H67.2695C67.2773 125.464 67.4023 125.844 67.6445 126.117C67.8893 126.388 68.2174 126.523 68.6289 126.523C69.082 126.523 69.5365 126.404 69.9922 126.164L70.0938 126.691C69.6589 126.957 69.1628 127.09 68.6055 127.09ZM72.2734 127.078C71.8568 127.078 71.5612 126.966 71.3867 126.742C71.2148 126.518 71.1289 126.129 71.1289 125.574V121.051L71.7773 121.012V125.316C71.7773 125.493 71.7786 125.635 71.7812 125.742C71.7865 125.849 71.7969 125.954 71.8125 126.059C71.8281 126.16 71.849 126.237 71.875 126.289C71.901 126.341 71.9388 126.389 71.9883 126.434C72.0378 126.475 72.0964 126.504 72.1641 126.52C72.2344 126.533 72.3203 126.539 72.4219 126.539C72.5052 126.539 72.6693 126.523 72.9141 126.492L72.9492 127.012C72.681 127.056 72.4557 127.078 72.2734 127.078ZM74.5859 126.562C74.8958 126.562 75.168 126.478 75.4023 126.309C75.6393 126.137 75.7917 125.906 75.8594 125.617V124.895C75.8464 124.895 75.7669 124.901 75.6211 124.914C75.4779 124.927 75.3841 124.935 75.3398 124.938C74.7747 124.987 74.3802 125.079 74.1562 125.215C73.9349 125.35 73.8242 125.568 73.8242 125.867C73.8242 126.096 73.8919 126.27 74.0273 126.387C74.1628 126.504 74.349 126.562 74.5859 126.562ZM76.0039 127C75.9648 126.833 75.9271 126.654 75.8906 126.461C75.6536 126.698 75.431 126.862 75.2227 126.953C75.0143 127.044 74.7695 127.09 74.4883 127.09C74.0872 127.09 73.7643 126.986 73.5195 126.777C73.2773 126.566 73.1562 126.264 73.1562 125.871C73.1562 125.434 73.3216 125.109 73.6523 124.898C73.9857 124.688 74.4648 124.556 75.0898 124.504C75.1758 124.496 75.3047 124.486 75.4766 124.473C75.651 124.457 75.7812 124.445 75.8672 124.438V124.059C75.8672 123.757 75.7969 123.533 75.6562 123.387C75.5156 123.241 75.2943 123.168 74.9922 123.168C74.5703 123.168 74.1445 123.272 73.7148 123.48C73.7018 123.449 73.668 123.359 73.6133 123.211C73.5586 123.06 73.5299 122.982 73.5273 122.977C73.7174 122.87 73.9427 122.785 74.2031 122.723C74.4661 122.658 74.7331 122.625 75.0039 122.625C75.5378 122.625 75.9219 122.742 76.1562 122.977C76.3932 123.208 76.5117 123.604 76.5117 124.164V127H76.0039ZM79.0039 127.078C78.582 127.078 78.2826 126.975 78.1055 126.77C77.9284 126.564 77.8346 126.232 77.8242 125.773V123.199H77.1875L77.2148 122.77L77.8203 122.715L78.043 121.734L78.4727 121.719V122.715H79.6641V123.199H78.4727V125.656C78.4727 125.982 78.5221 126.211 78.6211 126.344C78.7201 126.477 78.8893 126.543 79.1289 126.543C79.2148 126.543 79.401 126.522 79.6875 126.48L79.7148 126.996C79.4049 127.051 79.168 127.078 79.0039 127.078ZM82.832 123.508C82.6419 123.279 82.3802 123.164 82.0469 123.164C81.7135 123.164 81.4414 123.283 81.2305 123.52C81.0195 123.754 80.8958 124.076 80.8594 124.484H83.1211C83.1211 124.06 83.0247 123.734 82.832 123.508ZM82.1758 127.09C81.5534 127.09 81.0625 126.892 80.7031 126.496C80.3464 126.1 80.168 125.559 80.168 124.871C80.168 124.207 80.3411 123.669 80.6875 123.258C81.0339 122.844 81.4896 122.633 82.0547 122.625C82.5859 122.625 83.0065 122.807 83.3164 123.172C83.6289 123.534 83.7852 124.018 83.7852 124.625C83.7852 124.656 83.7839 124.714 83.7812 124.797C83.7812 124.88 83.7812 124.94 83.7812 124.977H80.8398C80.8477 125.464 80.9727 125.844 81.2148 126.117C81.4596 126.388 81.7878 126.523 82.1992 126.523C82.6523 126.523 83.1068 126.404 83.5625 126.164L83.6641 126.691C83.2292 126.957 82.7331 127.09 82.1758 127.09ZM86.3633 126.527C86.793 126.527 87.112 126.389 87.3203 126.113C87.5312 125.837 87.6367 125.443 87.6367 124.93C87.6367 124.352 87.5352 123.917 87.332 123.625C87.1315 123.331 86.806 123.184 86.3555 123.184C86.1549 123.184 85.9779 123.227 85.8242 123.312C85.6706 123.398 85.5469 123.518 85.4531 123.672C85.3594 123.826 85.2878 124.003 85.2383 124.203C85.1914 124.401 85.168 124.618 85.168 124.855C85.168 125.189 85.2083 125.478 85.2891 125.723C85.3724 125.967 85.5052 126.163 85.6875 126.309C85.8698 126.454 86.0951 126.527 86.3633 126.527ZM87.6484 126.379C87.5078 126.595 87.3203 126.767 87.0859 126.895C86.8516 127.022 86.5898 127.086 86.3008 127.086C85.7357 127.086 85.293 126.885 84.9727 126.484C84.6523 126.081 84.4922 125.533 84.4922 124.84C84.4922 124.178 84.6549 123.645 84.9805 123.238C85.306 122.829 85.7422 122.625 86.2891 122.625C86.5729 122.625 86.8398 122.688 87.0898 122.812C87.3424 122.935 87.5312 123.1 87.6562 123.309L87.6445 122.938V121.051L88.2891 121.012V127H87.7344L87.6484 126.379ZM92.793 127.078C92.3711 127.078 92.0716 126.975 91.8945 126.77C91.7174 126.564 91.6237 126.232 91.6133 125.773V123.199H90.9766L91.0039 122.77L91.6094 122.715L91.832 121.734L92.2617 121.719V122.715H93.4531V123.199H92.2617V125.656C92.2617 125.982 92.3112 126.211 92.4102 126.344C92.5091 126.477 92.6784 126.543 92.918 126.543C93.0039 126.543 93.1901 126.522 93.4766 126.48L93.5039 126.996C93.194 127.051 92.957 127.078 92.793 127.078ZM94.6289 124.867C94.6289 125.375 94.7409 125.783 94.9648 126.09C95.1914 126.395 95.5208 126.547 95.9531 126.547C96.3802 126.547 96.7018 126.395 96.918 126.09C97.1367 125.785 97.2461 125.375 97.2461 124.859C97.2461 124.336 97.138 123.924 96.9219 123.625C96.7083 123.323 96.3815 123.172 95.9414 123.172C95.5143 123.172 95.1888 123.326 94.9648 123.633C94.7409 123.94 94.6289 124.352 94.6289 124.867ZM97.9219 124.855C97.9219 125.52 97.7448 126.059 97.3906 126.473C97.0365 126.884 96.5469 127.09 95.9219 127.09C95.3203 127.09 94.8411 126.882 94.4844 126.465C94.1302 126.048 93.9531 125.513 93.9531 124.859C93.9531 124.193 94.1315 123.654 94.4883 123.242C94.8451 122.831 95.3346 122.625 95.957 122.625C96.569 122.625 97.0495 122.832 97.3984 123.246C97.7474 123.658 97.9219 124.194 97.9219 124.855ZM100.301 122.715H100.992L102.344 126.281L103.547 122.715H104.238C103.082 125.897 102.484 127.538 102.445 127.637C102.266 128.087 102.048 128.417 101.793 128.625C101.538 128.836 101.202 128.941 100.785 128.941C100.66 128.941 100.529 128.931 100.391 128.91L100.352 128.355C100.497 128.366 100.607 128.371 100.68 128.371C100.974 128.371 101.197 128.316 101.348 128.207C101.501 128.1 101.638 127.898 101.758 127.602C101.865 127.328 101.944 127.117 101.996 126.969L100.301 122.715ZM105.238 124.867C105.238 125.375 105.35 125.783 105.574 126.09C105.801 126.395 106.13 126.547 106.562 126.547C106.99 126.547 107.311 126.395 107.527 126.09C107.746 125.785 107.855 125.375 107.855 124.859C107.855 124.336 107.747 123.924 107.531 123.625C107.318 123.323 106.991 123.172 106.551 123.172C106.124 123.172 105.798 123.326 105.574 123.633C105.35 123.94 105.238 124.352 105.238 124.867ZM108.531 124.855C108.531 125.52 108.354 126.059 108 126.473C107.646 126.884 107.156 127.09 106.531 127.09C105.93 127.09 105.451 126.882 105.094 126.465C104.74 126.048 104.562 125.513 104.562 124.859C104.562 124.193 104.741 123.654 105.098 123.242C105.454 122.831 105.944 122.625 106.566 122.625C107.178 122.625 107.659 122.832 108.008 123.246C108.357 123.658 108.531 124.194 108.531 124.855ZM109.309 125.57V122.715H109.965V125.578C109.965 125.766 109.991 125.924 110.043 126.055C110.098 126.185 110.174 126.286 110.273 126.359C110.375 126.43 110.488 126.48 110.613 126.512C110.741 126.543 110.887 126.559 111.051 126.559C111.389 126.559 111.652 126.484 111.84 126.336C112.03 126.188 112.125 125.935 112.125 125.578V122.715H112.781V125.57C112.781 125.789 112.75 125.986 112.688 126.16C112.625 126.335 112.54 126.48 112.434 126.598C112.329 126.712 112.203 126.807 112.055 126.883C111.906 126.958 111.749 127.013 111.582 127.047C111.418 127.081 111.241 127.098 111.051 127.098C110.863 127.098 110.686 127.081 110.52 127.047C110.353 127.013 110.194 126.958 110.043 126.883C109.895 126.805 109.766 126.708 109.656 126.594C109.549 126.477 109.465 126.331 109.402 126.156C109.34 125.982 109.309 125.786 109.309 125.57ZM115.676 122.676C115.793 122.676 115.9 122.684 115.996 122.699L115.973 123.301C115.853 123.28 115.749 123.27 115.66 123.27C115.296 123.27 114.999 123.397 114.77 123.652C114.543 123.905 114.43 124.219 114.43 124.594V127H113.777C113.775 124.37 113.773 122.941 113.773 122.715H114.316L114.379 123.484C114.527 123.242 114.716 123.047 114.945 122.898C115.174 122.75 115.418 122.676 115.676 122.676ZM118.668 128.859V122.715H119.242L119.305 123.297C119.68 122.849 120.13 122.625 120.656 122.625C121.047 122.625 121.378 122.723 121.648 122.918C121.919 123.113 122.118 123.378 122.246 123.711C122.376 124.044 122.441 124.434 122.441 124.879C122.441 125.306 122.371 125.686 122.23 126.02C122.09 126.35 121.883 126.612 121.609 126.805C121.339 126.995 121.021 127.09 120.656 127.09C120.38 127.09 120.121 127.029 119.879 126.906C119.637 126.781 119.443 126.617 119.297 126.414C119.312 126.695 119.32 126.969 119.32 127.234V128.816L118.668 128.859ZM120.566 126.539C120.764 126.539 120.941 126.495 121.098 126.406C121.254 126.315 121.38 126.191 121.477 126.035C121.573 125.879 121.646 125.702 121.695 125.504C121.745 125.303 121.77 125.087 121.77 124.855C121.77 124.366 121.667 123.965 121.461 123.652C121.255 123.337 120.954 123.18 120.559 123.18C119.73 123.18 119.316 123.715 119.316 124.785C119.316 125.366 119.413 125.803 119.605 126.098C119.801 126.392 120.121 126.539 120.566 126.539ZM125.285 122.676C125.402 122.676 125.509 122.684 125.605 122.699L125.582 123.301C125.462 123.28 125.358 123.27 125.27 123.27C124.905 123.27 124.608 123.397 124.379 123.652C124.152 123.905 124.039 124.219 124.039 124.594V127H123.387C123.384 124.37 123.383 122.941 123.383 122.715H123.926L123.988 123.484C124.137 123.242 124.326 123.047 124.555 122.898C124.784 122.75 125.027 122.676 125.285 122.676ZM126.676 124.867C126.676 125.375 126.788 125.783 127.012 126.09C127.238 126.395 127.568 126.547 128 126.547C128.427 126.547 128.749 126.395 128.965 126.09C129.184 125.785 129.293 125.375 129.293 124.859C129.293 124.336 129.185 123.924 128.969 123.625C128.755 123.323 128.428 123.172 127.988 123.172C127.561 123.172 127.236 123.326 127.012 123.633C126.788 123.94 126.676 124.352 126.676 124.867ZM129.969 124.855C129.969 125.52 129.792 126.059 129.438 126.473C129.083 126.884 128.594 127.09 127.969 127.09C127.367 127.09 126.888 126.882 126.531 126.465C126.177 126.048 126 125.513 126 124.859C126 124.193 126.178 123.654 126.535 123.242C126.892 122.831 127.382 122.625 128.004 122.625C128.616 122.625 129.096 122.832 129.445 123.246C129.794 123.658 129.969 124.194 129.969 124.855ZM132.844 123.168C132.43 123.168 132.112 123.311 131.891 123.598C131.672 123.882 131.562 124.299 131.562 124.852C131.562 125.982 131.988 126.547 132.84 126.547C133.051 126.547 133.236 126.504 133.395 126.418C133.556 126.329 133.682 126.207 133.773 126.051C133.867 125.892 133.936 125.714 133.98 125.516C134.027 125.318 134.051 125.098 134.051 124.855C134.051 124.527 134.012 124.241 133.934 123.996C133.858 123.751 133.728 123.552 133.543 123.398C133.358 123.245 133.125 123.168 132.844 123.168ZM132.91 122.625C133.29 122.625 133.618 122.721 133.895 122.914C134.171 123.107 134.378 123.368 134.516 123.699C134.654 124.03 134.723 124.409 134.723 124.836C134.723 125.279 134.654 125.668 134.516 126.004C134.38 126.34 134.173 126.605 133.895 126.801C133.618 126.993 133.288 127.09 132.902 127.09C132.618 127.09 132.359 127.029 132.125 126.906C131.891 126.784 131.695 126.617 131.539 126.406L131.473 127H130.914V121.051L131.566 121.012V122.43C131.566 122.779 131.561 123.078 131.551 123.328C131.702 123.112 131.897 122.941 132.137 122.816C132.379 122.689 132.637 122.625 132.91 122.625ZM136.797 127.078C136.38 127.078 136.085 126.966 135.91 126.742C135.738 126.518 135.652 126.129 135.652 125.574V121.051L136.301 121.012V125.316C136.301 125.493 136.302 125.635 136.305 125.742C136.31 125.849 136.32 125.954 136.336 126.059C136.352 126.16 136.372 126.237 136.398 126.289C136.424 126.341 136.462 126.389 136.512 126.434C136.561 126.475 136.62 126.504 136.688 126.52C136.758 126.533 136.844 126.539 136.945 126.539C137.029 126.539 137.193 126.523 137.438 126.492L137.473 127.012C137.204 127.056 136.979 127.078 136.797 127.078ZM140.34 123.508C140.15 123.279 139.888 123.164 139.555 123.164C139.221 123.164 138.949 123.283 138.738 123.52C138.527 123.754 138.404 124.076 138.367 124.484H140.629C140.629 124.06 140.533 123.734 140.34 123.508ZM139.684 127.09C139.061 127.09 138.57 126.892 138.211 126.496C137.854 126.1 137.676 125.559 137.676 124.871C137.676 124.207 137.849 123.669 138.195 123.258C138.542 122.844 138.997 122.633 139.562 122.625C140.094 122.625 140.514 122.807 140.824 123.172C141.137 123.534 141.293 124.018 141.293 124.625C141.293 124.656 141.292 124.714 141.289 124.797C141.289 124.88 141.289 124.94 141.289 124.977H138.348C138.355 125.464 138.48 125.844 138.723 126.117C138.967 126.388 139.296 126.523 139.707 126.523C140.16 126.523 140.615 126.404 141.07 126.164L141.172 126.691C140.737 126.957 140.241 127.09 139.684 127.09ZM147.641 127V124.77C147.641 124.561 147.635 124.387 147.625 124.246C147.617 124.105 147.596 123.962 147.562 123.816C147.531 123.671 147.486 123.556 147.426 123.473C147.368 123.387 147.288 123.318 147.184 123.266C147.079 123.211 146.954 123.184 146.809 123.184C146.522 123.184 146.277 123.26 146.074 123.414C145.874 123.568 145.73 123.784 145.645 124.062C145.621 124.25 145.609 124.451 145.609 124.664V127H144.957V124.699C144.957 124.507 144.951 124.34 144.938 124.199C144.924 124.056 144.9 123.918 144.863 123.785C144.827 123.65 144.777 123.54 144.715 123.457C144.655 123.374 144.574 123.307 144.473 123.258C144.371 123.208 144.25 123.184 144.109 123.184C143.797 123.184 143.534 123.263 143.32 123.422C143.109 123.581 142.967 123.792 142.895 124.055C142.871 124.255 142.859 124.473 142.859 124.707V127H142.207C142.202 124.32 142.199 122.892 142.199 122.715H142.746L142.828 123.328C142.958 123.13 143.143 122.964 143.383 122.828C143.622 122.693 143.895 122.625 144.199 122.625C144.358 122.625 144.504 122.642 144.637 122.676C144.772 122.707 144.884 122.747 144.973 122.797C145.064 122.846 145.145 122.906 145.215 122.977C145.285 123.044 145.34 123.112 145.379 123.18C145.418 123.245 145.451 123.314 145.477 123.387C145.789 122.879 146.267 122.625 146.91 122.625C147.387 122.625 147.736 122.762 147.957 123.035C148.181 123.306 148.293 123.708 148.293 124.242V127H147.641ZM150.406 127.09C150.115 127.09 149.845 127.059 149.598 126.996C149.353 126.934 149.154 126.853 149 126.754L149.082 126.203C149.517 126.435 149.944 126.551 150.363 126.551C150.999 126.551 151.326 126.327 151.344 125.879C151.344 125.689 151.276 125.539 151.141 125.43C151.005 125.32 150.74 125.198 150.344 125.062L150.02 124.949C149.645 124.824 149.376 124.669 149.215 124.484C149.056 124.299 148.975 124.069 148.973 123.793C148.973 123.457 149.107 123.178 149.375 122.957C149.646 122.736 150.016 122.625 150.484 122.625C150.969 122.625 151.41 122.719 151.809 122.906L151.617 123.406C151.214 123.24 150.836 123.156 150.484 123.156C150.211 123.156 149.996 123.211 149.84 123.32C149.686 123.427 149.609 123.578 149.609 123.773C149.609 123.94 149.665 124.068 149.777 124.156C149.889 124.245 150.113 124.346 150.449 124.461C150.535 124.492 150.643 124.529 150.773 124.57C151.206 124.711 151.512 124.878 151.691 125.07C151.871 125.26 151.961 125.518 151.961 125.844C151.956 126.24 151.814 126.547 151.535 126.766C151.257 126.982 150.88 127.09 150.406 127.09Z" fill="#808080"/>
<path d="M63.3086 193.055L64.9336 190.223H65.668L63.6289 193.695V196H62.9453V193.711L60.9961 190.223H61.7266L63.3086 193.055ZM66.1758 193.867C66.1758 194.375 66.2878 194.783 66.5117 195.09C66.7383 195.395 67.0677 195.547 67.5 195.547C67.9271 195.547 68.2487 195.395 68.4648 195.09C68.6836 194.785 68.793 194.375 68.793 193.859C68.793 193.336 68.6849 192.924 68.4688 192.625C68.2552 192.323 67.9284 192.172 67.4883 192.172C67.0612 192.172 66.7357 192.326 66.5117 192.633C66.2878 192.94 66.1758 193.352 66.1758 193.867ZM69.4688 193.855C69.4688 194.52 69.2917 195.059 68.9375 195.473C68.5833 195.884 68.0938 196.09 67.4688 196.09C66.8672 196.09 66.388 195.882 66.0312 195.465C65.6771 195.048 65.5 194.513 65.5 193.859C65.5 193.193 65.6784 192.654 66.0352 192.242C66.3919 191.831 66.8815 191.625 67.5039 191.625C68.1159 191.625 68.5964 191.832 68.9453 192.246C69.2943 192.658 69.4688 193.194 69.4688 193.855ZM70.2461 194.57V191.715H70.9023V194.578C70.9023 194.766 70.9284 194.924 70.9805 195.055C71.0352 195.185 71.112 195.286 71.2109 195.359C71.3125 195.43 71.4258 195.48 71.5508 195.512C71.6784 195.543 71.8242 195.559 71.9883 195.559C72.3268 195.559 72.5898 195.484 72.7773 195.336C72.9674 195.188 73.0625 194.935 73.0625 194.578V191.715H73.7188V194.57C73.7188 194.789 73.6875 194.986 73.625 195.16C73.5625 195.335 73.4779 195.48 73.3711 195.598C73.2669 195.712 73.1406 195.807 72.9922 195.883C72.8438 195.958 72.6862 196.013 72.5195 196.047C72.3555 196.081 72.1784 196.098 71.9883 196.098C71.8008 196.098 71.6237 196.081 71.457 196.047C71.2904 196.013 71.1315 195.958 70.9805 195.883C70.832 195.805 70.7031 195.708 70.5938 195.594C70.487 195.477 70.4023 195.331 70.3398 195.156C70.2773 194.982 70.2461 194.786 70.2461 194.57ZM76.7031 195.047C77.3047 195.344 77.9492 195.492 78.6367 195.492C79.4831 195.492 79.9062 195.107 79.9062 194.336C79.9062 194.086 79.8385 193.884 79.7031 193.73C79.5703 193.574 79.3268 193.452 78.9727 193.363L77.8242 193.074C76.9466 192.853 76.5078 192.384 76.5078 191.668C76.5078 191.118 76.6966 190.711 77.0742 190.445C77.4518 190.177 77.974 190.043 78.6406 190.043C78.9896 190.043 79.3164 190.081 79.6211 190.156C79.9258 190.232 80.181 190.333 80.3867 190.461L80.1914 191.012C80.0169 190.915 79.7852 190.829 79.4961 190.754C79.2096 190.678 78.9193 190.641 78.625 190.641C77.6823 190.641 77.2109 190.967 77.2109 191.621C77.2109 191.842 77.2826 192.021 77.4258 192.156C77.5716 192.289 77.7891 192.391 78.0781 192.461L79.1758 192.727C79.6445 192.839 80 193.018 80.2422 193.266C80.4844 193.51 80.6055 193.859 80.6055 194.312C80.6055 194.901 80.4245 195.345 80.0625 195.645C79.7031 195.941 79.2135 196.09 78.5938 196.09C78.1302 196.09 77.7174 196.043 77.3555 195.949C76.9961 195.853 76.7109 195.74 76.5 195.609L76.7031 195.047ZM84.375 196V193.41C84.375 192.98 84.306 192.668 84.168 192.473C84.0326 192.277 83.7943 192.18 83.4531 192.18C83.125 192.18 82.8477 192.262 82.6211 192.426C82.3971 192.59 82.2513 192.802 82.1836 193.062C82.1602 193.258 82.1484 193.475 82.1484 193.715V196H81.4961V190.051L82.1484 190.012V191.754C82.1484 191.902 82.1432 192.086 82.1328 192.305C82.5 191.852 82.987 191.625 83.5938 191.625C84.5495 191.625 85.0273 192.186 85.0273 193.309V196H84.375ZM86.3086 193.867C86.3086 194.375 86.4206 194.783 86.6445 195.09C86.8711 195.395 87.2005 195.547 87.6328 195.547C88.0599 195.547 88.3815 195.395 88.5977 195.09C88.8164 194.785 88.9258 194.375 88.9258 193.859C88.9258 193.336 88.8177 192.924 88.6016 192.625C88.388 192.323 88.0612 192.172 87.6211 192.172C87.194 192.172 86.8685 192.326 86.6445 192.633C86.4206 192.94 86.3086 193.352 86.3086 193.867ZM89.6016 193.855C89.6016 194.52 89.4245 195.059 89.0703 195.473C88.7161 195.884 88.2266 196.09 87.6016 196.09C87 196.09 86.5208 195.882 86.1641 195.465C85.8099 195.048 85.6328 194.513 85.6328 193.859C85.6328 193.193 85.8112 192.654 86.168 192.242C86.5247 191.831 87.0143 191.625 87.6367 191.625C88.2487 191.625 88.7292 191.832 89.0781 192.246C89.4271 192.658 89.6016 193.194 89.6016 193.855ZM90.3789 194.57V191.715H91.0352V194.578C91.0352 194.766 91.0612 194.924 91.1133 195.055C91.168 195.185 91.2448 195.286 91.3438 195.359C91.4453 195.43 91.5586 195.48 91.6836 195.512C91.8112 195.543 91.957 195.559 92.1211 195.559C92.4596 195.559 92.7227 195.484 92.9102 195.336C93.1003 195.188 93.1953 194.935 93.1953 194.578V191.715H93.8516V194.57C93.8516 194.789 93.8203 194.986 93.7578 195.16C93.6953 195.335 93.6107 195.48 93.5039 195.598C93.3997 195.712 93.2734 195.807 93.125 195.883C92.9766 195.958 92.819 196.013 92.6523 196.047C92.4883 196.081 92.3112 196.098 92.1211 196.098C91.9336 196.098 91.7565 196.081 91.5898 196.047C91.4232 196.013 91.2643 195.958 91.1133 195.883C90.9648 195.805 90.8359 195.708 90.7266 195.594C90.6198 195.477 90.5352 195.331 90.4727 195.156C90.4102 194.982 90.3789 194.786 90.3789 194.57ZM95.9766 196.078C95.5599 196.078 95.2643 195.966 95.0898 195.742C94.918 195.518 94.832 195.129 94.832 194.574V190.051L95.4805 190.012V194.316C95.4805 194.493 95.4818 194.635 95.4844 194.742C95.4896 194.849 95.5 194.954 95.5156 195.059C95.5312 195.16 95.5521 195.237 95.5781 195.289C95.6042 195.341 95.6419 195.389 95.6914 195.434C95.7409 195.475 95.7995 195.504 95.8672 195.52C95.9375 195.533 96.0234 195.539 96.125 195.539C96.2083 195.539 96.3724 195.523 96.6172 195.492L96.6523 196.012C96.3841 196.056 96.1589 196.078 95.9766 196.078ZM98.7227 195.527C99.1523 195.527 99.4714 195.389 99.6797 195.113C99.8906 194.837 99.9961 194.443 99.9961 193.93C99.9961 193.352 99.8945 192.917 99.6914 192.625C99.4909 192.331 99.1654 192.184 98.7148 192.184C98.5143 192.184 98.3372 192.227 98.1836 192.312C98.0299 192.398 97.9062 192.518 97.8125 192.672C97.7188 192.826 97.6471 193.003 97.5977 193.203C97.5508 193.401 97.5273 193.618 97.5273 193.855C97.5273 194.189 97.5677 194.478 97.6484 194.723C97.7318 194.967 97.8646 195.163 98.0469 195.309C98.2292 195.454 98.4544 195.527 98.7227 195.527ZM100.008 195.379C99.8672 195.595 99.6797 195.767 99.4453 195.895C99.2109 196.022 98.9492 196.086 98.6602 196.086C98.0951 196.086 97.6523 195.885 97.332 195.484C97.0117 195.081 96.8516 194.533 96.8516 193.84C96.8516 193.178 97.0143 192.645 97.3398 192.238C97.6654 191.829 98.1016 191.625 98.6484 191.625C98.9323 191.625 99.1992 191.688 99.4492 191.812C99.7018 191.935 99.8906 192.1 100.016 192.309L100.004 191.938V190.051L100.648 190.012V196H100.094L100.008 195.379ZM105.734 192.168C105.32 192.168 105.003 192.311 104.781 192.598C104.562 192.882 104.453 193.299 104.453 193.852C104.453 194.982 104.879 195.547 105.73 195.547C105.941 195.547 106.126 195.504 106.285 195.418C106.447 195.329 106.573 195.207 106.664 195.051C106.758 194.892 106.827 194.714 106.871 194.516C106.918 194.318 106.941 194.098 106.941 193.855C106.941 193.527 106.902 193.241 106.824 192.996C106.749 192.751 106.618 192.552 106.434 192.398C106.249 192.245 106.016 192.168 105.734 192.168ZM105.801 191.625C106.181 191.625 106.509 191.721 106.785 191.914C107.061 192.107 107.268 192.368 107.406 192.699C107.544 193.03 107.613 193.409 107.613 193.836C107.613 194.279 107.544 194.668 107.406 195.004C107.271 195.34 107.064 195.605 106.785 195.801C106.509 195.993 106.178 196.09 105.793 196.09C105.509 196.09 105.25 196.029 105.016 195.906C104.781 195.784 104.586 195.617 104.43 195.406L104.363 196H103.805V190.051L104.457 190.012V191.43C104.457 191.779 104.452 192.078 104.441 192.328C104.592 192.112 104.788 191.941 105.027 191.816C105.27 191.689 105.527 191.625 105.801 191.625ZM111.004 192.508C110.814 192.279 110.552 192.164 110.219 192.164C109.885 192.164 109.613 192.283 109.402 192.52C109.191 192.754 109.068 193.076 109.031 193.484H111.293C111.293 193.06 111.197 192.734 111.004 192.508ZM110.348 196.09C109.725 196.09 109.234 195.892 108.875 195.496C108.518 195.1 108.34 194.559 108.34 193.871C108.34 193.207 108.513 192.669 108.859 192.258C109.206 191.844 109.661 191.633 110.227 191.625C110.758 191.625 111.178 191.807 111.488 192.172C111.801 192.534 111.957 193.018 111.957 193.625C111.957 193.656 111.956 193.714 111.953 193.797C111.953 193.88 111.953 193.94 111.953 193.977H109.012C109.02 194.464 109.145 194.844 109.387 195.117C109.632 195.388 109.96 195.523 110.371 195.523C110.824 195.523 111.279 195.404 111.734 195.164L111.836 195.691C111.401 195.957 110.905 196.09 110.348 196.09ZM116.535 195.527C116.965 195.527 117.284 195.389 117.492 195.113C117.703 194.837 117.809 194.443 117.809 193.93C117.809 193.352 117.707 192.917 117.504 192.625C117.303 192.331 116.978 192.184 116.527 192.184C116.327 192.184 116.15 192.227 115.996 192.312C115.842 192.398 115.719 192.518 115.625 192.672C115.531 192.826 115.46 193.003 115.41 193.203C115.363 193.401 115.34 193.618 115.34 193.855C115.34 194.189 115.38 194.478 115.461 194.723C115.544 194.967 115.677 195.163 115.859 195.309C116.042 195.454 116.267 195.527 116.535 195.527ZM117.82 195.379C117.68 195.595 117.492 195.767 117.258 195.895C117.023 196.022 116.762 196.086 116.473 196.086C115.908 196.086 115.465 195.885 115.145 195.484C114.824 195.081 114.664 194.533 114.664 193.84C114.664 193.178 114.827 192.645 115.152 192.238C115.478 191.829 115.914 191.625 116.461 191.625C116.745 191.625 117.012 191.688 117.262 191.812C117.514 191.935 117.703 192.1 117.828 192.309L117.816 191.938V190.051L118.461 190.012V196H117.906L117.82 195.379ZM120.074 193.867C120.074 194.375 120.186 194.783 120.41 195.09C120.637 195.395 120.966 195.547 121.398 195.547C121.826 195.547 122.147 195.395 122.363 195.09C122.582 194.785 122.691 194.375 122.691 193.859C122.691 193.336 122.583 192.924 122.367 192.625C122.154 192.323 121.827 192.172 121.387 192.172C120.96 192.172 120.634 192.326 120.41 192.633C120.186 192.94 120.074 193.352 120.074 193.867ZM123.367 193.855C123.367 194.52 123.19 195.059 122.836 195.473C122.482 195.884 121.992 196.09 121.367 196.09C120.766 196.09 120.286 195.882 119.93 195.465C119.576 195.048 119.398 194.513 119.398 193.859C119.398 193.193 119.577 192.654 119.934 192.242C120.29 191.831 120.78 191.625 121.402 191.625C122.014 191.625 122.495 191.832 122.844 192.246C123.193 192.658 123.367 193.194 123.367 193.855ZM125.062 191.715V196H124.406V191.715H125.062ZM125.062 190.156V190.93H124.406V190.156H125.062ZM126.293 196V191.715H126.84L126.922 192.328C127.091 192.117 127.302 191.948 127.555 191.82C127.81 191.69 128.085 191.625 128.379 191.625C128.874 191.625 129.24 191.764 129.477 192.043C129.714 192.319 129.832 192.745 129.832 193.32V196H129.18C129.18 194.281 129.178 193.361 129.176 193.238C129.165 192.874 129.091 192.607 128.953 192.438C128.818 192.268 128.59 192.184 128.27 192.184C127.934 192.184 127.654 192.264 127.43 192.426C127.206 192.587 127.06 192.797 126.992 193.055C126.966 193.229 126.953 193.43 126.953 193.656V196H126.293ZM132.582 195.441C132.803 195.441 132.997 195.402 133.164 195.324C133.331 195.246 133.461 195.138 133.555 195C133.648 194.862 133.717 194.708 133.762 194.539C133.809 194.37 133.832 194.185 133.832 193.984V193.668C133.832 193.46 133.809 193.268 133.762 193.094C133.715 192.917 133.642 192.759 133.543 192.621C133.447 192.48 133.316 192.371 133.152 192.293C132.991 192.215 132.802 192.176 132.586 192.176C132.406 192.176 132.242 192.21 132.094 192.277C131.948 192.345 131.827 192.435 131.73 192.547C131.637 192.656 131.556 192.785 131.488 192.934C131.423 193.079 131.376 193.228 131.348 193.379C131.319 193.53 131.305 193.682 131.305 193.836C131.305 193.987 131.32 194.137 131.352 194.285C131.383 194.434 131.432 194.578 131.5 194.719C131.568 194.859 131.65 194.983 131.746 195.09C131.842 195.194 131.962 195.279 132.105 195.344C132.251 195.409 132.41 195.441 132.582 195.441ZM131.578 197.961L131.52 197.371H132.316C132.538 197.371 132.73 197.355 132.895 197.324C133.059 197.293 133.195 197.241 133.305 197.168C133.414 197.098 133.503 197.018 133.57 196.93C133.638 196.844 133.689 196.73 133.723 196.59C133.759 196.452 133.783 196.314 133.793 196.176C133.806 196.04 133.812 195.874 133.812 195.676V195.297C133.656 195.521 133.475 195.694 133.27 195.816C133.064 195.936 132.802 195.996 132.484 195.996C132.24 195.996 132.013 195.954 131.805 195.871C131.599 195.785 131.424 195.672 131.281 195.531C131.141 195.391 131.02 195.228 130.918 195.043C130.819 194.858 130.746 194.667 130.699 194.469C130.655 194.271 130.633 194.072 130.633 193.871C130.633 193.559 130.671 193.27 130.746 193.004C130.824 192.738 130.939 192.501 131.09 192.293C131.241 192.085 131.439 191.922 131.684 191.805C131.931 191.685 132.214 191.625 132.531 191.625C132.812 191.625 133.057 191.68 133.266 191.789C133.477 191.896 133.665 192.061 133.832 192.285V191.715H134.469V195.691C134.469 195.874 134.464 196.033 134.453 196.168C134.445 196.306 134.423 196.458 134.387 196.625C134.353 196.792 134.306 196.935 134.246 197.055C134.186 197.174 134.102 197.294 133.992 197.414C133.885 197.536 133.757 197.634 133.605 197.707C133.457 197.783 133.272 197.844 133.051 197.891C132.829 197.938 132.579 197.961 132.301 197.961H131.578Z" fill="#808080"/>
<rect x="42" y="52" width="1" height="50" fill="#D9D9D9"/>
<rect x="42" y="121" width="1" height="50" fill="#D9D9D9"/>
<defs>
<filter id="filter0_d_971_1017" x="0" y="0" width="272" height="254" filterUnits="userSpaceOnUse" color-interpolation-filters="sRGB">
<feFlood flood-opacity="0" result="BackgroundImageFix"/>
<feColorMatrix in="SourceAlpha" type="matrix" values="0 0 0 0 0 0 0 0 0 0 0 0 0 0 0 0 0 0 127 0" result="hardAlpha"/>
<feOffset dy="10"/>
<feGaussianBlur stdDeviation="10"/>
<feComposite in2="hardAlpha" operator="out"/>
<feColorMatrix type="matrix" values="0 0 0 0 0 0 0 0 0 0 0 0 0 0 0 0 0 0 0.15 0"/>
<feBlend mode="normal" in2="BackgroundImageFix" result="effect1_dropShadow_971_1017"/>
<feBlend mode="normal" in="SourceGraphic" in2="effect1_dropShadow_971_1017" result="shape"/>
</filter>
</defs>
</svg>
