<svg width="640" height="614" viewBox="0 0 640 614" fill="none" xmlns="http://www.w3.org/2000/svg">
<path d="M296.356 505.219C278.14 505.27 259.925 505.706 241.74 507.712C234.882 508.468 228.174 510.134 221.303 510.801C207.581 512.14 194.096 514.639 180.323 515.793C169.229 516.722 158.09 517.267 147.033 518.446C136.665 519.548 125.182 519.298 114.895 517.472C107.279 516.12 99.6265 515.357 92.1363 513.191C83.7575 510.762 74.6591 509.026 65.9299 509.09C53.4838 509.179 41.363 509.192 29.4488 513.473C25.2688 514.979 20.1501 517.453 16.9713 520.612C9.70013 527.841 8.7177 545.88 15.9764 553.378C28.2035 565.996 54.291 570.95 71.4303 571.187C90.209 571.443 108.45 570.059 127.253 569.245C144.724 568.489 162.158 567.412 179.66 567.451C215.409 567.528 251.158 567.451 286.844 565.08C320.372 562.856 353.981 563.619 387.577 563.619C421.174 563.619 456.253 563.888 490.457 568.431C505.362 570.412 520.543 571.104 535.523 572.488C548.939 573.731 561.83 572.462 575.189 571.315C586.409 570.354 597.554 567.496 607.747 562.664C615.813 558.838 630.199 546.957 632.671 537.831C639.604 512.243 534.916 512.858 518.841 512.916C500.857 512.98 482.735 513.569 464.77 512.883C457.211 512.595 449.764 511.134 442.387 509.525C435.04 507.923 427.638 508.333 420.185 507.661C389.11 504.86 357.973 505.27 326.805 505.27C316.661 505.27 306.512 505.181 296.362 505.213L296.356 505.219Z" fill="#F1F2F2"/>
<path d="M182.639 210.666L186.865 207.818L191.697 209.97L194.106 214.467L192.4 217.893L188.077 219.8L189.574 220.385L189.149 221.61L182.444 223.817C181.087 222.049 176.046 220.246 175.315 219.299L179.994 216.096L182.639 210.659V210.666Z" fill="#AA6755"/>
<path d="M93.3586 375.784L46.5251 358.56L56.1815 440.607L50.584 511.383L50.4378 511.856L50.5492 511.87L50.5353 512.024L59.7739 512.908V512.894L60.122 512.936L80.7434 449.874L91.6668 382.697L93.3586 375.784Z" fill="#1A3151"/>
<path d="M59.2935 516.131L49.7137 515.887L47.2631 523.97L47.5068 524.047L47.4441 524.054L63.2827 533.439L70.8156 534.274L71.7764 525.669L69.7365 524.179L59.2935 516.131Z" fill="#162A42"/>
<path d="M125.259 377.197L111.202 517.663L101.936 518.087L92.6206 442.236L76.4757 366.699L125.259 377.197Z" fill="#1A3151"/>
<path d="M111.182 520.928L123.462 527.89L122.307 533.682L100.37 530.375L101.657 522.028L111.182 520.928Z" fill="#162A42"/>
<path d="M147.217 412.474C150.182 410.413 150.245 406.835 150.238 403.242C150.231 396.503 149.02 389.617 147.474 383.066C144.536 370.785 141.201 355.984 139.733 340.069C135.945 298.93 122.954 271.326 122.954 271.326L118.763 260.145C117.927 258.69 117.064 257.256 116.166 255.835C110.931 247.62 101.838 233.655 92.1193 231.371C91.9174 231.322 91.7085 231.274 91.5067 231.232C81.2864 228.99 68.1839 230.027 58.9453 234.998C57.1909 235.938 55.6314 237.198 54.0858 238.444C49.5675 242.086 45.8846 244.063 43.9352 249.611C42.2435 254.429 41.8536 259.692 40.9207 264.691C39.027 274.842 37.8992 285.111 36.3815 295.324C33.5479 314.47 31.1391 333.678 28.1036 352.795C26.5441 362.633 24.9707 372.491 24.2327 382.433C23.5783 391.219 15.6486 400.144 11.1929 408.025C9.64037 410.768 31.9118 417.869 33.9099 418.336C43.1485 420.487 52.9719 419.937 62.496 419.979C83.3611 420.076 104.233 419.429 125.057 418.05C131.977 417.591 140.505 416.268 146.646 412.829C146.848 412.717 147.036 412.599 147.217 412.474Z" fill="#EAEDEF"/>
<path d="M80.0332 230.118C80.0332 230.118 68.2813 226.943 66.6522 253.468C65.03 279.994 62.3218 347.114 58.5345 365.515C54.7472 383.923 49.0592 420.021 49.0592 420.021L85.0528 421.274L126.191 418.022C126.191 418.022 112.114 392.04 109.949 373.633C107.784 355.225 111.571 285.939 102.367 259.957C93.1635 233.975 91.2351 230.577 80.0193 230.111L80.0332 230.118Z" fill="#30BFB5"/>
<path d="M104.63 261.12L130.863 275.378L146.674 269.968L187.13 225.488L176.381 215.769L133.446 249.333L99.6454 234.587L104.63 261.12Z" fill="#EAEDEF"/>
<path d="M96.4285 209.099C98.2038 214.439 95.6348 220.134 93.3722 225.001C91.3671 229.317 90.6709 232.158 95.7601 233.32C98.6285 233.975 103.711 235.2 106.224 233.007C108.125 231.343 107.059 226.212 106.134 224.172C105.423 222.613 103.558 221.826 102.889 220.246C102.618 219.598 102.576 218.874 102.569 218.171C102.527 215.289 102.931 212.406 103.746 209.643C104.303 207.77 105.054 205.925 105.221 203.975C105.465 201.149 103.467 197.856 102.416 195.266C100.459 190.434 93.6646 183.96 87.9766 187.747C86.6817 188.61 85.9228 190.072 85.2962 191.493C84.9203 192.342 84.5582 193.233 84.5513 194.159C84.5095 197.87 87.8931 198.489 90.2323 200.258C93.1146 202.437 95.3006 205.681 96.4354 209.093L96.4285 209.099Z" fill="#1A3151"/>
<path d="M85.6027 229.937C90.5387 228.774 94.4027 224.632 96.2546 219.905C98.1065 215.184 98.2039 209.949 97.6957 204.901C95.99 188.109 75.104 189.188 68.0306 202.054C61.8692 213.27 71.254 233.306 85.6096 229.93L85.6027 229.937Z" fill="#AA6755"/>
<path d="M85.6026 228.134C85.5191 230.048 85.4355 231.956 85.352 233.87C85.3381 234.149 85.3172 234.455 85.1222 234.657C84.8994 234.887 84.5374 234.887 84.2172 234.88C82.6577 234.824 81.0982 234.775 79.5387 234.72C78.7659 234.692 77.9653 234.657 77.283 234.295C75.7931 233.494 75.4868 231.475 75.7235 229.798C75.9602 228.12 76.559 226.435 76.2039 224.778C79.4203 226.365 82.4767 222.78 85.7001 224.367L85.5956 228.134H85.6026Z" fill="#AA6755"/>
<path d="M78.8638 175.8C73.3778 177.666 69.862 183.208 64.5082 185.429C61.4379 186.696 57.8038 186.863 55.3044 189.042C49.693 193.936 54.2044 204.198 49.5886 210.046C48.6278 211.265 47.3399 212.184 46.3721 213.395C44.2975 216.013 44.0259 219.577 43.838 222.912C43.7962 223.664 43.7892 224.479 43.9215 225.23C44.6456 232.93 55.8196 232.436 60.2613 231.949C65.1348 231.406 63.5126 228.698 63.5126 228.698L63.3386 228.482C62.8721 225.356 64.1531 222.021 66.6107 220.03C67.5227 219.292 68.6018 218.7 69.2423 217.718C70.6835 215.518 69.305 212.594 69.5208 209.97C70.3772 199.401 88.1164 201.664 93.122 194.138C99.2625 184.906 89.2233 172.277 78.8708 175.8H78.8638Z" fill="#1A3151"/>
<path d="M497.524 234.908L491.356 231.461L489.755 225.432L488.306 225.126L487.854 226.894L485.09 222.272L480.975 220.817L476.213 224.144L474.438 229.881L478.246 234.26L484.777 236.509L493.013 241.598L497.524 234.908Z" fill="#EAC1A4"/>
<path d="M498.109 230.988L488.863 241.939L523.109 275.169L532.341 278.149L571.669 246.785L561.15 225.307L531.819 250.238L498.109 230.988Z" fill="#EAEDEF"/>
<path d="M632.35 522.39L633.722 528.691L622.84 537.665L615.335 532.701L620.09 525.063L630.979 516.096L632.35 522.39Z" fill="#1A3151"/>
<path d="M594.289 328.679L606.431 356.68L607.58 435.476L632.545 520.225L620.94 525.37L569.978 426.969L564.178 395.8L561.874 330.155L594.289 328.679Z" fill="#145566"/>
<path d="M535.488 334.959L534.534 417.528L550.094 523.991H562.062L569.616 425.757L585.99 327.523L535.488 334.959Z" fill="#145566"/>
<path d="M561.992 522.571V529.039L549.05 535.506L542.582 529.039L549.05 522.571H561.992Z" fill="#1A3151"/>
<path d="M559.055 223.149L590.836 221.972C590.836 221.972 609.849 238.653 619.673 282.006C629.677 326.145 617.828 389.694 617.828 389.694C617.828 389.694 532.564 378.332 518.577 376.578L539.909 289.427L559.055 223.156V223.149Z" fill="#EAEDEF"/>
<path d="M570.444 226.393C574.155 226.031 577.866 225.669 581.576 225.307C581.618 222.334 581.416 219.355 580.985 216.417C584.076 215.33 587.654 213.708 588.197 210.471C588.371 209.455 588.197 208.41 588.016 207.394C587.292 203.189 586.575 198.977 585.851 194.772C585.6 193.317 585.336 191.82 584.549 190.574C583.164 188.388 580.469 187.427 577.921 186.974C571.412 185.832 564.311 187.239 559.249 191.493C557.906 192.627 556.687 193.992 556.088 195.649C555.169 198.204 555.852 201.024 556.534 203.648C557.168 206.071 557.801 208.494 558.435 210.917C559.166 213.701 560.217 216.869 562.897 217.92C564.325 218.477 566.002 218.317 567.297 219.139C569.574 220.587 569.261 223.97 570.437 226.4L570.444 226.393Z" fill="#EAC1A4"/>
<path d="M534.179 184.336C534.109 181.453 534.513 178.529 535.091 175.905C536.08 171.386 541.413 169.353 546.028 169.033C555.998 168.344 565.619 163.819 575.352 167.313C580.915 169.305 588.392 169.785 593.426 172.598C595.528 173.774 597.206 175.605 598.515 177.631C603.04 184.642 603.054 194.298 598.543 201.323C597.533 202.896 596.322 204.337 595.048 205.716C592.416 208.563 589.269 212.072 585.656 213.124C585.573 209.893 588.531 199.701 586.053 197.048C582.119 192.836 573.208 194.291 568.321 195.322C562.988 196.443 558.233 200.209 552.942 201.01C549.14 201.587 544.288 199.715 541.058 197.744C535.996 194.66 534.304 189.557 534.172 184.343L534.179 184.336Z" fill="#1A3151"/>
<path d="M567.819 227.075L534.409 360.718L531.673 378.249L573.298 383.728C573.298 383.728 571.655 319.726 572.205 311.197C572.755 302.662 578.924 284.206 579.871 264.322C580.421 252.821 584.069 232.158 581.514 225.432L567.819 227.075Z" fill="#C8D6A1"/>
<path d="M294.436 375.248V411.436C294.603 410.712 294.707 409.954 294.707 409.16V351.835H294.436V375.248Z" fill="#D9A3A3"/>
<path d="M294.449 326.583V291.133C294.275 291.871 294.164 292.63 294.164 293.437V350.178H294.435V326.583H294.449Z" fill="#D9A3A3"/>
<path d="M283.798 454.789C282.489 454.928 281.166 455.332 279.906 456.049C276.028 458.263 272.171 460.358 268.244 461.702C272.115 460.414 275.944 458.339 279.961 456.153C281.249 455.457 282.537 455.012 283.798 454.789Z" fill="#D9A3A3"/>
<path d="M320.627 290.499C316.7 289.163 312.843 287.067 308.965 284.853C307.705 284.136 306.389 283.732 305.08 283.593C306.34 283.816 307.628 284.254 308.916 284.958C312.933 287.137 316.763 289.218 320.633 290.506L320.627 290.499Z" fill="#D9A3A3"/>
<path d="M294.428 462.329V537.212C294.519 537.212 294.616 537.212 294.714 537.212V464.633C294.714 463.826 294.602 463.06 294.428 462.329Z" fill="#D9A3A3"/>
<path d="M189.253 336.699C190.332 338.433 190.785 340.292 190.75 342.095C190.959 340.041 190.527 337.876 189.288 335.892C185.292 329.487 182.744 322.371 182.772 315.66C182.521 322.608 185.104 330.03 189.253 336.699Z" fill="#D9A3A3"/>
<path d="M234.862 317.463C234.541 323.91 231.304 330.037 227.774 336.226C226.855 337.827 226.458 339.526 226.465 341.183C226.577 339.797 226.974 338.391 227.739 337.054C231.422 330.6 234.792 324.216 234.862 317.47V317.463Z" fill="#D9A3A3"/>
<path d="M294.442 240.241V204.052V163.192C294.352 163.192 294.261 163.192 294.171 163.199V237.964C294.171 238.758 294.282 239.516 294.449 240.241H294.442Z" fill="#D9A3A3"/>
<path d="M283.798 454.789C282.537 455.012 281.25 455.45 279.962 456.153C275.944 458.333 272.115 460.414 268.244 461.702C262.417 463.686 256.444 463.993 250.011 460.491C236.908 453.369 232.056 435.741 239.617 422.896C248.939 407.057 265.877 409.014 279.586 417.556C285.503 421.246 292.967 417.793 294.436 411.436V375.248V351.835V350.185H294.164V351.521H233.748C229.111 350.289 226.103 345.826 226.465 341.19C226.452 339.54 226.855 337.841 227.774 336.233C231.304 330.044 234.541 323.917 234.862 317.47C234.896 314.142 234.131 310.717 232.195 307.159C225.08 294.057 207.452 289.19 194.607 296.744C186.469 301.527 183.029 308.329 182.765 315.674C182.737 322.385 185.285 329.5 189.281 335.906C190.521 337.89 190.952 340.055 190.743 342.109C190.653 346.432 187.687 350.435 183.273 351.528H130.738C130.564 351.793 130.383 352.05 130.216 352.322C125.683 359.73 126.616 365.243 133.383 369.901C137.721 372.888 142.295 375.457 146.089 379.328C151.881 385.245 152.257 388.733 147.837 396.05C142.859 404.286 142.887 404.621 150.538 410.476C152.592 412.049 154.764 413.226 151.881 416.198C147.635 420.571 149.159 424.838 152.807 428.027C157.938 432.496 158.711 438.233 157.743 444.652C156.901 450.25 155.662 455.777 154.618 461.333C151.791 476.336 155.724 483.298 169.28 487.239C183.426 491.353 197.504 487.789 211.616 486.424C221.07 485.512 230.385 482.219 240.055 484.614C246.335 486.167 249.802 490.01 250.61 497.041C251.786 507.303 254.843 517.106 256.583 527.201C258.003 535.437 261.589 538.006 269.003 537.672C275.213 537.393 284.104 537.261 294.415 537.219V462.336C293.273 457.469 288.608 454.295 283.791 454.796L283.798 454.789Z" fill="#1A3151"/>
<path d="M345.585 210.415C348.495 216.256 356.557 217.879 361.452 212.915C372.793 201.42 388.826 195.586 401.567 208.828C411.898 219.563 411.272 237.839 400.181 247.808C394.737 252.703 388.847 253.796 382.721 253.218C378.662 252.863 374.45 251.728 370.036 250.544C368.623 250.161 367.265 250.036 365.991 250.113C361.187 250.739 357.386 254.916 357.4 259.915L365.636 294.398H365.622L371.101 317.352L371.296 318.18L371.484 318.96L371.748 318.897L431.232 304.695C437.052 305.349 441.389 311.17 439.6 317.303C436.481 327.955 434.017 338.294 442.204 347.421C452.167 358.518 470.442 359.152 481.184 348.827C494.433 336.094 488.606 320.06 477.119 308.712C472.433 304.082 473.631 296.626 478.706 293.368L515.068 284.686C516.976 271.27 516.809 258.063 514.672 245.713C508.385 213.882 496.034 189.265 476.513 171.386C436.474 134.71 390.274 124.678 341.22 132.469C336.611 133.2 332.1 134.216 327.672 135.476L337.161 175.222L345.564 210.422L345.585 210.415Z" fill="#145566"/>
<path d="M406.531 537.692C415.386 537.212 411.091 531.684 407.004 523.107C373.886 453.494 413.333 397.387 419.793 389.534C429.471 377.768 436.892 364.951 442.065 351.835H404.679C398.984 353.826 396.088 360.795 399.569 366.385C408.104 380.093 410.047 397.039 394.208 406.347C381.363 413.894 363.735 409.035 356.62 395.932C350.772 385.155 355.569 375.673 361.076 366.037C364.244 360.488 361.375 353.819 355.868 351.835H294.714V409.16C294.714 409.954 294.603 410.712 294.435 411.436V411.68C292.89 417.946 285.489 421.316 279.62 417.654C265.912 409.118 248.967 407.169 239.658 423.014C232.105 435.859 237.695 453.188 250.798 460.303C257.133 463.742 262.73 463.526 268.251 461.695C272.178 460.358 276.035 458.263 279.913 456.042C281.173 455.325 282.496 454.921 283.805 454.782C288.838 453.891 293.301 456.683 294.435 462.155V462.322C294.61 463.06 294.721 463.826 294.721 464.626V537.205C334.627 537.059 395.663 538.277 406.538 537.686L406.531 537.692Z" fill="#D1E7F5"/>
<path d="M294.428 462.329V462.162C293.3 456.69 288.838 453.905 283.797 454.789C288.615 454.288 293.28 457.462 294.428 462.329Z" fill="#1A3151"/>
<path d="M279.578 417.556C265.877 409.014 248.931 407.057 239.609 422.896C232.049 435.741 236.901 453.369 250.004 460.491C256.437 463.986 262.417 463.686 268.237 461.702C262.716 463.54 257.119 463.749 250.783 460.31C237.681 453.195 232.09 435.866 239.644 423.021C248.959 407.183 265.898 409.125 279.606 417.66C285.475 421.316 292.876 417.946 294.421 411.687V411.443C292.952 417.8 285.482 421.246 279.571 417.563L279.578 417.556Z" fill="#1A3151"/>
<path d="M349.261 251.7C339.939 235.861 323.001 237.811 309.292 246.36C303.375 250.05 295.911 246.597 294.442 240.241C294.275 239.517 294.164 238.758 294.164 237.964V163.199C273.744 164.118 253.882 170.272 234.82 179.615C229.696 182.129 224.655 184.872 219.656 187.705C184.61 207.554 165.109 238.027 166.759 282.681C167.685 307.737 156.532 325.978 140.046 341.308C137.066 344.079 134.107 346.836 131.664 350.164C131.343 350.602 131.03 351.055 130.731 351.514H183.266C187.687 350.421 190.646 346.418 190.736 342.095C190.771 340.292 190.319 338.426 189.239 336.699C185.09 330.037 182.507 322.608 182.758 315.66C183.022 308.322 186.462 301.52 194.6 296.73C207.445 289.184 225.073 294.043 232.188 307.146C234.124 310.703 234.882 314.128 234.855 317.456C234.785 324.202 231.422 330.594 227.732 337.04C226.967 338.377 226.57 339.783 226.458 341.169C226.089 345.806 229.097 350.268 233.741 351.5H294.157V293.43C294.157 292.623 294.268 291.857 294.442 291.126C295.591 286.259 300.256 283.078 305.073 283.586C306.382 283.725 307.698 284.129 308.958 284.846C312.836 287.06 316.693 289.156 320.62 290.492C326.447 292.477 332.42 292.783 338.853 289.281C351.956 282.159 356.808 264.531 349.247 251.686L349.261 251.7Z" fill="#B5D6CA"/>
<path d="M595.842 247.411L555.176 285.807L494.851 267.824L490.534 281.393L556.84 311.726H574.287L611.151 280.363L595.842 247.411Z" fill="#EAEDEF"/>
<path d="M490.924 280.175L480.425 280.363L474.013 271.319L490.312 262.254L494.851 267.824L490.924 280.175Z" fill="#EAC1A4"/>
<path d="M153.462 303.142L153.267 309.262L164.065 313.195L170.296 308.475V301.353L164.288 301.019L164.1 299.452L162.129 298.185L153.462 303.142Z" fill="#AA6755"/>
<path d="M63.3107 257.36L107.854 295.289L155.167 296.208C155.167 296.208 153.246 316.537 153.267 314.845C153.288 313.154 100.871 319.914 100.871 319.914L54.3715 287.046L63.3176 257.36H63.3107Z" fill="#EAEDEF"/>
</svg>
